<svg xmlns="http://www.w3.org/2000/svg" xmlns:xlink="http://www.w3.org/1999/xlink" viewBox="0 0 200 200"><defs><style>.cls-1{fill:none;clip-rule:evenodd;}.cls-2{fill:#e6e7e8;}.cls-3,.cls-5{fill-rule:evenodd;}.cls-3{fill:url(#Degradado_sin_nombre_31);}.cls-4{clip-path:url(#clip-path);}.cls-5,.cls-6{fill:#fff;}.cls-6{font-size:8.11px;font-family:AntipastoPro-DemiBold, Antipasto Pro;font-weight:300;}.cls-7{letter-spacing:-0.01em;}.cls-8{letter-spacing:-0.02em;}.cls-12,.cls-9{font-size:11.81px;font-family:ForteMT, Forte;}.cls-9{fill:#00b7d4;}.cls-10{letter-spacing:-0.03em;}.cls-11{letter-spacing:-0.09em;}.cls-12{fill:#684b9e;}</style><linearGradient id="Degradado_sin_nombre_31" x1="63.96" y1="118.38" x2="27.21" y2="81.62" gradientUnits="userSpaceOnUse"><stop offset="0" stop-color="#4571b7"/><stop offset="1" stop-color="#9951a0"/></linearGradient><clipPath id="clip-path" transform="translate(0 0)"><path class="cls-1" d="M45.59,74.21A25.79,25.79,0,1,1,19.39,100,26,26,0,0,1,45.59,74.21Z"/></clipPath></defs><title>aussie_association_logo</title><g id="Layer_1" data-name="Layer 1"><rect class="cls-2" width="200" height="200"/></g><g id="Layer_2" data-name="Layer 2"><path class="cls-3" d="M45.59,74.21A25.79,25.79,0,1,1,19.39,100,26,26,0,0,1,45.59,74.21Z" transform="translate(0 0)"/><g class="cls-4"><path class="cls-5" d="M54.23,97.7a3.64,3.64,0,1,1-3.51,3.64A3.58,3.58,0,0,1,54.23,97.7Z" transform="translate(0 0)"/><path class="cls-5" d="M36.55,103.58a3,3,0,1,1-2.9,3A3,3,0,0,1,36.55,103.58Z" transform="translate(0 0)"/><path class="cls-5" d="M30.18,124.79c-2.52-4.49-4.44-15.68-4.88-18.63-.57-3.77-1.82-6,.13-6.68s3.63,5.23,7.74,9.92c4.43,5,10.33,1.72,11.5,4.89.6,1.64-3.46,3.11-5.15,5.4-2.76,3.73-2.51,6.12-2.37,9.61" transform="translate(0 0)"/><path class="cls-5" d="M55,132.07c-.41-1.9-.14-4-.29-5.92a17.46,17.46,0,0,0-2.95-8.75,11.7,11.7,0,0,0-2.91-2.92,35.94,35.94,0,0,1-3.57-2.15c-.87-.72-2-2.07-1.82-3.35.22-1.5,2.1-1.35,3.15-1.25,3.31.3,6.64.75,9.9-.27,3-.95,5.15-3.31,7-5.79.32-.42,1.47-2,2.21-1.6,1.2.68,1.06,3.06,1.1,4.22A38.42,38.42,0,0,1,65,118c-1.13,3.41-2.65,7.09-5.09,9.72" transform="translate(0 0)"/></g><text class="cls-6" transform="translate(27.24 93.88) scale(1.09 1)"><tspan class="cls-7">A</tspan><tspan x="4.68" y="0">as O</tspan><tspan class="cls-8" x="19.72" y="0">r</tspan><tspan x="22.5" y="0">g</tspan></text><text class="cls-9" transform="translate(78 96.55)"><tspan class="cls-10">A</tspan><tspan x="8.26" y="0">ussie</tspan><tspan class="cls-11" x="33.11" y="0"> </tspan><tspan x="35.19" y="0">Association </tspan><tspan x="0" y="14.17">Of Somalia</tspan></text><text class="cls-12" transform="translate(78 96.55)"><tspan class="cls-10">A</tspan><tspan x="8.26" y="0">ussie</tspan><tspan class="cls-11" x="33.11" y="0"> </tspan><tspan x="35.19" y="0">Association </tspan><tspan x="0" y="14.17">Of Somalia</tspan></text></g></svg>