<svg xmlns="http://www.w3.org/2000/svg" xmlns:xlink="http://www.w3.org/1999/xlink" viewBox="0 0 200 200"><defs><linearGradient id="a" x1="49.66" y1="70.17" x2="50.11" y2="70.17" gradientTransform="translate(35.18 26.58) rotate(21.38)" gradientUnits="userSpaceOnUse"><stop offset="0" stop-color="#108040"/><stop offset="1" stop-color="#60bb47"/></linearGradient><linearGradient id="b" x1="49.32" y1="70.93" x2="49.9" y2="70.93" xlink:href="#a"/><linearGradient id="c" x1="49.99" y1="70.79" x2="50.73" y2="70.79" xlink:href="#a"/><linearGradient id="d" x1="50.19" y1="70.01" x2="51.23" y2="70.01" xlink:href="#a"/><linearGradient id="e" x1="49.86" y1="69.38" x2="50.4" y2="69.38" xlink:href="#a"/><linearGradient id="f" x1="48.99" y1="69.58" x2="49.78" y2="69.58" xlink:href="#a"/><linearGradient id="g" x1="48.55" y1="70.28" x2="49.57" y2="70.28" xlink:href="#a"/><linearGradient id="h" x1="50.01" y1="66.99" x2="50.46" y2="66.99" xlink:href="#a"/><linearGradient id="i" x1="49.83" y1="67.8" x2="50.35" y2="67.8" xlink:href="#a"/><linearGradient id="j" x1="50.41" y1="67.49" x2="51.26" y2="67.49" xlink:href="#a"/><linearGradient id="k" x1="50.5" y1="66.7" x2="51.51" y2="66.7" xlink:href="#a"/><linearGradient id="l" x1="50.1" y1="66.15" x2="50.6" y2="66.15" xlink:href="#a"/><linearGradient id="m" x1="49.18" y1="66.51" x2="50.08" y2="66.51" xlink:href="#a"/><linearGradient id="n" x1="48.96" y1="67.22" x2="49.96" y2="67.22" xlink:href="#a"/><linearGradient id="o" x1="42.65" y1="80.05" x2="43.64" y2="80.05" xlink:href="#a"/><linearGradient id="p" x1="42.64" y1="79.3" x2="43.58" y2="79.3" xlink:href="#a"/><linearGradient id="q" x1="42.18" y1="78.85" x2="42.65" y2="78.85" xlink:href="#a"/><linearGradient id="r" x1="44.71" y1="77.93" x2="45.16" y2="77.93" xlink:href="#a"/><linearGradient id="s" x1="43.86" y1="78.39" x2="44.76" y2="78.39" xlink:href="#a"/><linearGradient id="t" x1="44.8" y1="78.75" x2="45.32" y2="78.75" xlink:href="#a"/><linearGradient id="u" x1="45.21" y1="78.16" x2="46.25" y2="78.16" xlink:href="#a"/><linearGradient id="v" x1="45.1" y1="77.41" x2="45.95" y2="77.41" xlink:href="#a"/><linearGradient id="w" x1="44.55" y1="77.11" x2="45.06" y2="77.11" xlink:href="#a"/><linearGradient id="x" x1="43.69" y1="77.66" x2="44.68" y2="77.66" xlink:href="#a"/><linearGradient id="y" x1="46.88" y1="75.62" x2="47.33" y2="75.62" xlink:href="#a"/><linearGradient id="z" x1="46.19" y1="76.2" x2="46.99" y2="76.2" xlink:href="#a"/><linearGradient id="aa" x1="47.07" y1="76.4" x2="47.63" y2="76.4" xlink:href="#a"/><linearGradient id="ab" x1="47.42" y1="75.73" x2="48.47" y2="75.73" xlink:href="#a"/><linearGradient id="ac" x1="47.21" y1="74.99" x2="47.95" y2="74.99" xlink:href="#a"/><linearGradient id="ad" x1="46.56" y1="74.85" x2="47.13" y2="74.85" xlink:href="#a"/><linearGradient id="ae" x1="45.79" y1="75.47" x2="46.8" y2="75.47" xlink:href="#a"/><linearGradient id="af" x1="49.08" y1="72.89" x2="50.12" y2="72.89" xlink:href="#a"/><linearGradient id="ag" x1="48.79" y1="72.19" x2="49.42" y2="72.19" xlink:href="#a"/><linearGradient id="ah" x1="48.03" y1="72.22" x2="48.7" y2="72.22" xlink:href="#a"/><linearGradient id="ai" x1="48.52" y1="72.91" x2="48.97" y2="72.91" xlink:href="#a"/><linearGradient id="aj" x1="48.01" y1="73.59" x2="48.7" y2="73.59" xlink:href="#a"/><linearGradient id="ak" x1="48.79" y1="73.62" x2="49.43" y2="73.62" xlink:href="#a"/><linearGradient id="al" x1="47.4" y1="72.89" x2="48.41" y2="72.89" xlink:href="#a"/><linearGradient id="am" x1="33.37" y1="82.06" x2="33.82" y2="82.06" xlink:href="#a"/><linearGradient id="an" x1="33.65" y1="82.74" x2="34.35" y2="82.74" xlink:href="#a"/><linearGradient id="ao" x1="33.94" y1="82.04" x2="34.97" y2="82.04" xlink:href="#a"/><linearGradient id="ap" x1="33.65" y1="81.35" x2="34.27" y2="81.35" xlink:href="#a"/><linearGradient id="aq" x1="36.43" y1="81.79" x2="36.89" y2="81.79" xlink:href="#a"/><linearGradient id="ar" x1="35.32" y1="81.9" x2="36.34" y2="81.9" xlink:href="#a"/><linearGradient id="as" x1="36.1" y1="82.56" x2="36.69" y2="82.56" xlink:href="#a"/><linearGradient id="at" x1="36.78" y1="82.38" x2="37.59" y2="82.38" xlink:href="#a"/><linearGradient id="au" x1="36.97" y1="81.64" x2="38.01" y2="81.64" xlink:href="#a"/><linearGradient id="av" x1="36.65" y1="81.02" x2="37.18" y2="81.02" xlink:href="#a"/><linearGradient id="aw" x1="35.84" y1="81.17" x2="36.57" y2="81.17" xlink:href="#a"/><linearGradient id="ax" x1="39.4" y1="81" x2="39.86" y2="81" xlink:href="#a"/><linearGradient id="ay" x1="38.34" y1="81.23" x2="39.35" y2="81.23" xlink:href="#a"/><linearGradient id="az" x1="39.23" y1="81.82" x2="39.76" y2="81.82" xlink:href="#a"/><linearGradient id="ba" x1="39.81" y1="81.46" x2="40.72" y2="81.46" xlink:href="#a"/><linearGradient id="bb" x1="39.9" y1="80.72" x2="40.9" y2="80.72" xlink:href="#a"/><linearGradient id="bc" x1="39.52" y1="80.17" x2="40" y2="80.17" xlink:href="#a"/><linearGradient id="bd" x1="38.64" y1="80.48" x2="39.48" y2="80.48" xlink:href="#a"/><linearGradient id="be" x1="42.19" y1="79.69" x2="42.64" y2="79.69" xlink:href="#a"/><linearGradient id="bf" x1="41.22" y1="80.04" x2="42.19" y2="80.04" xlink:href="#a"/><linearGradient id="bg" x1="42.16" y1="80.54" x2="42.66" y2="80.54" xlink:href="#a"/><linearGradient id="bh" x1="41.28" y1="79.3" x2="42.21" y2="79.3" xlink:href="#a"/><linearGradient id="bi" x1="24.54" y1="80.56" x2="25.05" y2="80.56" xlink:href="#a"/><linearGradient id="bj" x1="25" y1="80.07" x2="25.99" y2="80.07" xlink:href="#a"/><linearGradient id="bk" x1="25" y1="79.33" x2="25.93" y2="79.33" xlink:href="#a"/><linearGradient id="bl" x1="27.33" y1="81" x2="27.78" y2="81" xlink:href="#a"/><linearGradient id="bm" x1="26.31" y1="80.73" x2="27.29" y2="80.73" xlink:href="#a"/><linearGradient id="bn" x1="26.49" y1="81.48" x2="27.4" y2="81.48" xlink:href="#a"/><linearGradient id="bo" x1="27.45" y1="81.83" x2="27.98" y2="81.83" xlink:href="#a"/><linearGradient id="bp" x1="27.84" y1="81.25" x2="28.87" y2="81.25" xlink:href="#a"/><linearGradient id="bq" x1="27.74" y1="80.5" x2="28.57" y2="80.5" xlink:href="#a"/><linearGradient id="br" x1="27.21" y1="80.18" x2="27.7" y2="80.18" xlink:href="#a"/><linearGradient id="bs" x1="30.3" y1="81.79" x2="30.76" y2="81.79" xlink:href="#a"/><linearGradient id="bt" x1="29.21" y1="81.65" x2="30.22" y2="81.65" xlink:href="#a"/><linearGradient id="bu" x1="29.62" y1="82.39" x2="30.43" y2="82.39" xlink:href="#a"/><linearGradient id="bv" x1="30.52" y1="82.56" x2="31.12" y2="82.56" xlink:href="#a"/><linearGradient id="bw" x1="30.85" y1="81.91" x2="31.9" y2="81.91" xlink:href="#a"/><linearGradient id="bx" x1="30.65" y1="81.18" x2="31.38" y2="81.18" xlink:href="#a"/><linearGradient id="by" x1="30.04" y1="81.02" x2="30.57" y2="81.02" xlink:href="#a"/><linearGradient id="bz" x1="32.24" y1="82.04" x2="33.26" y2="82.04" xlink:href="#a"/><linearGradient id="ca" x1="32.86" y1="82.75" x2="33.56" y2="82.75" xlink:href="#a"/><linearGradient id="cb" x1="32.94" y1="81.35" x2="33.56" y2="81.35" xlink:href="#a"/><linearGradient id="cc" x1="18.08" y1="73.26" x2="18.53" y2="73.26" xlink:href="#a"/><linearGradient id="cd" x1="17.63" y1="73.98" x2="18.27" y2="73.98" xlink:href="#a"/><linearGradient id="ce" x1="18.36" y1="73.95" x2="19.05" y2="73.95" xlink:href="#a"/><linearGradient id="cf" x1="18.64" y1="73.26" x2="19.66" y2="73.26" xlink:href="#a"/><linearGradient id="cg" x1="19.84" y1="75.77" x2="20.3" y2="75.77" xlink:href="#a"/><linearGradient id="ch" x1="19.24" y1="75.15" x2="19.98" y2="75.15" xlink:href="#a"/><linearGradient id="ci" x1="18.73" y1="75.9" x2="19.77" y2="75.9" xlink:href="#a"/><linearGradient id="cj" x1="19.56" y1="76.57" x2="20.12" y2="76.57" xlink:href="#a"/><linearGradient id="ck" x1="20.19" y1="76.37" x2="21" y2="76.37" xlink:href="#a"/><linearGradient id="cl" x1="20.39" y1="75.64" x2="21.4" y2="75.64" xlink:href="#a"/><linearGradient id="cm" x1="20.06" y1="75.02" x2="20.63" y2="75.02" xlink:href="#a"/><linearGradient id="cn" x1="22.02" y1="77.94" x2="22.47" y2="77.94" xlink:href="#a"/><linearGradient id="co" x1="21.25" y1="77.43" x2="22.09" y2="77.43" xlink:href="#a"/><linearGradient id="cp" x1="20.95" y1="78.19" x2="21.99" y2="78.19" xlink:href="#a"/><linearGradient id="cq" x1="21.89" y1="78.78" x2="22.4" y2="78.78" xlink:href="#a"/><linearGradient id="cr" x1="22.43" y1="78.42" x2="23.34" y2="78.42" xlink:href="#a"/><linearGradient id="cs" x1="22.53" y1="77.68" x2="23.51" y2="77.68" xlink:href="#a"/><linearGradient id="ct" x1="22.15" y1="77.14" x2="22.65" y2="77.14" xlink:href="#a"/><linearGradient id="cu" x1="24.54" y1="79.7" x2="25" y2="79.7" xlink:href="#a"/><linearGradient id="cv" x1="23.63" y1="79.32" x2="24.55" y2="79.32" xlink:href="#a"/><linearGradient id="cw" x1="23.57" y1="80.07" x2="24.56" y2="80.07" xlink:href="#a"/><linearGradient id="cx" x1="24.55" y1="78.87" x2="25.03" y2="78.87" xlink:href="#a"/><linearGradient id="cy" x1="15.71" y1="64.45" x2="16.16" y2="64.45" xlink:href="#a"/><linearGradient id="cz" x1="14.78" y1="64.85" x2="15.73" y2="64.85" xlink:href="#a"/><linearGradient id="da" x1="15.71" y1="65.31" x2="16.2" y2="65.31" xlink:href="#a"/><linearGradient id="db" x1="16.16" y1="64.82" x2="17.13" y2="64.82" xlink:href="#a"/><linearGradient id="dc" x1="15.98" y1="67.51" x2="16.43" y2="67.51" xlink:href="#a"/><linearGradient id="dd" x1="15.85" y1="66.68" x2="16.35" y2="66.68" xlink:href="#a"/><linearGradient id="de" x1="14.94" y1="67.24" x2="15.93" y2="67.24" xlink:href="#a"/><linearGradient id="df" x1="15.19" y1="68.03" x2="16.05" y2="68.03" xlink:href="#a"/><linearGradient id="dg" x1="16.1" y1="68.34" x2="16.61" y2="68.34" xlink:href="#a"/><linearGradient id="dh" x1="16.47" y1="67.76" x2="17.49" y2="67.76" xlink:href="#a"/><linearGradient id="di" x1="16.38" y1="67.05" x2="17.27" y2="67.05" xlink:href="#a"/><linearGradient id="dj" x1="16.77" y1="70.48" x2="17.23" y2="70.48" xlink:href="#a"/><linearGradient id="dk" x1="16.49" y1="69.69" x2="17.04" y2="69.69" xlink:href="#a"/><linearGradient id="dl" x1="15.67" y1="70.34" x2="16.69" y2="70.34" xlink:href="#a"/><linearGradient id="dm" x1="16.16" y1="71.11" x2="16.91" y2="71.11" xlink:href="#a"/><linearGradient id="dn" x1="16.99" y1="71.25" x2="17.57" y2="71.25" xlink:href="#a"/><linearGradient id="do" x1="17.31" y1="70.6" x2="18.34" y2="70.6" xlink:href="#a"/><linearGradient id="dp" x1="17.12" y1="69.9" x2="17.91" y2="69.9" xlink:href="#a"/><linearGradient id="dq" x1="17.64" y1="72.55" x2="18.27" y2="72.55" xlink:href="#a"/><linearGradient id="dr" x1="16.94" y1="73.25" x2="17.97" y2="73.25" xlink:href="#a"/><linearGradient id="ds" x1="18.36" y1="72.58" x2="19.03" y2="72.58" xlink:href="#a"/><linearGradient id="dt" x1="16.77" y1="58.42" x2="17.22" y2="58.42" xlink:href="#a"/><linearGradient id="du" x1="16.98" y1="57.66" x2="17.56" y2="57.66" xlink:href="#a"/><linearGradient id="dv" x1="16.15" y1="57.81" x2="16.89" y2="57.81" xlink:href="#a"/><linearGradient id="dw" x1="15.65" y1="58.58" x2="16.69" y2="58.58" xlink:href="#a"/><linearGradient id="dx" x1="16.48" y1="59.22" x2="17.03" y2="59.22" xlink:href="#a"/><linearGradient id="dy" x1="17.1" y1="59.02" x2="17.89" y2="59.02" xlink:href="#a"/><linearGradient id="dz" x1="17.31" y1="58.32" x2="18.33" y2="58.32" xlink:href="#a"/><linearGradient id="ea" x1="15.98" y1="61.39" x2="16.43" y2="61.39" xlink:href="#a"/><linearGradient id="eb" x1="16.09" y1="60.58" x2="16.61" y2="60.58" xlink:href="#a"/><linearGradient id="ec" x1="15.18" y1="60.89" x2="16.03" y2="60.89" xlink:href="#a"/><linearGradient id="ed" x1="14.93" y1="61.68" x2="15.94" y2="61.68" xlink:href="#a"/><linearGradient id="ee" x1="15.84" y1="62.23" x2="16.34" y2="62.23" xlink:href="#a"/><linearGradient id="ef" x1="16.37" y1="61.87" x2="17.26" y2="61.87" xlink:href="#a"/><linearGradient id="eg" x1="16.48" y1="61.16" x2="17.48" y2="61.16" xlink:href="#a"/><linearGradient id="eh" x1="15.71" y1="63.6" x2="16.2" y2="63.6" xlink:href="#a"/><linearGradient id="ei" x1="14.78" y1="64.07" x2="15.72" y2="64.07" xlink:href="#a"/><linearGradient id="ej" x1="16.17" y1="64.11" x2="17.13" y2="64.11" xlink:href="#a"/><linearGradient id="ek" x1="20.61" y1="53.22" x2="21.06" y2="53.22" xlink:href="#a"/><linearGradient id="el" x1="20.95" y1="52.64" x2="21.75" y2="52.64" xlink:href="#a"/><linearGradient id="em" x1="20.31" y1="52.44" x2="20.87" y2="52.44" xlink:href="#a"/><linearGradient id="en" x1="19.47" y1="53.12" x2="20.52" y2="53.12" xlink:href="#a"/><linearGradient id="eo" x1="19.99" y1="53.86" x2="20.72" y2="53.86" xlink:href="#a"/><linearGradient id="ep" x1="20.81" y1="53.99" x2="21.38" y2="53.99" xlink:href="#a"/><linearGradient id="eq" x1="21.14" y1="53.37" x2="22.15" y2="53.37" xlink:href="#a"/><linearGradient id="er" x1="17.23" y1="55.61" x2="18.26" y2="55.61" xlink:href="#a"/><linearGradient id="es" x1="17.92" y1="56.31" x2="18.55" y2="56.31" xlink:href="#a"/><linearGradient id="et" x1="18.64" y1="56.28" x2="19.32" y2="56.28" xlink:href="#a"/><linearGradient id="eu" x1="18.38" y1="55.58" x2="18.83" y2="55.58" xlink:href="#a"/><linearGradient id="ev" x1="18.65" y1="54.91" x2="19.33" y2="54.91" xlink:href="#a"/><linearGradient id="ew" x1="17.92" y1="54.88" x2="18.56" y2="54.88" xlink:href="#a"/><linearGradient id="ex" x1="18.94" y1="55.61" x2="19.95" y2="55.61" xlink:href="#a"/><linearGradient id="ey" x1="44.58" y1="61.62" x2="45.01" y2="61.62" gradientTransform="translate(40.42 33.44) rotate(26.1)" gradientUnits="userSpaceOnUse"><stop offset="0" stop-color="#95aa3b"/><stop offset="1" stop-color="#f5eb16"/></linearGradient><linearGradient id="ez" x1="45.01" y1="61.23" x2="45.84" y2="61.23" xlink:href="#ey"/><linearGradient id="fa" x1="43.77" y1="61.2" x2="44.61" y2="61.2" xlink:href="#ey"/><linearGradient id="fb" x1="29.06" y1="46.03" x2="29.46" y2="46.03" xlink:href="#ey"/><linearGradient id="fc" x1="28.59" y1="45.46" x2="29.2" y2="45.46" xlink:href="#ey"/><linearGradient id="fd" x1="28.04" y1="46.05" x2="28.95" y2="46.05" xlink:href="#ey"/><linearGradient id="fe" x1="28.66" y1="46.63" x2="29.2" y2="46.63" xlink:href="#ey"/><linearGradient id="ff" x1="26.35" y1="46.26" x2="26.76" y2="46.26" xlink:href="#ey"/><linearGradient id="fg" x1="26.83" y1="46.17" x2="27.74" y2="46.17" xlink:href="#ey"/><linearGradient id="fh" x1="26.52" y1="45.61" x2="27.05" y2="45.61" xlink:href="#ey"/><linearGradient id="fi" x1="25.73" y1="45.77" x2="26.45" y2="45.77" xlink:href="#ey"/><linearGradient id="fj" x1="25.37" y1="46.39" x2="26.28" y2="46.39" xlink:href="#ey"/><linearGradient id="fk" x1="26.1" y1="46.91" x2="26.57" y2="46.91" xlink:href="#ey"/><linearGradient id="fl" x1="26.64" y1="46.78" x2="27.28" y2="46.78" xlink:href="#ey"/><linearGradient id="fm" x1="23.73" y1="46.93" x2="24.14" y2="46.93" xlink:href="#ey"/><linearGradient id="fn" x1="24.18" y1="46.73" x2="25.07" y2="46.73" xlink:href="#ey"/><linearGradient id="fo" x1="23.82" y1="46.24" x2="24.29" y2="46.24" xlink:href="#ey"/><linearGradient id="fp" x1="22.97" y1="46.54" x2="23.78" y2="46.54" xlink:href="#ey"/><linearGradient id="fq" x1="22.81" y1="47.17" x2="23.7" y2="47.17" xlink:href="#ey"/><linearGradient id="fr" x1="23.61" y1="47.63" x2="24.04" y2="47.63" xlink:href="#ey"/><linearGradient id="fs" x1="24.07" y1="47.36" x2="24.81" y2="47.36" xlink:href="#ey"/><linearGradient id="ft" x1="20.23" y1="47.82" x2="21.1" y2="47.82" xlink:href="#ey"/><linearGradient id="fu" x1="20.28" y1="48.45" x2="21.11" y2="48.45" xlink:href="#ey"/><linearGradient id="fv" x1="21.1" y1="48.83" x2="21.52" y2="48.83" xlink:href="#ey"/><linearGradient id="fw" x1="21.1" y1="48.12" x2="21.51" y2="48.12" xlink:href="#ey"/><linearGradient id="fx" x1="21.5" y1="47.82" x2="22.36" y2="47.82" xlink:href="#ey"/><linearGradient id="fy" x1="21.09" y1="47.4" x2="21.53" y2="47.4" xlink:href="#ey"/><linearGradient id="fz" x1="21.49" y1="48.45" x2="22.31" y2="48.45" xlink:href="#ey"/><linearGradient id="ga" x1="36.79" y1="47.3" x2="37.23" y2="47.3" xlink:href="#ey"/><linearGradient id="gb" x1="35.96" y1="47.72" x2="36.83" y2="47.72" xlink:href="#ey"/><linearGradient id="gc" x1="36.01" y1="48.34" x2="36.83" y2="48.34" xlink:href="#ey"/><linearGradient id="gd" x1="34.38" y1="46.92" x2="34.78" y2="46.92" xlink:href="#ey"/><linearGradient id="ge" x1="34.81" y1="47.16" x2="35.68" y2="47.16" xlink:href="#ey"/><linearGradient id="gf" x1="34.72" y1="46.52" x2="35.52" y2="46.52" xlink:href="#ey"/><linearGradient id="gg" x1="34.2" y1="46.23" x2="34.67" y2="46.23" xlink:href="#ey"/><linearGradient id="gh" x1="33.42" y1="46.72" x2="34.33" y2="46.72" xlink:href="#ey"/><linearGradient id="gi" x1="33.68" y1="47.35" x2="34.42" y2="47.35" xlink:href="#ey"/><linearGradient id="gj" x1="34.45" y1="47.62" x2="34.88" y2="47.62" xlink:href="#ey"/><linearGradient id="gk" x1="31.76" y1="46.26" x2="32.16" y2="46.26" xlink:href="#ey"/><linearGradient id="gl" x1="32.23" y1="46.38" x2="33.12" y2="46.38" xlink:href="#ey"/><linearGradient id="gm" x1="32.04" y1="45.76" x2="32.76" y2="45.76" xlink:href="#ey"/><linearGradient id="gn" x1="31.44" y1="45.61" x2="31.97" y2="45.61" xlink:href="#ey"/><linearGradient id="go" x1="30.75" y1="46.16" x2="31.68" y2="46.16" xlink:href="#ey"/><linearGradient id="gp" x1="31.21" y1="46.77" x2="31.85" y2="46.77" xlink:href="#ey"/><linearGradient id="gq" x1="31.92" y1="46.92" x2="32.39" y2="46.92" xlink:href="#ey"/><linearGradient id="gr" x1="29.55" y1="46.05" x2="30.45" y2="46.05" xlink:href="#ey"/><linearGradient id="gs" x1="29.29" y1="45.45" x2="29.9" y2="45.45" xlink:href="#ey"/><linearGradient id="gt" x1="29.28" y1="46.64" x2="29.83" y2="46.64" xlink:href="#ey"/><linearGradient id="gu" x1="42.53" y1="53.47" x2="42.93" y2="53.47" xlink:href="#ey"/><linearGradient id="gv" x1="42.76" y1="52.86" x2="43.32" y2="52.86" xlink:href="#ey"/><linearGradient id="gw" x1="42.07" y1="52.88" x2="42.68" y2="52.88" xlink:href="#ey"/><linearGradient id="gx" x1="41.53" y1="53.47" x2="42.43" y2="53.47" xlink:href="#ey"/><linearGradient id="gy" x1="40.97" y1="51.35" x2="41.38" y2="51.35" xlink:href="#ey"/><linearGradient id="gz" x1="41.26" y1="51.87" x2="41.91" y2="51.87" xlink:href="#ey"/><linearGradient id="ha" x1="41.44" y1="51.24" x2="42.36" y2="51.24" xlink:href="#ey"/><linearGradient id="hb" x1="41.13" y1="50.67" x2="41.62" y2="50.67" xlink:href="#ey"/><linearGradient id="hc" x1="40.36" y1="50.84" x2="41.07" y2="50.84" xlink:href="#ey"/><linearGradient id="hd" x1="40" y1="51.46" x2="40.89" y2="51.46" xlink:href="#ey"/><linearGradient id="he" x1="40.68" y1="51.98" x2="41.18" y2="51.98" xlink:href="#ey"/><linearGradient id="hf" x1="39.06" y1="49.51" x2="39.45" y2="49.51" xlink:href="#ey"/><linearGradient id="hg" x1="39.39" y1="49.94" x2="40.14" y2="49.94" xlink:href="#ey"/><linearGradient id="hh" x1="39.49" y1="49.3" x2="40.4" y2="49.3" xlink:href="#ey"/><linearGradient id="hi" x1="39.12" y1="48.8" x2="39.57" y2="48.8" xlink:href="#ey"/><linearGradient id="hj" x1="38.29" y1="49.11" x2="39.1" y2="49.11" xlink:href="#ey"/><linearGradient id="hk" x1="38.14" y1="49.73" x2="39.01" y2="49.73" xlink:href="#ey"/><linearGradient id="hl" x1="38.9" y1="50.19" x2="39.34" y2="50.19" xlink:href="#ey"/><linearGradient id="hm" x1="36.83" y1="48.02" x2="37.24" y2="48.02" xlink:href="#ey"/><linearGradient id="hn" x1="37.22" y1="48.35" x2="38.04" y2="48.35" xlink:href="#ey"/><linearGradient id="ho" x1="37.22" y1="47.72" x2="38.09" y2="47.72" xlink:href="#ey"/><linearGradient id="hp" x1="36.8" y1="48.73" x2="37.22" y2="48.73" xlink:href="#ey"/><linearGradient id="hq" x1="44.62" y1="60.91" x2="45.02" y2="60.91" xlink:href="#ey"/><linearGradient id="hr" x1="45" y1="60.57" x2="45.84" y2="60.57" xlink:href="#ey"/><linearGradient id="hs" x1="44.59" y1="60.19" x2="45.02" y2="60.19" xlink:href="#ey"/><linearGradient id="ht" x1="43.77" y1="60.6" x2="44.62" y2="60.6" xlink:href="#ey"/><linearGradient id="hu" x1="44.38" y1="58.33" x2="44.78" y2="58.33" xlink:href="#ey"/><linearGradient id="hv" x1="44.46" y1="59.02" x2="44.89" y2="59.02" xlink:href="#ey"/><linearGradient id="hw" x1="44.82" y1="58.55" x2="45.7" y2="58.55" xlink:href="#ey"/><linearGradient id="hx" x1="44.72" y1="57.88" x2="45.47" y2="57.88" xlink:href="#ey"/><linearGradient id="hy" x1="44.22" y1="57.62" x2="44.68" y2="57.62" xlink:href="#ey"/><linearGradient id="hz" x1="43.45" y1="58.11" x2="44.35" y2="58.11" xlink:href="#ey"/><linearGradient id="ia" x1="43.64" y1="58.71" x2="44.42" y2="58.71" xlink:href="#ey"/><linearGradient id="ib" x1="43.68" y1="55.82" x2="44.08" y2="55.82" xlink:href="#ey"/><linearGradient id="ic" x1="43.84" y1="56.48" x2="44.33" y2="56.48" xlink:href="#ey"/><linearGradient id="id" x1="44.15" y1="55.93" x2="45.06" y2="55.93" xlink:href="#ey"/><linearGradient id="ie" x1="43.96" y1="55.28" x2="44.62" y2="55.28" xlink:href="#ey"/><linearGradient id="if" x1="43.38" y1="55.17" x2="43.89" y2="55.17" xlink:href="#ey"/><linearGradient id="ig" x1="42.7" y1="55.71" x2="43.61" y2="55.71" xlink:href="#ey"/><linearGradient id="ih" x1="43.08" y1="56.3" x2="43.77" y2="56.3" xlink:href="#ey"/><linearGradient id="ii" x1="42.76" y1="54.07" x2="43.32" y2="54.07" xlink:href="#ey"/><linearGradient id="ij" x1="43.03" y1="53.47" x2="43.93" y2="53.47" xlink:href="#ey"/><linearGradient id="ik" x1="42.09" y1="54.04" x2="42.68" y2="54.04" xlink:href="#ey"/><linearGradient id="il" x1="18.56" y1="49.72" x2="19.43" y2="49.72" xlink:href="#ey"/><linearGradient id="im" x1="18.61" y1="50.35" x2="19.44" y2="50.35" xlink:href="#ey"/><linearGradient id="in" x1="19.43" y1="50.73" x2="19.85" y2="50.73" xlink:href="#ey"/><linearGradient id="io" x1="19.43" y1="50.02" x2="19.84" y2="50.02" xlink:href="#ey"/><linearGradient id="ip" x1="19.83" y1="49.72" x2="20.69" y2="49.72" xlink:href="#ey"/><linearGradient id="iq" x1="19.42" y1="49.3" x2="19.86" y2="49.3" xlink:href="#ey"/><linearGradient id="ir" x1="19.82" y1="50.35" x2="20.64" y2="50.35" xlink:href="#ey"/><linearGradient id="is" x1="34.16" y1="41.39" x2="64.52" y2="41.39" gradientTransform="matrix(0.65, 0.31, -0.38, 0.69, 21.4, 60.12)" xlink:href="#a"/><linearGradient id="it" x1="46.72" y1="58.41" x2="32.16" y2="50.01" gradientTransform="matrix(0.9, 0.45, -0.47, 0.91, 38.66, 33.21)" xlink:href="#a"/><linearGradient id="iu" x1="101.2" y1="65.38" x2="133.78" y2="121.81" gradientTransform="matrix(1, 0, 0, 1, 0, 0)" xlink:href="#a"/><linearGradient id="je" x1="64.19" y1="107.39" x2="115.55" y2="107.39" gradientTransform="matrix(1, 0, 0, 1, 0, 0)" xlink:href="#ey"/></defs><title>belya_fiber_exporters_logo</title><rect width="200" height="200" style="fill:#e6e7e8"/><path d="M56.22,110.26a.23.23,0,1,0-.34-.3.22.22,0,0,0,0,.3l0,0A.22.22,0,0,0,56.22,110.26Z" transform="translate(0)" style="fill:url(#a)"/><path d="M55.11,111.08a.54.54,0,0,0,.21,0,.76.76,0,0,0,.4-.23.89.89,0,0,0,.21-.36.33.33,0,0,1-.13-.07.38.38,0,0,1-.09-.13.94.94,0,0,0-.34.22,1,1,0,0,0-.22.4A1.87,1.87,0,0,0,55.11,111.08Z" transform="translate(0)" style="fill:url(#b)"/><path d="M56.3,110.38a.34.34,0,0,1-.28.1,1,1,0,0,0,0,.41.91.91,0,0,0,.24.4.88.88,0,0,0,.17.12,1,1,0,0,0,.07-.68A.88.88,0,0,0,56.3,110.38Z" transform="translate(0)" style="fill:url(#c)"/><path d="M56.84,110a1,1,0,0,0-.43,0,.37.37,0,0,1,0,.29,1,1,0,0,0,.38.17,1,1,0,0,0,.67-.16.85.85,0,0,0-.15-.15A.86.86,0,0,0,56.84,110Z" transform="translate(0)" style="fill:url(#d)"/><path d="M56.73,109.68a.87.87,0,0,0,.18-.43.84.84,0,0,0,0-.21.73.73,0,0,0-.2.06.91.91,0,0,0-.37.28.94.94,0,0,0-.18.38.37.37,0,0,1,.12.07.31.31,0,0,1,.09.11A1,1,0,0,0,56.73,109.68Z" transform="translate(0)" style="fill:url(#e)"/><path d="M55.81,109.83a.38.38,0,0,1,.27-.09.91.91,0,0,0,0-.42.83.83,0,0,0-.27-.37l-.17-.11a.94.94,0,0,0,0,.64A1.18,1.18,0,0,0,55.81,109.83Z" transform="translate(0)" style="fill:url(#f)"/><path d="M55.75,109.89a1.06,1.06,0,0,0-.37-.18,1,1,0,0,0-.64.08,1.42,1.42,0,0,0,.14.16.89.89,0,0,0,.4.22.77.77,0,0,0,.4,0A.4.4,0,0,1,55.75,109.89Z" transform="translate(0)" style="fill:url(#g)"/><path d="M57.73,107.39a.22.22,0,0,0-.07-.31.24.24,0,0,0-.32.08.23.23,0,0,0,.06.3h0A.23.23,0,0,0,57.73,107.39Z" transform="translate(0)" style="fill:url(#h)"/><path d="M57.34,108a.62.62,0,0,0,.1-.2.65.65,0,0,0,0-.19.27.27,0,0,1-.14,0,.57.57,0,0,1-.11-.11l-.15.12a.56.56,0,0,0-.14.16.93.93,0,0,0-.15.64A.92.92,0,0,0,57.34,108Z" transform="translate(0)" style="fill:url(#i)"/><path d="M58.11,107.81a.81.81,0,0,0-.28-.32.4.4,0,0,1-.25.16,1.08,1.08,0,0,0,.09.4.93.93,0,0,0,.3.34,1.14,1.14,0,0,0,.19.1,1,1,0,0,0,0-.22A.9.9,0,0,0,58.11,107.81Z" transform="translate(0)" style="fill:url(#j)"/><path d="M58.29,107a1,1,0,0,0-.41.12.34.34,0,0,1,0,.28.86.86,0,0,0,1-.17.8.8,0,0,0-.17-.12A.9.9,0,0,0,58.29,107Z" transform="translate(0)" style="fill:url(#k)"/><path d="M58.24,106.28a.61.61,0,0,0,0-.15.15.15,0,0,0,0-.06l-.05,0-.14.08a.92.92,0,0,0-.32.33,1,1,0,0,0-.1.41.35.35,0,0,1,.13,0,.31.31,0,0,1,.11.09.91.91,0,0,0,.29-.32A.92.92,0,0,0,58.24,106.28Z" transform="translate(0)" style="fill:url(#l)"/><path d="M57.51,106.91a.78.78,0,0,0-.13-.41.83.83,0,0,0-.33-.32.9.9,0,0,0-.19-.08.67.67,0,0,0,0,.2,1,1,0,0,0,.12.43.84.84,0,0,0,.29.3A.37.37,0,0,1,57.51,106.91Z" transform="translate(0)" style="fill:url(#m)"/><path d="M56.8,107.47a.8.8,0,0,0,.39-.07.37.37,0,0,1,0-.29.85.85,0,0,0-.84,0,.81.81,0,0,0-.17.1,1.31,1.31,0,0,0,.16.13A.85.85,0,0,0,56.8,107.47Z" transform="translate(0)" style="fill:url(#n)"/><path d="M46.31,116.67a1,1,0,0,0-.35-.25.36.36,0,0,1-.22.18.82.82,0,0,0,.58.64,1.13,1.13,0,0,0,.21.05.66.66,0,0,0,0-.21A.82.82,0,0,0,46.31,116.67Z" transform="translate(0)" style="fill:url(#o)"/><path d="M46,116.2a.33.33,0,0,1,0,.14,1,1,0,0,0,.43,0,1,1,0,0,0,.42-.21A.83.83,0,0,0,47,116a1.07,1.07,0,0,0-.2-.07.94.94,0,0,0-.46,0,.91.91,0,0,0-.38.19A.5.5,0,0,1,46,116.2Z" transform="translate(0)" style="fill:url(#p)"/><path d="M46.08,115a.8.8,0,0,0-.15.12.9.9,0,0,0-.26.37,1,1,0,0,0-.05.41.4.4,0,0,1,.26.12.88.88,0,0,0,.24-.36.82.82,0,0,0,0-.46A.77.77,0,0,0,46.08,115Z" transform="translate(0)" style="fill:url(#q)"/><path d="M48.39,115.6a.23.23,0,0,0,.43-.15.23.23,0,0,0-.28-.14.23.23,0,0,0-.15.27Z" transform="translate(0)" style="fill:url(#r)"/><path d="M48.26,115.64a.39.39,0,0,1,0-.15.92.92,0,0,0-.4,0,1.23,1.23,0,0,0-.23.11.75.75,0,0,0-.16.13.83.83,0,0,0-.14.16,1.07,1.07,0,0,0,.2.07.65.65,0,0,0,.21,0,.82.82,0,0,0,.26,0,1.29,1.29,0,0,0,.35-.2A.37.37,0,0,1,48.26,115.64Z" transform="translate(0)" style="fill:url(#s)"/><path d="M48.7,115.89a.39.39,0,0,1-.3,0,1,1,0,0,0-.19.36,1,1,0,0,0,0,.46.78.78,0,0,0,.09.19,1,1,0,0,0,.4-.55A.93.93,0,0,0,48.7,115.89Z" transform="translate(0)" style="fill:url(#t)"/><path d="M49.36,115.82a.94.94,0,0,0-.39-.19.38.38,0,0,1-.19.22.85.85,0,0,0,.25.34,1,1,0,0,0,.66.2,1,1,0,0,0-.33-.57Z" transform="translate(0)" style="fill:url(#u)"/><path d="M49,115.54a.86.86,0,0,0,.44,0,1,1,0,0,0,.48-.46,1,1,0,0,0-.66,0,.94.94,0,0,0-.35.24.33.33,0,0,1,.07.13A.2.2,0,0,1,49,115.54Z" transform="translate(0)" style="fill:url(#v)"/><path d="M48.55,115.16a.42.42,0,0,1,.27.06.79.79,0,0,0,.17-.38,1,1,0,0,0-.05-.46.82.82,0,0,0-.09-.18l-.05,0a1.35,1.35,0,0,0-.09.11.92.92,0,0,0-.19.41A1.07,1.07,0,0,0,48.55,115.16Z" transform="translate(0)" style="fill:url(#w)"/><path d="M47.91,115.2a.9.9,0,0,0,.35.2.41.41,0,0,1,.2-.21.79.79,0,0,0-.23-.34,1,1,0,0,0-.59-.25.65.65,0,0,0,0,.2A.88.88,0,0,0,47.91,115.2Z" transform="translate(0)" style="fill:url(#x)"/><path d="M51.27,114.28a.23.23,0,0,0,.31.09.21.21,0,0,0,.09-.31.24.24,0,0,0-.31-.09.24.24,0,0,0-.1.29A0,0,0,0,1,51.27,114.28Z" transform="translate(0)" style="fill:url(#y)"/><path d="M51.1,114.19a1.07,1.07,0,0,0-.39.1.93.93,0,0,0-.45.48,1,1,0,0,0,.67,0,.93.93,0,0,0,.31-.27.4.4,0,0,1-.1-.12A.83.83,0,0,1,51.1,114.19Z" transform="translate(0)" style="fill:url(#z)"/><path d="M51.62,114.51a.39.39,0,0,1-.3,0,.9.9,0,0,0-.12.39,1,1,0,0,0,.09.46.62.62,0,0,0,.11.17,1,1,0,0,0,.3-.62A.84.84,0,0,0,51.62,114.51Z" transform="translate(0)" style="fill:url(#aa)"/><path d="M52.59,114.64a.92.92,0,0,0-.33-.32,1,1,0,0,0-.42-.11.35.35,0,0,1-.14.25.86.86,0,0,0,.3.3,1,1,0,0,0,.68.07A.72.72,0,0,0,52.59,114.64Z" transform="translate(0)" style="fill:url(#ab)"/><path d="M51.84,114.12a1,1,0,0,0,.42-.12.83.83,0,0,0,.2-.16l.12-.18a.85.85,0,0,0,.08-.2.77.77,0,0,0-.21,0l-.21,0a.84.84,0,0,0-.23.09,1,1,0,0,0-.31.3.52.52,0,0,1,.1.11A.33.33,0,0,1,51.84,114.12Z" transform="translate(0)" style="fill:url(#ac)"/><path d="M51.63,113.84a1,1,0,0,0,.1-.42.92.92,0,0,0-.13-.44,1.08,1.08,0,0,0-.13-.17,1,1,0,0,0-.22.61,1.12,1.12,0,0,0,.1.4A.39.39,0,0,1,51.63,113.84Z" transform="translate(0)" style="fill:url(#ad)"/><path d="M51,113.56a.88.88,0,0,0-.62-.13,1.23,1.23,0,0,0,.07.19,1,1,0,0,0,.3.35.86.86,0,0,0,.38.13.36.36,0,0,1,.16-.24A1,1,0,0,0,51,113.56Z" transform="translate(0)" style="fill:url(#ae)"/><path d="M54.79,112.26a.93.93,0,0,0-.23,0,1.33,1.33,0,0,0-.2,0,.38.38,0,0,1-.1.27.84.84,0,0,0,.82.27,1,1,0,0,0,.21-.07.88.88,0,0,0-.12-.17A.94.94,0,0,0,54.79,112.26Z" transform="translate(0)" style="fill:url(#af)"/><path d="M54.82,111.37a1,1,0,0,0-.41.2,1,1,0,0,0-.24.35.32.32,0,0,1,.17.22.86.86,0,0,0,.39-.2.89.89,0,0,0,.26-.39.7.7,0,0,0,0-.2Z" transform="translate(0)" style="fill:url(#ag)"/><path d="M54.08,111.89a.58.58,0,0,0,0-.19.6.6,0,0,0,0-.23.92.92,0,0,0-.21-.42,1,1,0,0,0-.15-.14,1.28,1.28,0,0,0-.08.18,1.06,1.06,0,0,0,0,.45,1.21,1.21,0,0,0,.16.38A.35.35,0,0,1,54.08,111.89Z" transform="translate(0)" style="fill:url(#ah)"/><path d="M54.12,112.43h0a.22.22,0,0,0,0-.32.21.21,0,0,0-.31,0h0a.23.23,0,0,0,0,.3v0A.23.23,0,0,0,54.12,112.43Z" transform="translate(0)" style="fill:url(#ai)"/><path d="M53.63,112.34a.88.88,0,0,0-.37.15.92.92,0,0,0-.29.36l-.06.14a.18.18,0,0,0,0,.05H53a.74.74,0,0,0,.15,0,.88.88,0,0,0,.43-.17.78.78,0,0,0,.27-.31.31.31,0,0,1-.11-.09A.31.31,0,0,1,53.63,112.34Z" transform="translate(0)" style="fill:url(#aj)"/><path d="M54.19,112.55a.39.39,0,0,1-.29.06,1,1,0,0,0-.06.4.9.9,0,0,0,.17.43.94.94,0,0,0,.14.16.94.94,0,0,0,.19-.66A.86.86,0,0,0,54.19,112.55Z" transform="translate(0)" style="fill:url(#ak)"/><path d="M53.4,111.73a1,1,0,0,0-.64,0,.87.87,0,0,0,.46.47.74.74,0,0,0,.4.07.36.36,0,0,1,.11-.26A1,1,0,0,0,53.4,111.73Z" transform="translate(0)" style="fill:url(#al)"/><path d="M36.76,115.32a.23.23,0,0,0-.13-.29h0a.22.22,0,0,0-.28.1s0,0,0,0a.25.25,0,0,0,.12.3h0A.24.24,0,0,0,36.76,115.32Z" transform="translate(0)" style="fill:url(#am)"/><path d="M36.93,115.94a.83.83,0,0,0-.18-.39.39.39,0,0,1-.28,0,.79.79,0,0,0,0,.41,1,1,0,0,0,.37.58,1.12,1.12,0,0,0,.09-.19A.86.86,0,0,0,36.93,115.94Z" transform="translate(0)" style="fill:url(#an)"/><path d="M37.34,115.27a.9.9,0,0,0-.42,0,.39.39,0,0,1,0,.14.37.37,0,0,1-.07.12.88.88,0,0,0,.36.24,1,1,0,0,0,.67,0,.73.73,0,0,0-.13-.17A1,1,0,0,0,37.34,115.27Z" transform="translate(0)" style="fill:url(#ao)"/><path d="M36.9,115.14a.85.85,0,0,0,.38-.19.86.86,0,0,0,.26-.38,1.16,1.16,0,0,0,.05-.2,1,1,0,0,0-.61.21,1.06,1.06,0,0,0-.25.34A.34.34,0,0,1,36.9,115.14Z" transform="translate(0)" style="fill:url(#ap)"/><path d="M39.72,116.15a.24.24,0,0,0-.18-.27.23.23,0,0,0-.26.16v0a.24.24,0,0,0,.18.27A.23.23,0,0,0,39.72,116.15Z" transform="translate(0)" style="fill:url(#aq)"/><path d="M39.13,116a.37.37,0,0,1,.07-.14,1.11,1.11,0,0,0-.36-.19,1,1,0,0,0-.46,0l-.2.08a.6.6,0,0,0,.13.16.94.94,0,0,0,.41.23.81.81,0,0,0,.41,0A.38.38,0,0,1,39.13,116Z" transform="translate(0)" style="fill:url(#ar)"/><path d="M39.16,116.27a.86.86,0,0,0-.34.22.88.88,0,0,0-.23.4.66.66,0,0,0,0,.21.91.91,0,0,0,.62-.28.82.82,0,0,0,.2-.36A.39.39,0,0,1,39.16,116.27Z" transform="translate(0)" style="fill:url(#as)"/><path d="M40,116.73a1,1,0,0,0-.25-.35.36.36,0,0,1-.27.09,1,1,0,0,0,0,.42,1,1,0,0,0,.29.39l.18.11a.77.77,0,0,0,.06-.2A.86.86,0,0,0,40,116.73Z" transform="translate(0)" style="fill:url(#at)"/><path d="M40.29,116a1.43,1.43,0,0,0-.43,0,.38.38,0,0,1,0,.15.29.29,0,0,1,0,.13.77.77,0,0,0,.4.17.91.91,0,0,0,.46,0,1.05,1.05,0,0,0,.19-.1,1.14,1.14,0,0,0-.15-.14A.91.91,0,0,0,40.29,116Z" transform="translate(0)" style="fill:url(#au)"/><path d="M39.83,116a.77.77,0,0,0,.34-.25.86.86,0,0,0,.19-.42.84.84,0,0,0,0-.21.73.73,0,0,0-.19.06.86.86,0,0,0-.55.63A.34.34,0,0,1,39.83,116Z" transform="translate(0)" style="fill:url(#av)"/><path d="M39.06,115.47a.79.79,0,0,0,.2.35.4.4,0,0,1,.28-.08.88.88,0,0,0,0-.42,1,1,0,0,0-.39-.5.82.82,0,0,0-.07.19A.9.9,0,0,0,39.06,115.47Z" transform="translate(0)" style="fill:url(#aw)"/><path d="M42.78,116.45a.22.22,0,0,0-.22-.22.21.21,0,0,0-.23.19v0a.24.24,0,0,0,.23.24A.23.23,0,0,0,42.78,116.45Z" transform="translate(0)" style="fill:url(#ax)"/><path d="M42.18,116.44a.42.42,0,0,1,0-.16.92.92,0,0,0-.84,0,1.18,1.18,0,0,0-.18.1.94.94,0,0,0,.16.14.88.88,0,0,0,.44.16,1,1,0,0,0,.41-.07A.4.4,0,0,1,42.18,116.44Z" transform="translate(0)" style="fill:url(#ay)"/><path d="M42.25,116.66a1.16,1.16,0,0,0-.3.29.83.83,0,0,0-.15.43.72.72,0,0,0,0,.21,1,1,0,0,0,.57-.38.79.79,0,0,0,.13-.39A.38.38,0,0,1,42.25,116.66Z" transform="translate(0)" style="fill:url(#az)"/><path d="M43.16,117a1,1,0,0,0-.31-.3.41.41,0,0,1-.25.15,1,1,0,0,0,.12.4,1,1,0,0,0,.55.41,1.07,1.07,0,0,0,0-.21A1,1,0,0,0,43.16,117Z" transform="translate(0)" style="fill:url(#ba)"/><path d="M43.31,116.21a.86.86,0,0,0-.41.11.28.28,0,0,1,0,.13.32.32,0,0,1,0,.14.87.87,0,0,0,.42.11.92.92,0,0,0,.45-.14,1.31,1.31,0,0,0,.16-.13.8.8,0,0,0-.17-.12A1.11,1.11,0,0,0,43.31,116.21Z" transform="translate(0)" style="fill:url(#bb)"/><path d="M42.85,116.24a.86.86,0,0,0,.41-.76,1.38,1.38,0,0,0,0-.2.91.91,0,0,0-.49.41,1,1,0,0,0-.12.4A.31.31,0,0,1,42.85,116.24Z" transform="translate(0)" style="fill:url(#bc)"/><path d="M42,115.9a.91.91,0,0,0,.26.31.38.38,0,0,1,.26-.13.91.91,0,0,0-.57-.83.62.62,0,0,0,0,.2A.86.86,0,0,0,42,115.9Z" transform="translate(0)" style="fill:url(#bd)"/><path d="M45.4,116.29a.22.22,0,0,0,.25.19h0a.23.23,0,0,0-.07-.45h0a.22.22,0,0,0-.18.23Z" transform="translate(0)" style="fill:url(#be)"/><path d="M45.25,116.31a.41.41,0,0,1,0-.16,1.22,1.22,0,0,0-.4-.05.9.9,0,0,0-.43.17.94.94,0,0,0-.16.14,1.18,1.18,0,0,0,.18.1.88.88,0,0,0,.46.08.86.86,0,0,0,.38-.14A.58.58,0,0,1,45.25,116.31Z" transform="translate(0)" style="fill:url(#bf)"/><path d="M45.36,116.52a.94.94,0,0,0-.24.33.88.88,0,0,0-.08.45,1.16,1.16,0,0,0,.05.21.69.69,0,0,0,.19-.11.87.87,0,0,0,.3-.37.76.76,0,0,0,.06-.41A.36.36,0,0,1,45.36,116.52Z" transform="translate(0)" style="fill:url(#bg)"/><path d="M45,115.81a.81.81,0,0,0,.31.26.4.4,0,0,1,.24-.18,1.24,1.24,0,0,0-.17-.38.94.94,0,0,0-.36-.27,1,1,0,0,0-.18-.07.61.61,0,0,0,0,.21A.85.85,0,0,0,45,115.81Z" transform="translate(0)" style="fill:url(#bh)"/><path d="M29.21,110.4a1.33,1.33,0,0,0,0-.2.34.34,0,0,1-.27-.1.86.86,0,0,0-.24.35,1,1,0,0,0,0,.47,1,1,0,0,0,.07.21.88.88,0,0,0,.17-.12.85.85,0,0,0,.26-.38A.62.62,0,0,0,29.21,110.4Z" transform="translate(0)" style="fill:url(#bi)"/><path d="M29.86,110.25a1,1,0,0,0-.35-.24.31.31,0,0,1-.09.11.34.34,0,0,1-.12.06.75.75,0,0,0,.19.39,1,1,0,0,0,.39.26.73.73,0,0,0,.21,0,1,1,0,0,0,0-.21A.86.86,0,0,0,29.86,110.25Z" transform="translate(0)" style="fill:url(#bj)"/><path d="M29.74,110a.93.93,0,0,0,.23,0,.83.83,0,0,0,.41-.2,1,1,0,0,0,.14-.15.62.62,0,0,0-.18-.08.9.9,0,0,0-.45,0,1,1,0,0,0-.38.17.34.34,0,0,1,0,.28Z" transform="translate(0)" style="fill:url(#bk)"/><path d="M31.48,112.2a.22.22,0,0,0,0-.31.23.23,0,0,0-.31,0h0a.24.24,0,0,0,0,.33A.22.22,0,0,0,31.48,112.2Z" transform="translate(0)" style="fill:url(#bl)"/><path d="M31,111.93l.08-.13a.38.38,0,0,1,.13-.09.91.91,0,0,0-.22-.33,1,1,0,0,0-.4-.22.73.73,0,0,0-.21,0,1,1,0,0,0,0,.21.86.86,0,0,0,.24.4A.79.79,0,0,0,31,111.93Z" transform="translate(0)" style="fill:url(#bm)"/><path d="M30.94,112a1.16,1.16,0,0,0-.41,0,1,1,0,0,0-.4.25.69.69,0,0,0-.12.16,1,1,0,0,0,.68.07.86.86,0,0,0,.35-.21A.35.35,0,0,1,30.94,112Z" transform="translate(0)" style="fill:url(#bn)"/><path d="M31.4,112.41a.37.37,0,0,1-.29,0,.89.89,0,0,0-.17.38,1,1,0,0,0,.16.66,1,1,0,0,0,.15-.14.9.9,0,0,0,.18-.43A1,1,0,0,0,31.4,112.41Z" transform="translate(0)" style="fill:url(#bo)"/><path d="M32,112.36a.85.85,0,0,0-.38-.19.33.33,0,0,1-.07.13l-.11.08a.94.94,0,0,0,.26.36.87.87,0,0,0,.43.18,1.16,1.16,0,0,0,.21,0,.85.85,0,0,0-.06-.2A.88.88,0,0,0,32,112.36Z" transform="translate(0)" style="fill:url(#bp)"/><path d="M31.68,112.08a.78.78,0,0,0,.42,0,1,1,0,0,0,.37-.27.74.74,0,0,0,.11-.18.91.91,0,0,0-.64,0,1,1,0,0,0-.35.23A.36.36,0,0,1,31.68,112.08Z" transform="translate(0)" style="fill:url(#bq)"/><path d="M31.25,111.69a.37.37,0,0,1,.28.07,1,1,0,0,0,.18-.38,1,1,0,0,0-.08-.63.83.83,0,0,0-.16.14.81.81,0,0,0-.22.4A.77.77,0,0,0,31.25,111.69Z" transform="translate(0)" style="fill:url(#br)"/><path d="M34,114a.22.22,0,0,0-.07-.31.23.23,0,0,0-.3.06h0a.24.24,0,0,0,.08.32A.23.23,0,0,0,34,114Z" transform="translate(0)" style="fill:url(#bs)"/><path d="M33.23,113.78l.19,0a.34.34,0,0,1,0-.14.38.38,0,0,1,.11-.11,1.44,1.44,0,0,0-.28-.3,1,1,0,0,0-.64-.14.92.92,0,0,0,.37.55A.93.93,0,0,0,33.23,113.78Z" transform="translate(0)" style="fill:url(#bt)"/><path d="M33.42,113.91a.88.88,0,0,0-.4.1.82.82,0,0,0-.35.3.9.9,0,0,0-.1.18.73.73,0,0,0,.22.05,1,1,0,0,0,.47-.1.83.83,0,0,0,.31-.27A.37.37,0,0,1,33.42,113.91Z" transform="translate(0)" style="fill:url(#bu)"/><path d="M33.94,114.22a.48.48,0,0,1-.29,0,.7.7,0,0,0-.1.4.86.86,0,0,0,.13.46.82.82,0,0,0,.14.17.8.8,0,0,0,.12-.17.83.83,0,0,0,.11-.45A1,1,0,0,0,33.94,114.22Z" transform="translate(0)" style="fill:url(#bv)"/><path d="M35,114.49l-.07-.13a.92.92,0,0,0-.33-.32,1,1,0,0,0-.42-.11.33.33,0,0,1,0,.14.32.32,0,0,1-.1.1.85.85,0,0,0,.32.3,1,1,0,0,0,.46.11l.15,0H35A.15.15,0,0,0,35,114.49Z" transform="translate(0)" style="fill:url(#bw)"/><path d="M34.15,113.84a.74.74,0,0,0,.41-.12.83.83,0,0,0,.32-.33.9.9,0,0,0,.08-.19.91.91,0,0,0-.2,0,1,1,0,0,0-.43.13.9.9,0,0,0-.3.28A.37.37,0,0,1,34.15,113.84Z" transform="translate(0)" style="fill:url(#bx)"/><path d="M33.66,113.53a.36.36,0,0,1,.29,0,.9.9,0,0,0,.12-.4.76.76,0,0,0-.1-.43.81.81,0,0,0-.1-.17.74.74,0,0,0-.13.16.84.84,0,0,0-.15.43A1,1,0,0,0,33.66,113.53Z" transform="translate(0)" style="fill:url(#by)"/><path d="M36.2,115.1a.3.3,0,0,1,.09-.13,1,1,0,0,0-.32-.24,1,1,0,0,0-.46-.07l-.2,0a1.14,1.14,0,0,0,.1.19.79.79,0,0,0,.36.3.83.83,0,0,0,.4.06A.32.32,0,0,1,36.2,115.1Z" transform="translate(0)" style="fill:url(#bz)"/><path d="M36.19,115.34a.78.78,0,0,0-.38.16.86.86,0,0,0-.29.36.73.73,0,0,0-.06.19,1,1,0,0,0,.66-.16.77.77,0,0,0,.26-.32A.39.39,0,0,1,36.19,115.34Z" transform="translate(0)" style="fill:url(#ca)"/><path d="M36.36,114.92a.37.37,0,0,1,.29,0,.94.94,0,0,0,0-.42.93.93,0,0,0-.29-.57.61.61,0,0,0-.1.19.87.87,0,0,0-.08.45A1,1,0,0,0,36.36,114.92Z" transform="translate(0)" style="fill:url(#cb)"/><path d="M25.74,101.43h0a.24.24,0,0,0-.23-.19h0a.23.23,0,0,0-.2.25h0a.23.23,0,0,0,.26.19A.22.22,0,0,0,25.74,101.43Z" transform="translate(0)" style="fill:url(#cc)"/><path d="M25.17,101.58a.94.94,0,0,0-.38.18.91.91,0,0,0-.26.4,1.13,1.13,0,0,0-.05.22l.21,0a.83.83,0,0,0,.42-.21.88.88,0,0,0,.24-.35A.37.37,0,0,1,25.17,101.58Z" transform="translate(0)" style="fill:url(#cd)"/><path d="M25.78,102.82a1.16,1.16,0,0,0,.08-.19.86.86,0,0,0,0-.46.9.9,0,0,0-.18-.38l-.14,0h-.14a1,1,0,0,0,0,.44.93.93,0,0,0,.21.41A.74.74,0,0,0,25.78,102.82Z" transform="translate(0)" style="fill:url(#ce)"/><path d="M26.14,102a.89.89,0,0,0,.45,0,.77.77,0,0,0,.2-.06.58.58,0,0,0-.12-.16.89.89,0,0,0-.37-.25,1,1,0,0,0-.41,0,.36.36,0,0,1-.11.26A.8.8,0,0,0,26.14,102Z" transform="translate(0)" style="fill:url(#cf)"/><path d="M26.32,104.67a.23.23,0,0,0,.14-.29.24.24,0,0,0-.27-.15h0a.23.23,0,0,0-.14.29A.23.23,0,0,0,26.32,104.67Z" transform="translate(0)" style="fill:url(#cg)"/><path d="M25.76,103.57a.77.77,0,0,0,0,.25.79.79,0,0,0,.2.35l.13-.07a.29.29,0,0,1,.16,0,1,1,0,0,0,0-.41.74.74,0,0,0-.1-.22l-.13-.17a.86.86,0,0,0-.16-.13.61.61,0,0,0-.08.19A.73.73,0,0,0,25.76,103.57Z" transform="translate(0)" style="fill:url(#ch)"/><path d="M25.94,104.24a1,1,0,0,0-.36-.18.81.81,0,0,0-.47,0,.61.61,0,0,0-.19.08.94.94,0,0,0,.55.4.84.84,0,0,0,.42,0A.35.35,0,0,1,25.94,104.24Z" transform="translate(0)" style="fill:url(#ci)"/><path d="M25.92,104.63a.82.82,0,0,0-.34.24,1,1,0,0,0-.2.66.73.73,0,0,0,.2-.06.82.82,0,0,0,.38-.27.91.91,0,0,0,.18-.39A.39.39,0,0,1,25.92,104.63Z" transform="translate(0)" style="fill:url(#cj)"/><path d="M26.73,105.08a.94.94,0,0,0-.24-.35.36.36,0,0,1-.12.08l-.14,0a1,1,0,0,0,.05.43.92.92,0,0,0,.46.48A1,1,0,0,0,26.73,105.08Z" transform="translate(0)" style="fill:url(#ck)"/><path d="M26.94,104.84a1.08,1.08,0,0,0,.64-.15l0,0a.46.46,0,0,0-.1-.1.92.92,0,0,0-.41-.18,1,1,0,0,0-.42,0,.35.35,0,0,1-.06.28A1,1,0,0,0,26.94,104.84Z" transform="translate(0)" style="fill:url(#cl)"/><path d="M26.93,104.08a.92.92,0,0,0,.24-.6l-.2,0a.92.92,0,0,0-.39.24.93.93,0,0,0-.21.35.36.36,0,0,1,.22.2A1.14,1.14,0,0,0,26.93,104.08Z" transform="translate(0)" style="fill:url(#cm)"/><path d="M27.68,107.16a.23.23,0,0,0-.29-.1h0a.22.22,0,0,0-.1.31.23.23,0,0,0,.4-.22Z" transform="translate(0)" style="fill:url(#cn)"/><path d="M27.19,107a.38.38,0,0,1,.12-.09.28.28,0,0,1,.15,0,.84.84,0,0,0-.1-.39.93.93,0,0,0-.48-.45,1,1,0,0,0,.05.67A.86.86,0,0,0,27.19,107Z" transform="translate(0)" style="fill:url(#co)"/><path d="M27.14,107.11a1.2,1.2,0,0,0-.39-.12.87.87,0,0,0-.46.1.62.62,0,0,0-.17.11,1,1,0,0,0,.62.3.79.79,0,0,0,.4-.09A.39.39,0,0,1,27.14,107.11Z" transform="translate(0)" style="fill:url(#cp)"/><path d="M27.19,107.5a.8.8,0,0,0-.29.29,1,1,0,0,0-.08.68.9.9,0,0,0,.19-.08.88.88,0,0,0,.32-.34,1,1,0,0,0,.11-.41A.35.35,0,0,1,27.19,107.5Z" transform="translate(0)" style="fill:url(#cq)"/><path d="M28.17,108a.82.82,0,0,0-.1-.24,1,1,0,0,0-.3-.3.24.24,0,0,1-.11.09.29.29,0,0,1-.13,0,1.08,1.08,0,0,0,.12.42,1.12,1.12,0,0,0,.17.2.58.58,0,0,0,.18.11.9.9,0,0,0,.19.08.72.72,0,0,0,0-.21A.75.75,0,0,0,28.17,108Z" transform="translate(0)" style="fill:url(#cr)"/><path d="M28.24,107.05a1,1,0,0,0-.41.1.39.39,0,0,1,0,.28.85.85,0,0,0,.85,0,1.08,1.08,0,0,0,.17-.13A1,1,0,0,0,28.24,107.05Z" transform="translate(0)" style="fill:url(#cs)"/><path d="M27.79,107.07a1,1,0,0,0,.3-.29.9.9,0,0,0,.13-.63.9.9,0,0,0-.19.08.87.87,0,0,0-.35.3.82.82,0,0,0-.13.38A.33.33,0,0,1,27.79,107.07Z" transform="translate(0)" style="fill:url(#ct)"/><path d="M29,110h0a.22.22,0,0,0,.32,0,.21.21,0,0,0,0-.31h0a.24.24,0,0,0-.3,0h0A.23.23,0,0,0,29,110Z" transform="translate(0)" style="fill:url(#cu)"/><path d="M28.38,109a.91.91,0,0,0,.17.44.83.83,0,0,0,.31.26.31.31,0,0,1,.09-.11.34.34,0,0,1,.15-.07,1.07,1.07,0,0,0-.16-.37.92.92,0,0,0-.36-.29l-.14,0-.06,0v.06A.38.38,0,0,0,28.38,109Z" transform="translate(0)" style="fill:url(#cv)"/><path d="M28.82,109.74a1,1,0,0,0-.4-.06.9.9,0,0,0-.43.17.94.94,0,0,0-.16.14.94.94,0,0,0,.66.19.86.86,0,0,0,.39-.15A.39.39,0,0,1,28.82,109.74Z" transform="translate(0)" style="fill:url(#cw)"/><path d="M29.73,108.6a.74.74,0,0,0-.18.11.8.8,0,0,0-.29.35.76.76,0,0,0-.07.4.36.36,0,0,1,.27.12,1.14,1.14,0,0,0,.24-.34A1,1,0,0,0,29.73,108.6Z" transform="translate(0)" style="fill:url(#cx)"/><path d="M26.31,92.32a.24.24,0,0,0,.14.3.22.22,0,0,0,.28-.14h0a.23.23,0,0,0-.11-.28h0a.23.23,0,0,0-.29.12Z" transform="translate(0)" style="fill:url(#cy)"/><path d="M25.37,92.76a.84.84,0,0,0,.46,0,1,1,0,0,0,.39-.18.36.36,0,0,1-.06-.29,1.07,1.07,0,0,0-.41,0,1,1,0,0,0-.57.38A.78.78,0,0,0,25.37,92.76Z" transform="translate(0)" style="fill:url(#cz)"/><path d="M26,93.51a.82.82,0,0,0,.07.19,1.07,1.07,0,0,0,.16-.12.84.84,0,0,0,.25-.38,1,1,0,0,0,.05-.43.22.22,0,0,1-.14,0l-.13-.07A1,1,0,0,0,26,93,1,1,0,0,0,26,93.51Z" transform="translate(0)" style="fill:url(#da)"/><path d="M26.81,93.14a.89.89,0,0,0,.38.25,1.13,1.13,0,0,0,.21,0,.92.92,0,0,0-.22-.6,1,1,0,0,0-.34-.25.41.41,0,0,1-.22.17A1,1,0,0,0,26.81,93.14Z" transform="translate(0)" style="fill:url(#db)"/><path d="M25.62,95.57a.21.21,0,0,0,.26-.17.23.23,0,0,0-.15-.27h0a.22.22,0,1,0-.09.44Z" transform="translate(0)" style="fill:url(#dc)"/><path d="M25.58,95a.38.38,0,0,1,.15,0,.52.52,0,0,1,.15.07.87.87,0,0,0,.18-.36.88.88,0,0,0,0-.46A.82.82,0,0,0,26,94a.73.73,0,0,0-.17.13.88.88,0,0,0-.22.41A.91.91,0,0,0,25.58,95Z" transform="translate(0)" style="fill:url(#dd)"/><path d="M25.31,95.25A.39.39,0,0,1,25.5,95a1.09,1.09,0,0,0-.22-.34.92.92,0,0,0-.41-.22,1,1,0,0,0-.21,0,.94.94,0,0,0,.28.63A1.12,1.12,0,0,0,25.31,95.25Z" transform="translate(0)" style="fill:url(#de)"/><path d="M25.39,95.61a.38.38,0,0,1-.1-.27.75.75,0,0,0-.41,0,.86.86,0,0,0-.39.28.69.69,0,0,0-.11.19.91.91,0,0,0,.2.05.87.87,0,0,0,.46-.05A1.14,1.14,0,0,0,25.39,95.61Z" transform="translate(0)" style="fill:url(#df)"/><path d="M25.34,96.53a.64.64,0,0,0,.1.18.67.67,0,0,0,.14-.15.91.91,0,0,0,.19-.42,1.17,1.17,0,0,0,0-.43.33.33,0,0,1-.14,0,.21.21,0,0,1-.13,0,.81.81,0,0,0-.17.4A1,1,0,0,0,25.34,96.53Z" transform="translate(0)" style="fill:url(#dg)"/><path d="M26.49,96.21a.84.84,0,0,0,.21,0,.73.73,0,0,0-.06-.19.82.82,0,0,0-.26-.36,1,1,0,0,0-.37-.19.45.45,0,0,1-.2.21.8.8,0,0,0,.26.34A.94.94,0,0,0,26.49,96.21Z" transform="translate(0)" style="fill:url(#dh)"/><path d="M26,95.39a1,1,0,0,0,.41,0A1,1,0,0,0,27,95a1.07,1.07,0,0,0-.2-.07.89.89,0,0,0-.46,0,.86.86,0,0,0-.35.21A.33.33,0,0,1,26,95.39Z" transform="translate(0)" style="fill:url(#di)"/><path d="M25.32,98.63a.22.22,0,0,0,.22-.22.21.21,0,0,0-.19-.23h0a.23.23,0,1,0,0,.45Z" transform="translate(0)" style="fill:url(#dj)"/><path d="M25.18,98.06a.4.4,0,0,1,.15,0,.33.33,0,0,1,.15,0,.85.85,0,0,0,.12-.38,1.08,1.08,0,0,0-.09-.45.76.76,0,0,0-.1-.18.67.67,0,0,0-.14.15.92.92,0,0,0-.16.44A1,1,0,0,0,25.18,98.06Z" transform="translate(0)" style="fill:url(#dk)"/><path d="M25,98.36a.37.37,0,0,1,.15-.26,1,1,0,0,0-.28-.3.92.92,0,0,0-.44-.15.67.67,0,0,0-.2,0,1,1,0,0,0,.38.57A.9.9,0,0,0,25,98.36Z" transform="translate(0)" style="fill:url(#dl)"/><path d="M25,98.45a.88.88,0,0,0-.81.67,1,1,0,0,0,.21,0,1,1,0,0,0,.44-.13,1.14,1.14,0,0,0,.31-.31A.41.41,0,0,1,25,98.45Z" transform="translate(0)" style="fill:url(#dm)"/><path d="M25.21,99.62a1.31,1.31,0,0,0,.13.16.8.8,0,0,0,.12-.17,1.11,1.11,0,0,0,.1-.45,1,1,0,0,0-.1-.41.24.24,0,0,1-.14,0,.32.32,0,0,1-.14,0,.87.87,0,0,0-.11.42A.92.92,0,0,0,25.21,99.62Z" transform="translate(0)" style="fill:url(#dn)"/><path d="M26.08,98.59a1,1,0,0,0-.4-.12.34.34,0,0,1-.15.23.89.89,0,0,0,.31.3.79.79,0,0,0,.45.1.91.91,0,0,0,.2,0A.91.91,0,0,0,26.08,98.59Z" transform="translate(0)" style="fill:url(#do)"/><path d="M25.68,98.38a1,1,0,0,0,.41-.1.87.87,0,0,0,.43-.47.62.62,0,0,0-.2,0,.85.85,0,0,0-.45.08.91.91,0,0,0-.31.26A.37.37,0,0,1,25.68,98.38Z" transform="translate(0)" style="fill:url(#dp)"/><path d="M25.5,100.29a.61.61,0,0,0-.14-.16.76.76,0,0,0-.1.18.88.88,0,0,0-.08.46.86.86,0,0,0,.14.38.34.34,0,0,1,.14-.05.42.42,0,0,1,.16,0,1.22,1.22,0,0,0,.05-.4A.9.9,0,0,0,25.5,100.29Z" transform="translate(0)" style="fill:url(#dq)"/><path d="M25.25,101.21a1,1,0,0,0-.33-.25,1,1,0,0,0-.45-.07,1.16,1.16,0,0,0-.21,0,.9.9,0,0,0,.11.19,1,1,0,0,0,.37.3.89.89,0,0,0,.41.06A.35.35,0,0,1,25.25,101.21Z" transform="translate(0)" style="fill:url(#dr)"/><path d="M25.88,101.38a.9.9,0,0,0,.38-.17.83.83,0,0,0,.27-.35,1.23,1.23,0,0,0,.07-.19,1.09,1.09,0,0,0-.64.17.81.81,0,0,0-.26.31A.38.38,0,0,1,25.88,101.38Z" transform="translate(0)" style="fill:url(#ds)"/><path d="M29.54,87a.23.23,0,1,0,.34.3.24.24,0,0,0,0-.3h0A.22.22,0,0,0,29.54,87Z" transform="translate(0)" style="fill:url(#dt)"/><path d="M30.64,86.2a.91.91,0,0,0-.2,0,.93.93,0,0,0-.41.24.9.9,0,0,0-.2.35.35.35,0,0,1,.13.08.38.38,0,0,1,.09.13,1,1,0,0,0,.33-.22,1,1,0,0,0,.23-.4A1,1,0,0,0,30.64,86.2Z" transform="translate(0)" style="fill:url(#du)"/><path d="M29.45,86.9a.45.45,0,0,1,.29-.1.92.92,0,0,0,0-.4.94.94,0,0,0-.24-.4.73.73,0,0,0-.17-.13,1,1,0,0,0-.07.68A.8.8,0,0,0,29.45,86.9Z" transform="translate(0)" style="fill:url(#dv)"/><path d="M28.92,87.3a1,1,0,0,0,.43,0,.32.32,0,0,1,0-.28.87.87,0,0,0-.39-.17.93.93,0,0,0-.66.15,1,1,0,0,0,.14.15A.9.9,0,0,0,28.92,87.3Z" transform="translate(0)" style="fill:url(#dw)"/><path d="M29,87.6a.81.81,0,0,0-.18.44.76.76,0,0,0,0,.2.73.73,0,0,0,.2-.06.94.94,0,0,0,.37-.27,1.08,1.08,0,0,0,.18-.38.47.47,0,0,1-.12-.07.31.31,0,0,1-.09-.11A1,1,0,0,0,29,87.6Z" transform="translate(0)" style="fill:url(#dx)"/><path d="M30,88.33a.88.88,0,0,0,.17.12.92.92,0,0,0,0-.64.82.82,0,0,0-.23-.35.35.35,0,0,1-.26.08.9.9,0,0,0,0,.42A.93.93,0,0,0,30,88.33Z" transform="translate(0)" style="fill:url(#dy)"/><path d="M30,87.39a.89.89,0,0,0,1,.1.67.67,0,0,0-.13-.15,1,1,0,0,0-.4-.23,1.13,1.13,0,0,0-.41,0A.35.35,0,0,1,30,87.39Z" transform="translate(0)" style="fill:url(#dz)"/><path d="M27.7,89.53a.22.22,0,0,0,.07.31.22.22,0,0,0,.31-.07.23.23,0,0,0,0-.3h0A.22.22,0,0,0,27.7,89.53Z" transform="translate(0)" style="fill:url(#ea)"/><path d="M28.08,88.9a1.74,1.74,0,0,0-.1.19,1.62,1.62,0,0,0,0,.19.34.34,0,0,1,.14,0,.43.43,0,0,1,.12.11l.15-.11a1.07,1.07,0,0,0,.14-.16,1,1,0,0,0,.14-.65A1,1,0,0,0,28.08,88.9Z" transform="translate(0)" style="fill:url(#eb)"/><path d="M27.32,89.12a.93.93,0,0,0,.27.31.37.37,0,0,1,.26-.15,1,1,0,0,0-.09-.4.9.9,0,0,0-.31-.35.61.61,0,0,0-.18-.09.51.51,0,0,0,0,.21A.84.84,0,0,0,27.32,89.12Z" transform="translate(0)" style="fill:url(#ec)"/><path d="M27.13,89.91a1,1,0,0,0,.42-.11.37.37,0,0,1,0-.29,1,1,0,0,0-.41-.1.8.8,0,0,0-.45.13,1.16,1.16,0,0,0-.18.14.8.8,0,0,0,.17.12A.86.86,0,0,0,27.13,89.91Z" transform="translate(0)" style="fill:url(#ed)"/><path d="M27.19,90.65c0,.06,0,.11,0,.15l0,0,.05,0,.13-.07a.85.85,0,0,0,.32-.33,1,1,0,0,0,.11-.42.28.28,0,0,1-.13,0,.36.36,0,0,1-.11-.1,1.17,1.17,0,0,0-.3.32A.84.84,0,0,0,27.19,90.65Z" transform="translate(0)" style="fill:url(#ee)"/><path d="M27.92,90a.83.83,0,0,0,.12.4.92.92,0,0,0,.34.32.71.71,0,0,0,.19.08.67.67,0,0,0,0-.2,1,1,0,0,0-.12-.43,1,1,0,0,0-.29-.3A.38.38,0,0,1,27.92,90Z" transform="translate(0)" style="fill:url(#ef)"/><path d="M28.63,89.45a.75.75,0,0,0-.39.08.37.37,0,0,1,0,.29,1.11,1.11,0,0,0,.4.11.93.93,0,0,0,.44-.09l.17-.1a.71.71,0,0,0-.16-.13A.92.92,0,0,0,28.63,89.45Z" transform="translate(0)" style="fill:url(#eg)"/><path d="M26.52,92a.4.4,0,0,1,.15,0,.38.38,0,0,1,.13.09.92.92,0,0,0,.23-.33,1,1,0,0,0,.08-.45.82.82,0,0,0,0-.2.9.9,0,0,0-.18.1.74.74,0,0,0-.3.36A.85.85,0,0,0,26.52,92Z" transform="translate(0)" style="fill:url(#eh)"/><path d="M25.87,92a.92.92,0,0,0,.32.26.35.35,0,0,1,.24-.19,1,1,0,0,0-.16-.38.92.92,0,0,0-.36-.29.85.85,0,0,0-.2-.06A1,1,0,0,0,25.87,92Z" transform="translate(0)" style="fill:url(#ei)"/><path d="M26.85,92.22a.37.37,0,0,1,0,.29,1.06,1.06,0,0,0,.41,0,.89.89,0,0,0,.57-.29.64.64,0,0,0-.18-.1.87.87,0,0,0-.45-.08A1,1,0,0,0,26.85,92.22Z" transform="translate(0)" style="fill:url(#ej)"/><path d="M35.38,83.63a.23.23,0,0,0-.31-.09.22.22,0,0,0-.09.3.23.23,0,0,0,.31.09.22.22,0,0,0,.1-.28Z" transform="translate(0)" style="fill:url(#ek)"/><path d="M35.55,83.71a1,1,0,0,0,.39-.09,1,1,0,0,0,.45-.48.94.94,0,0,0-.67,0,1,1,0,0,0-.31.26l.1.12A.28.28,0,0,1,35.55,83.71Z" transform="translate(0)" style="fill:url(#el)"/><path d="M35,83.4a.35.35,0,0,1,.3,0,.94.94,0,0,0,.12-.4.77.77,0,0,0-.09-.45.83.83,0,0,0-.11-.18A1,1,0,0,0,35,83,.86.86,0,0,0,35,83.4Z" transform="translate(0)" style="fill:url(#em)"/><path d="M34.06,83.26a.85.85,0,0,0,.33.32.91.91,0,0,0,.42.11.38.38,0,0,1,.14-.25.84.84,0,0,0-.3-.29,1,1,0,0,0-.68-.08A1.07,1.07,0,0,0,34.06,83.26Z" transform="translate(0)" style="fill:url(#en)"/><path d="M34.81,83.78a1,1,0,0,0-.42.13.64.64,0,0,0-.2.16.94.94,0,0,0-.12.18,1.23,1.23,0,0,0-.07.19.67.67,0,0,0,.2,0,.87.87,0,0,0,.44-.13A.89.89,0,0,0,35,84a.47.47,0,0,1-.1-.1A.74.74,0,0,1,34.81,83.78Z" transform="translate(0)" style="fill:url(#eo)"/><path d="M35,84.07a1,1,0,0,0-.1.41,1,1,0,0,0,.13.44,1.08,1.08,0,0,0,.13.17.92.92,0,0,0,.22-.6,1,1,0,0,0-.1-.41A.39.39,0,0,1,35,84.07Z" transform="translate(0)" style="fill:url(#ep)"/><path d="M35.67,84.34a.92.92,0,0,0,.62.14.6.6,0,0,0-.07-.2.88.88,0,0,0-.68-.48.34.34,0,0,1-.16.24A.91.91,0,0,0,35.67,84.34Z" transform="translate(0)" style="fill:url(#eq)"/><path d="M31.44,85.11l.22,0h.21a.37.37,0,0,1,.1-.27.93.93,0,0,0-.35-.23.81.81,0,0,0-.48,0,.6.6,0,0,0-.2.07.61.61,0,0,0,.11.17A1,1,0,0,0,31.44,85.11Z" transform="translate(0)" style="fill:url(#er)"/><path d="M31.4,86a1,1,0,0,0,.42-.21,1,1,0,0,0,.24-.35.31.31,0,0,1-.11-.09.29.29,0,0,1-.07-.12.82.82,0,0,0-.64.59,1,1,0,0,0,0,.2Z" transform="translate(0)" style="fill:url(#es)"/><path d="M32.12,85.9a.83.83,0,0,0,.2.41.85.85,0,0,0,.15.15.61.61,0,0,0,.08-.19.86.86,0,0,0,0-.44,1,1,0,0,0-.17-.39.38.38,0,0,1-.28,0,.9.9,0,0,0,0,.19A.93.93,0,0,0,32.12,85.9Z" transform="translate(0)" style="fill:url(#et)"/><path d="M32.11,84.94h0a.21.21,0,0,0,0,.31.23.23,0,0,0,.32,0h0a.23.23,0,0,0,0-.29v0A.22.22,0,0,0,32.11,84.94Z" transform="translate(0)" style="fill:url(#eu)"/><path d="M32.6,85a.79.79,0,0,0,.37-.16.92.92,0,0,0,.29-.35l.05-.14,0-.06h-.21a.85.85,0,0,0-.44.16.92.92,0,0,0-.26.31.35.35,0,0,1,.11.1A.37.37,0,0,1,32.6,85Z" transform="translate(0)" style="fill:url(#ev)"/><path d="M32,84.81a.37.37,0,0,1,.29,0,.89.89,0,0,0,.05-.41.85.85,0,0,0-.17-.43.67.67,0,0,0-.14-.15.91.91,0,0,0-.19.66A.78.78,0,0,0,32,84.81Z" transform="translate(0)" style="fill:url(#ew)"/><path d="M32.83,85.64a1,1,0,0,0,.64,0,.74.74,0,0,0-.11-.18,1.06,1.06,0,0,0-.35-.29.87.87,0,0,0-.4-.07.36.36,0,0,1-.12.27A.91.91,0,0,0,32.83,85.64Z" transform="translate(0)" style="fill:url(#ex)"/><path d="M53.85,108.17a.31.31,0,0,1-.13,0,.31.31,0,0,1-.11-.09.78.78,0,0,0-.22.25.86.86,0,0,0-.09.38.72.72,0,0,0,0,.18l.17-.07a.68.68,0,0,0,.28-.28A.76.76,0,0,0,53.85,108.17Z" transform="translate(0)" style="fill:url(#ey)"/><path d="M54.41,108.27a.68.68,0,0,0-.27-.24.34.34,0,0,1-.21.14.78.78,0,0,0,.12.33.72.72,0,0,0,.3.28.78.78,0,0,0,.17.07A.82.82,0,0,0,54.41,108.27Z" transform="translate(0)" style="fill:url(#ez)"/><path d="M53.57,108a.33.33,0,0,1,0-.24.77.77,0,0,0-.36-.07.74.74,0,0,0-.51.2,1.07,1.07,0,0,0,.15.1.86.86,0,0,0,.39.1A.68.68,0,0,0,53.57,108Z" transform="translate(0)" style="fill:url(#fa)"/><path d="M46.26,87.57a.18.18,0,0,0,.09.25h0a.19.19,0,0,0,.25-.06v0a.21.21,0,0,0-.09-.26h0A.19.19,0,0,0,46.26,87.57Z" transform="translate(0)" style="fill:url(#fb)"/><path d="M46.14,87a.81.81,0,0,0,.13.34.36.36,0,0,1,.25,0,.73.73,0,0,0,.06-.35.85.85,0,0,0-.3-.51.48.48,0,0,0-.09.15A.76.76,0,0,0,46.14,87Z" transform="translate(0)" style="fill:url(#fc)"/><path d="M45.74,87.56a.89.89,0,0,0,.37.07.27.27,0,0,1,0-.12.31.31,0,0,1,.07-.09.82.82,0,0,0-.3-.24.79.79,0,0,0-.41-.06.65.65,0,0,0-.18,0,1.62,1.62,0,0,0,.1.15A.94.94,0,0,0,45.74,87.56Z" transform="translate(0)" style="fill:url(#fd)"/><path d="M46,88.17a.81.81,0,0,0,.23-.27.31.31,0,0,1-.13-.2.89.89,0,0,0-.35.13.9.9,0,0,0-.24.3.82.82,0,0,0-.05.17A.79.79,0,0,0,46,88.17Z" transform="translate(0)" style="fill:url(#fe)"/><path d="M43.72,86.61a.19.19,0,0,0,.14.24.2.2,0,0,0,.24-.11v0a.19.19,0,0,0-.14-.24A.19.19,0,0,0,43.72,86.61Z" transform="translate(0)" style="fill:url(#ff)"/><path d="M44.23,86.76a.75.75,0,0,1-.07.12,1.09,1.09,0,0,0,.3.18.71.71,0,0,0,.4,0l.18,0a.54.54,0,0,0-.11-.15.75.75,0,0,0-.34-.23.9.9,0,0,0-.35,0A.53.53,0,0,1,44.23,86.76Z" transform="translate(0)" style="fill:url(#fg)"/><path d="M44.21,86.56a1,1,0,0,0,.32-.16.7.7,0,0,0,.21-.32.54.54,0,0,0,0-.18.79.79,0,0,0-.56.19.69.69,0,0,0-.2.29A.31.31,0,0,1,44.21,86.56Z" transform="translate(0)" style="fill:url(#fh)"/><path d="M43.51,86.09a1,1,0,0,0,.19.33.32.32,0,0,1,.25-.06.9.9,0,0,0,0-.36.81.81,0,0,0-.22-.35.67.67,0,0,0-.16-.11.48.48,0,0,0-.06.16A.76.76,0,0,0,43.51,86.09Z" transform="translate(0)" style="fill:url(#fi)"/><path d="M43.22,86.69a1.17,1.17,0,0,0,.37,0,.29.29,0,0,1,0-.13.31.31,0,0,1,0-.1.69.69,0,0,0-.34-.18.94.94,0,0,0-.41,0,.65.65,0,0,0-.16.07.61.61,0,0,0,.12.14A.87.87,0,0,0,43.22,86.69Z" transform="translate(0)" style="fill:url(#fj)"/><path d="M43.26,87.44a.76.76,0,0,0,.33-.19.84.84,0,0,0,.19-.3.33.33,0,0,1-.17-.18.66.66,0,0,0-.31.18.76.76,0,0,0-.19.35,1,1,0,0,0,0,.17A.65.65,0,0,0,43.26,87.44Z" transform="translate(0)" style="fill:url(#fk)"/><path d="M44.16,87.79a1,1,0,0,0,.08-.16.82.82,0,0,0,0-.39.65.65,0,0,0-.16-.31.35.35,0,0,1-.25,0,.87.87,0,0,0,0,.36A.88.88,0,0,0,44.16,87.79Z" transform="translate(0)" style="fill:url(#fl)"/><path d="M41.07,86.09a.21.21,0,0,0,.18.22.19.19,0,0,0,.21-.15v0a.21.21,0,0,0-.18-.22A.19.19,0,0,0,41.07,86.09Z" transform="translate(0)" style="fill:url(#fm)"/><path d="M41.59,86.16a.5.5,0,0,1,0,.13.86.86,0,0,0,.32.12.73.73,0,0,0,.4,0,.9.9,0,0,0,.17-.07,1.3,1.3,0,0,0-.13-.13.84.84,0,0,0-.38-.18.78.78,0,0,0-.35,0A.57.57,0,0,1,41.59,86.16Z" transform="translate(0)" style="fill:url(#fn)"/><path d="M41.54,86a.76.76,0,0,0,.28-.21.68.68,0,0,0,.15-.36.62.62,0,0,0,0-.18.81.81,0,0,0-.52.28.75.75,0,0,0-.14.32A.35.35,0,0,1,41.54,86Z" transform="translate(0)" style="fill:url(#fo)"/><path d="M40.77,85.62a.8.8,0,0,0,.25.29.3.3,0,0,1,.22-.11.78.78,0,0,0-.07-.35.93.93,0,0,0-.46-.39.47.47,0,0,0,0,.17A.76.76,0,0,0,40.77,85.62Z" transform="translate(0)" style="fill:url(#fp)"/><path d="M40.59,86.26A.78.78,0,0,0,41,86.2a.45.45,0,0,1,0-.12A.2.2,0,0,1,41,86a.9.9,0,0,0-.36-.13.92.92,0,0,0-.4.08.62.62,0,0,0-.15.1.84.84,0,0,0,.15.11A.89.89,0,0,0,40.59,86.26Z" transform="translate(0)" style="fill:url(#fq)"/><path d="M41.06,86.75a1,1,0,0,0,.13-.33.35.35,0,0,1-.2-.15.77.77,0,0,0-.28.24.68.68,0,0,0-.11.37.78.78,0,0,0,0,.17A.79.79,0,0,0,41.06,86.75Z" transform="translate(0)" style="fill:url(#fr)"/><path d="M41.71,87.19a1,1,0,0,0,0-.17.79.79,0,0,0,0-.39.94.94,0,0,0-.21-.29.36.36,0,0,1-.24.09.78.78,0,0,0,.07.35A.83.83,0,0,0,41.71,87.19Z" transform="translate(0)" style="fill:url(#fs)"/><path d="M37.8,85.62a.89.89,0,0,0,.3.23.3.3,0,0,1,.2-.14.66.66,0,0,0-.14-.33.69.69,0,0,0-.33-.25.62.62,0,0,0-.18-.06.86.86,0,0,0,0,.18A.74.74,0,0,0,37.8,85.62Z" transform="translate(0)" style="fill:url(#ft)"/><path d="M38.06,86a.17.17,0,0,1,0-.12.89.89,0,0,0-.38-.06.78.78,0,0,0-.38.15.55.55,0,0,0-.12.12,1,1,0,0,0,.16.08.93.93,0,0,0,.4.07,1,1,0,0,0,.34-.12A.27.27,0,0,1,38.06,86Z" transform="translate(0)" style="fill:url(#fu)"/><path d="M38.14,86.22a.72.72,0,0,0-.23.28.81.81,0,0,0,0,.39c0,.1,0,.17,0,.17a.51.51,0,0,0,.15-.08.83.83,0,0,0,.24-.3.74.74,0,0,0,.07-.34A.34.34,0,0,1,38.14,86.22Z" transform="translate(0)" style="fill:url(#fv)"/><path d="M38.58,86a.21.21,0,0,0-.21-.18h0a.19.19,0,0,0-.18.2.22.22,0,0,0,.22.19h0a.18.18,0,0,0,.17-.18Z" transform="translate(0)" style="fill:url(#fw)"/><path d="M38.71,86a.31.31,0,0,1,0,.13,1,1,0,0,0,.35.07.78.78,0,0,0,.38-.1.62.62,0,0,0,.15-.1.5.5,0,0,0-.15-.11.84.84,0,0,0-.4-.1.71.71,0,0,0-.34.08A.5.5,0,0,1,38.71,86Z" transform="translate(0)" style="fill:url(#fx)"/><path d="M38.62,85.82a1,1,0,0,0,.24-.26.69.69,0,0,0,.08-.38.83.83,0,0,0,0-.18.74.74,0,0,0-.18.08.71.71,0,0,0-.28.29.76.76,0,0,0-.08.34A.3.3,0,0,1,38.62,85.82Z" transform="translate(0)" style="fill:url(#fy)"/><path d="M38.56,86.67a.85.85,0,0,0,.29.26A.64.64,0,0,0,39,87a.58.58,0,0,0,0-.18.7.7,0,0,0-.12-.38.71.71,0,0,0-.25-.24.3.3,0,0,1-.22.12A1,1,0,0,0,38.56,86.67Z" transform="translate(0)" style="fill:url(#fz)"/><path d="M52.56,92.37a.5.5,0,0,0,0,.17.38.38,0,0,1,.23.11.67.67,0,0,0,.22-.27.75.75,0,0,0,.06-.4,1.22,1.22,0,0,0-.05-.19l-.16.09a.76.76,0,0,0-.24.3A.45.45,0,0,0,52.56,92.37Z" transform="translate(0)" style="fill:url(#ga)"/><path d="M52,92.44a1,1,0,0,0,.29.24.76.76,0,0,1,.09-.09.21.21,0,0,1,.11,0,.7.7,0,0,0-.15-.35A.88.88,0,0,0,52,92a.81.81,0,0,0-.18,0,.62.62,0,0,0,0,.18A.89.89,0,0,0,52,92.44Z" transform="translate(0)" style="fill:url(#gb)"/><path d="M52.07,92.7a.44.44,0,0,0-.2,0,.74.74,0,0,0-.37.14.61.61,0,0,0-.13.11.48.48,0,0,0,.15.09.89.89,0,0,0,.39.06.76.76,0,0,0,.34-.1.33.33,0,0,1,0-.24A.69.69,0,0,0,52.07,92.7Z" transform="translate(0)" style="fill:url(#gc)"/><path d="M50.68,90.65a.19.19,0,0,0,0,.27A.2.2,0,0,0,51,91h0a.19.19,0,0,0,0-.28A.2.2,0,0,0,50.68,90.65Z" transform="translate(0)" style="fill:url(#gd)"/><path d="M51.12,90.93a.3.3,0,0,1-.07.1.27.27,0,0,1-.12.06.83.83,0,0,0,.18.31,1,1,0,0,0,.33.22.81.81,0,0,0,.18,0,.49.49,0,0,0,0-.18.68.68,0,0,0-.18-.36A.79.79,0,0,0,51.12,90.93Z" transform="translate(0)" style="fill:url(#ge)"/><path d="M51.14,90.85a1,1,0,0,0,.36,0,.76.76,0,0,0,.36-.17.74.74,0,0,0,.12-.13.88.88,0,0,0-.59-.12.73.73,0,0,0-.32.15A.29.29,0,0,1,51.14,90.85Z" transform="translate(0)" style="fill:url(#gf)"/><path d="M50.77,90.48a.35.35,0,0,1,.24.06.62.62,0,0,0,.17-.3.79.79,0,0,0-.1-.58.48.48,0,0,0-.13.11.62.62,0,0,0-.19.34A.75.75,0,0,0,50.77,90.48Z" transform="translate(0)" style="fill:url(#gg)"/><path d="M50.2,90.48a.87.87,0,0,0,.32.18.61.61,0,0,1,.07-.1.33.33,0,0,1,.1-.06.81.81,0,0,0-.2-.32.93.93,0,0,0-.37-.19.49.49,0,0,0-.18,0,.51.51,0,0,0,0,.17A.78.78,0,0,0,50.2,90.48Z" transform="translate(0)" style="fill:url(#gh)"/><path d="M50.56,91a.32.32,0,0,1-.06-.23.66.66,0,0,0-.37,0,.75.75,0,0,0-.34.2.5.5,0,0,0-.1.14.81.81,0,0,0,.55,0A.87.87,0,0,0,50.56,91Z" transform="translate(0)" style="fill:url(#gi)"/><path d="M50.47,91.87a.5.5,0,0,0,.14-.1.72.72,0,0,0,.22-.32.67.67,0,0,0,0-.34.38.38,0,0,1-.24-.09,1,1,0,0,0-.18.31A.77.77,0,0,0,50.47,91.87Z" transform="translate(0)" style="fill:url(#gj)"/><path d="M48.6,88.92a.21.21,0,0,0,0,.28.2.2,0,0,0,.26,0h0a.19.19,0,0,0,0-.27A.2.2,0,0,0,48.6,88.92Z" transform="translate(0)" style="fill:url(#gk)"/><path d="M49.25,89.17a.64.64,0,0,0-.17,0,.22.22,0,0,1,0,.11.28.28,0,0,1-.1.09.51.51,0,0,0,.09.13.78.78,0,0,0,.68.32.81.81,0,0,0-.29-.5A.7.7,0,0,0,49.25,89.17Z" transform="translate(0)" style="fill:url(#gl)"/><path d="M49.09,89a.88.88,0,0,0,.35,0,.76.76,0,0,0,.32-.23.63.63,0,0,0,.1-.15.62.62,0,0,0-.19-.06.87.87,0,0,0-.41,0,.73.73,0,0,0-.29.21A.37.37,0,0,1,49.09,89Z" transform="translate(0)" style="fill:url(#gm)"/><path d="M48.65,88.74a.34.34,0,0,1,.26,0,.76.76,0,0,0,.11-.33.7.7,0,0,0-.1-.4.67.67,0,0,0-.11-.16,1,1,0,0,0-.11.14.62.62,0,0,0-.12.37A.8.8,0,0,0,48.65,88.74Z" transform="translate(0)" style="fill:url(#gn)"/><path d="M48.09,88.83a.93.93,0,0,0,.36.13.22.22,0,0,1,0-.11l.08-.08a.75.75,0,0,0-.26-.28.82.82,0,0,0-.39-.13h-.18l0,0,0,.11A.84.84,0,0,0,48.09,88.83Z" transform="translate(0)" style="fill:url(#go)"/><path d="M48.26,89.48a.91.91,0,0,0,.28-.22.32.32,0,0,1-.1-.22.68.68,0,0,0-.36.06.88.88,0,0,0-.3.26c-.05.09-.08.16-.08.16a.68.68,0,0,0,.17,0A.81.81,0,0,0,48.26,89.48Z" transform="translate(0)" style="fill:url(#gp)"/><path d="M48.61,90.17a1.3,1.3,0,0,0,.13-.13.76.76,0,0,0,.15-.35.6.6,0,0,0,0-.34.37.37,0,0,1-.25,0,.62.62,0,0,0-.12.33.75.75,0,0,0,.05.38A1.11,1.11,0,0,0,48.61,90.17Z" transform="translate(0)" style="fill:url(#gq)"/><path d="M46.73,87.8a.22.22,0,0,1-.09.1.89.89,0,0,0,.27.23,1,1,0,0,0,.39.1h.18a1.1,1.1,0,0,0-.07-.17.75.75,0,0,0-.3-.28.83.83,0,0,0-.35-.09A.27.27,0,0,1,46.73,87.8Z" transform="translate(0)" style="fill:url(#gr)"/><path d="M46.75,87.6a.88.88,0,0,0,.34-.1.7.7,0,0,0,.28-.29.52.52,0,0,0,.06-.16.87.87,0,0,0-.59.08.73.73,0,0,0-.24.26A.29.29,0,0,1,46.75,87.6Z" transform="translate(0)" style="fill:url(#gs)"/><path d="M46.49,88.8a1.07,1.07,0,0,0,.1-.15.79.79,0,0,0,.09-.38.8.8,0,0,0-.1-.33.33.33,0,0,1-.26,0,.91.91,0,0,0-.06.35A.84.84,0,0,0,46.49,88.8Z" transform="translate(0)" style="fill:url(#gt)"/><path d="M55.07,100.27h0a.2.2,0,0,0,.19.18h0a.18.18,0,0,0,.18-.2h0a.21.21,0,0,0-.21-.19A.19.19,0,0,0,55.07,100.27Z" transform="translate(0)" style="fill:url(#gu)"/><path d="M55.58,100.19a.74.74,0,0,0,.34-.12.72.72,0,0,0,.25-.32.82.82,0,0,0,0-.17.58.58,0,0,0-.18,0,.81.81,0,0,0-.38.14.84.84,0,0,0-.23.28A.31.31,0,0,1,55.58,100.19Z" transform="translate(0)" style="fill:url(#gv)"/><path d="M55.11,99.09a.69.69,0,0,0-.07.15.76.76,0,0,0-.06.39.81.81,0,0,0,.14.34.24.24,0,0,1,.12,0h.12a.68.68,0,0,0,0-.36.79.79,0,0,0-.15-.37A.54.54,0,0,0,55.11,99.09Z" transform="translate(0)" style="fill:url(#gw)"/><path d="M54.76,99.78a.88.88,0,0,0-.4-.06.65.65,0,0,0-.18,0,.89.89,0,0,0,.4.39,1,1,0,0,0,.36.07.33.33,0,0,1,.11-.21A.78.78,0,0,0,54.76,99.78Z" transform="translate(0)" style="fill:url(#gx)"/><path d="M54.75,97.48a.18.18,0,0,0-.14.23.22.22,0,0,0,.22.15h0a.18.18,0,0,0,.14-.23A.2.2,0,0,0,54.75,97.48Z" transform="translate(0)" style="fill:url(#gy)"/><path d="M55.18,98.46a.86.86,0,0,0,0-.22.87.87,0,0,0-.16-.32.17.17,0,0,1-.12,0,.29.29,0,0,1-.13,0,.68.68,0,0,0,0,.35,1.19,1.19,0,0,0,.08.2,1,1,0,0,0,.11.15.74.74,0,0,0,.13.12.64.64,0,0,0,.08-.15S55.17,98.52,55.18,98.46Z" transform="translate(0)" style="fill:url(#gz)"/><path d="M55.06,97.87a1,1,0,0,0,.3.19.86.86,0,0,0,.41,0l.17,0a.87.87,0,0,0-.46-.39.77.77,0,0,0-.36,0A.32.32,0,0,1,55.06,97.87Z" transform="translate(0)" style="fill:url(#ha)"/><path d="M55.09,97.55a.76.76,0,0,0,.31-.18.78.78,0,0,0,.22-.54l-.18,0a.76.76,0,0,0-.34.2.84.84,0,0,0-.19.32A.29.29,0,0,1,55.09,97.55Z" transform="translate(0)" style="fill:url(#hb)"/><path d="M54.41,97.09a1.08,1.08,0,0,0,.19.32.22.22,0,0,1,.11,0,.26.26,0,0,1,.12,0,.67.67,0,0,0,0-.37.83.83,0,0,0-.37-.45A.77.77,0,0,0,54.41,97.09Z" transform="translate(0)" style="fill:url(#hc)"/><path d="M54.22,97.28a.76.76,0,0,0-.4,0l-.17.06,0,0,.09.09a.78.78,0,0,0,.34.19,1,1,0,0,0,.37,0,.3.3,0,0,1,.07-.23A.86.86,0,0,0,54.22,97.28Z" transform="translate(0)" style="fill:url(#hd)"/><path d="M54.18,97.93a.77.77,0,0,0-.25.48l.19,0a.73.73,0,0,0,.35-.16.81.81,0,0,0,.2-.28.35.35,0,0,1-.17-.19A.83.83,0,0,0,54.18,97.93Z" transform="translate(0)" style="fill:url(#he)"/><path d="M53.71,95.25a.2.2,0,0,0,.24.11h0a.19.19,0,0,0,.1-.25A.22.22,0,0,0,53.8,95,.19.19,0,0,0,53.71,95.25Z" transform="translate(0)" style="fill:url(#hf)"/><path d="M54.13,95.4a.41.41,0,0,1-.11.07l-.14,0a.74.74,0,0,0,.07.34.83.83,0,0,0,.39.42.78.78,0,0,0,0-.57A.89.89,0,0,0,54.13,95.4Z" transform="translate(0)" style="fill:url(#hg)"/><path d="M54.17,95.33a.81.81,0,0,0,.34.14.82.82,0,0,0,.4,0,1,1,0,0,0,.16-.08.9.9,0,0,0-.52-.31.81.81,0,0,0-.36,0A.31.31,0,0,1,54.17,95.33Z" transform="translate(0)" style="fill:url(#hh)"/><path d="M54.15,95a.84.84,0,0,0,.28-.23.82.82,0,0,0,.1-.57.62.62,0,0,0-.17.06.74.74,0,0,0-.3.25.87.87,0,0,0-.12.34A.3.3,0,0,1,54.15,95Z" transform="translate(0)" style="fill:url(#hi)"/><path d="M53.33,94.46a1.72,1.72,0,0,0,.07.21.69.69,0,0,0,.25.28.22.22,0,0,1,.09-.07l.12,0a.75.75,0,0,0-.08-.37.83.83,0,0,0-.13-.18.79.79,0,0,0-.15-.12.64.64,0,0,0-.16-.08.5.5,0,0,0,0,.18A1.11,1.11,0,0,0,53.33,94.46Z" transform="translate(0)" style="fill:url(#hj)"/><path d="M53.22,95.29a.83.83,0,0,0,.36,0,.29.29,0,0,1,0-.24.85.85,0,0,0-.35-.12.73.73,0,0,0-.39.08.65.65,0,0,0-.16.09A.81.81,0,0,0,53.22,95.29Z" transform="translate(0)" style="fill:url(#hk)"/><path d="M53.35,96a.88.88,0,0,0,.32-.22.63.63,0,0,0,.13-.31.39.39,0,0,1-.2-.16.67.67,0,0,0-.27.22.72.72,0,0,0-.16.52A.81.81,0,0,0,53.35,96Z" transform="translate(0)" style="fill:url(#hl)"/><path d="M52.71,92.76h0a.2.2,0,0,0-.28-.06.18.18,0,0,0,0,.26h0a.2.2,0,0,0,.25.06h0A.18.18,0,0,0,52.71,92.76Z" transform="translate(0)" style="fill:url(#hm)"/><path d="M52.72,93.5a.76.76,0,0,0,.3.27l.11.06,0,0a.12.12,0,0,0,0,0,.49.49,0,0,0,0-.13.83.83,0,0,0-.12-.38.77.77,0,0,0-.26-.25.38.38,0,0,1-.09.09.28.28,0,0,1-.13,0A1,1,0,0,0,52.72,93.5Z" transform="translate(0)" style="fill:url(#hn)"/><path d="M52.86,93a.9.9,0,0,0,.35.08.78.78,0,0,0,.38-.11.68.68,0,0,0,.14-.1.83.83,0,0,0-.56-.22.81.81,0,0,0-.34.09A.4.4,0,0,1,52.86,93Z" transform="translate(0)" style="fill:url(#ho)"/><path d="M52,93.86l.16-.08a.68.68,0,0,0,.28-.28.6.6,0,0,0,.08-.33.32.32,0,0,1-.22-.12.71.71,0,0,0-.24.27A.86.86,0,0,0,52,93.86Z" transform="translate(0)" style="fill:url(#hp)"/><path d="M54.05,108a.21.21,0,0,0-.1-.27.2.2,0,0,0-.26.09h0a.19.19,0,0,0,.07.24h0A.2.2,0,0,0,54,108Z" transform="translate(0)" style="fill:url(#hq)"/><path d="M54.18,108a.77.77,0,0,0,.36.07.84.84,0,0,0,.52-.27.9.9,0,0,0-.16-.1.81.81,0,0,0-.4-.06.66.66,0,0,0-.35.12A.33.33,0,0,1,54.18,108Z" transform="translate(0)" style="fill:url(#hr)"/><path d="M54,107.57a.39.39,0,0,1,.1.08.87.87,0,0,0,.23-.29.7.7,0,0,0,.05-.39.92.92,0,0,0-.05-.18.81.81,0,0,0-.15.09.78.78,0,0,0-.24.31.65.65,0,0,0-.06.35A.27.27,0,0,1,54,107.57Z" transform="translate(0)" style="fill:url(#hs)"/><path d="M53.66,107.21a.78.78,0,0,0-.32-.25l-.18-.06a.82.82,0,0,0,.16.53.88.88,0,0,0,.28.24.27.27,0,0,1,.2-.12A.82.82,0,0,0,53.66,107.21Z" transform="translate(0)" style="fill:url(#ht)"/><path d="M54.84,105.25a.18.18,0,0,0-.24.13.2.2,0,0,0,.12.23h0a.19.19,0,1,0,.1-.37Z" transform="translate(0)" style="fill:url(#hu)"/><path d="M54.84,105.75a.43.43,0,0,1-.26-.08.8.8,0,0,0-.18.29.75.75,0,0,0,0,.39,1.76,1.76,0,0,0,.06.17.63.63,0,0,0,.15-.1.76.76,0,0,0,.22-.33A.81.81,0,0,0,54.84,105.75Z" transform="translate(0)" style="fill:url(#hv)"/><path d="M55.09,105.55a.29.29,0,0,1-.18.18,1,1,0,0,0,.18.31.69.69,0,0,0,.34.22.51.51,0,0,0,.17,0,.76.76,0,0,0-.2-.55A.91.91,0,0,0,55.09,105.55Z" transform="translate(0)" style="fill:url(#hw)"/><path d="M55,105.24a.33.33,0,0,1,.07.24.92.92,0,0,0,.37,0,.8.8,0,0,0,.35-.21,1,1,0,0,0,.11-.15.62.62,0,0,0-.17-.06.81.81,0,0,0-.41,0A.89.89,0,0,0,55,105.24Z" transform="translate(0)" style="fill:url(#hx)"/><path d="M55.14,104.46a1,1,0,0,0-.08-.16.74.74,0,0,0-.13.12.59.59,0,0,0-.19.34.86.86,0,0,0,0,.36.25.25,0,0,1,.12,0l.11.05a.59.59,0,0,0,.18-.32A.85.85,0,0,0,55.14,104.46Z" transform="translate(0)" style="fill:url(#hy)"/><path d="M54.11,104.63l-.18,0a1.29,1.29,0,0,0,0,.17.82.82,0,0,0,.21.33.72.72,0,0,0,.32.19.26.26,0,0,1,.17-.15.71.71,0,0,0-.2-.32A.79.79,0,0,0,54.11,104.63Z" transform="translate(0)" style="fill:url(#hz)"/><path d="M53.64,105.64a.9.9,0,0,0,.17.07.74.74,0,0,0,.72-.1.32.32,0,0,1-.06-.25,1.06,1.06,0,0,0-.36,0A.85.85,0,0,0,53.64,105.64Z" transform="translate(0)" style="fill:url(#ia)"/><path d="M55.28,102.68a.19.19,0,0,0-.21.17.2.2,0,0,0,.15.21h0a.19.19,0,0,0,.22-.16A.2.2,0,0,0,55.28,102.68Z" transform="translate(0)" style="fill:url(#ib)"/><path d="M55.36,103.18h-.13l-.13,0a.71.71,0,0,0-.12.32.79.79,0,0,0,.05.39.68.68,0,0,0,.08.16.74.74,0,0,0,.13-.12.75.75,0,0,0,.16-.36A.77.77,0,0,0,55.36,103.18Z" transform="translate(0)" style="fill:url(#ic)"/><path d="M55.58,102.94a.32.32,0,0,1-.15.21,1,1,0,0,0,.23.28.86.86,0,0,0,.38.16.62.62,0,0,0,.18,0,.85.85,0,0,0-.3-.52A.88.88,0,0,0,55.58,102.94Z" transform="translate(0)" style="fill:url(#id)"/><path d="M55.59,102.86a.65.65,0,0,0,.35-.06.79.79,0,0,0,.39-.43.65.65,0,0,0-.18,0,1.05,1.05,0,0,0-.4.07,1.13,1.13,0,0,0-.28.24A.3.3,0,0,1,55.59,102.86Z" transform="translate(0)" style="fill:url(#ie)"/><path d="M55.43,101.85l-.11-.15a1,1,0,0,0-.11.14,1.07,1.07,0,0,0-.12.37,1,1,0,0,0,.07.36.28.28,0,0,1,.13,0,.27.27,0,0,1,.12,0,.8.8,0,0,0,.11-.35A.86.86,0,0,0,55.43,101.85Z" transform="translate(0)" style="fill:url(#if)"/><path d="M54.61,102.65a.88.88,0,0,0,.34.14.28.28,0,0,1,.14-.19.8.8,0,0,0-.25-.28.88.88,0,0,0-.38-.12.86.86,0,0,0-.18,0A.81.81,0,0,0,54.61,102.65Z" transform="translate(0)" style="fill:url(#ig)"/><path d="M54.94,102.86a.8.8,0,0,0-.36,0,.75.75,0,0,0-.4.36.92.92,0,0,0,.18,0,.77.77,0,0,0,.39,0,.82.82,0,0,0,.29-.2A.33.33,0,0,1,54.94,102.86Z" transform="translate(0)" style="fill:url(#ih)"/><path d="M55.21,101.26l.11.15a.4.4,0,0,0,.1-.15.78.78,0,0,0,.1-.38.85.85,0,0,0-.1-.34.28.28,0,0,1-.13,0,.19.19,0,0,1-.13,0,.84.84,0,0,0-.07.33A.78.78,0,0,0,55.21,101.26Z" transform="translate(0)" style="fill:url(#ii)"/><path d="M55.48,100.5a1.13,1.13,0,0,0,.28.24.67.67,0,0,0,.39.09.72.72,0,0,0,.18,0,.79.79,0,0,0-.08-.17.78.78,0,0,0-.31-.28.7.7,0,0,0-.35-.09A.3.3,0,0,1,55.48,100.5Z" transform="translate(0)" style="fill:url(#ij)"/><path d="M54.61,100.41a.76.76,0,0,0-.27.27.52.52,0,0,0-.06.16.54.54,0,0,0,.18,0,.72.72,0,0,0,.38-.1.61.61,0,0,0,.24-.24.32.32,0,0,1-.13-.21A.76.76,0,0,0,54.61,100.41Z" transform="translate(0)" style="fill:url(#ik)"/><path d="M35.47,86.59a1.23,1.23,0,0,0,.29.24.34.34,0,0,1,.21-.14.94.94,0,0,0-.14-.34.8.8,0,0,0-.33-.25.73.73,0,0,0-.19-.06.9.9,0,0,0,0,.18A.88.88,0,0,0,35.47,86.59Z" transform="translate(0)" style="fill:url(#il)"/><path d="M35.72,87a.25.25,0,0,1,0-.12.75.75,0,0,0-.38,0A.7.7,0,0,0,35,87a.49.49,0,0,0-.13.12l.16.09a.81.81,0,0,0,.4.06.85.85,0,0,0,.35-.12A.25.25,0,0,1,35.72,87Z" transform="translate(0)" style="fill:url(#im)"/><path d="M35.8,87.19a.68.68,0,0,0-.22.29.67.67,0,0,0,0,.38.65.65,0,0,0,0,.18l.14-.09a.72.72,0,0,0,.24-.29.78.78,0,0,0,.07-.35A.35.35,0,0,1,35.8,87.19Z" transform="translate(0)" style="fill:url(#in)"/><path d="M36.24,87a.2.2,0,0,0-.2-.19h0a.18.18,0,0,0-.18.2.2.2,0,0,0,.21.18h0a.18.18,0,0,0,.17-.18Z" transform="translate(0)" style="fill:url(#io)"/><path d="M36.37,87a.51.51,0,0,1,0,.13.86.86,0,0,0,.35.08.84.84,0,0,0,.52-.21.68.68,0,0,0-.14-.1.79.79,0,0,0-.4-.11.72.72,0,0,0-.35.09A.28.28,0,0,1,36.37,87Z" transform="translate(0)" style="fill:url(#ip)"/><path d="M36.29,86.79a.74.74,0,0,0,.23-.26.7.7,0,0,0,.09-.38,1.07,1.07,0,0,0,0-.17.78.78,0,0,0-.17.07.8.8,0,0,0-.29.29.63.63,0,0,0-.07.34A.41.41,0,0,1,36.29,86.79Z" transform="translate(0)" style="fill:url(#iq)"/><path d="M36.22,87.65a.87.87,0,0,0,.3.26.84.84,0,0,0,.16.07,1.41,1.41,0,0,0,0-.18,1,1,0,0,0-.12-.38.73.73,0,0,0-.26-.24.3.3,0,0,1-.21.13A.87.87,0,0,0,36.22,87.65Z" transform="translate(0)" style="fill:url(#ir)"/><path d="M39.78,100.28a32.58,32.58,0,0,1,2.49,4c.34.67.7,1.34,1,2,.15.33.3.65.45,1s.3.61.44.9c.53,1.18,1,2.17,1.32,2.9.15.37.3.65.38.85l.14.3a6.27,6.27,0,0,1-.91.15,10.86,10.86,0,0,1-5.69-.86,10.27,10.27,0,0,1-1.83-1,12.29,12.29,0,0,1-1.82-1.57,16.83,16.83,0,0,1-1.6-2.08,24.16,24.16,0,0,1-1.26-2.36c-.35-.82-.65-1.65-.91-2.47s-.43-1.62-.59-2.39L31.29,99c0-.18-.05-.37-.08-.55-.05-.35-.09-.69-.13-1a14.82,14.82,0,0,1-.14-1.71c0-1,0-1.55,0-1.55a8.59,8.59,0,0,1,.9.23,13.07,13.07,0,0,1,2.18.93,11.92,11.92,0,0,1,1.37.81,16.75,16.75,0,0,1,1.48,1.08,19,19,0,0,1,1.48,1.39A16.74,16.74,0,0,1,39.78,100.28Z" transform="translate(0)" style="fill:url(#is)"/><path d="M42.44,98.23a15.41,15.41,0,0,0-.57,2.68,19.38,19.38,0,0,0,0,2.64,20.83,20.83,0,0,0,.46,2.45c.24.76.5,1.48.78,2.14a15.81,15.81,0,0,0,1.84,3c.55.7.91,1.08.91,1.08s.31-.34.79-1a30.78,30.78,0,0,0,1.77-2.63c.33-.56.66-1.15,1-1.79.16-.31.32-.64.47-1s.32-.69.47-1a20.51,20.51,0,0,0,.82-2.19,22.2,22.2,0,0,0,.64-2.33A32.18,32.18,0,0,0,52.34,92c0-.28,0-.54-.06-.8s0-.51,0-.73c0-.47-.09-.86-.11-1.2A9.3,9.3,0,0,0,52,88.23s-.42.19-1.11.58a22.35,22.35,0,0,0-2.69,1.76A18.7,18.7,0,0,0,45,93.65,14.31,14.31,0,0,0,42.44,98.23Z" transform="translate(0)" style="fill:url(#it)"/><text transform="translate(62.91 99.48)" style="font-size:17.6543025970459px;font-family:Poppins-Black, Poppins;font-weight:800">BELYA FIBER</text><path d="M73.92,94.15a3.35,3.35,0,0,1-.46,4.43,4.75,4.75,0,0,1-3.11.9H63.8V87h6.37a4.82,4.82,0,0,1,3,.83,2.85,2.85,0,0,1,1.1,2.42,3,3,0,0,1-.58,1.84,2.74,2.74,0,0,1-1.53,1A3,3,0,0,1,73.92,94.15Zm-6.2-2.3h1.51a1.22,1.22,0,0,0,.79-.21.81.81,0,0,0,.26-.66.83.83,0,0,0-.26-.67,1.16,1.16,0,0,0-.79-.23H67.72Zm2.56,4.28a.78.78,0,0,0,.26-.66c0-.6-.35-.9-1-.9H67.72v1.76H69.5A1.21,1.21,0,0,0,70.28,96.13Z" transform="translate(0)" style="fill:url(#iu)"/><path d="M79.79,90.08v1.56h3.88v3H79.79v1.76H84.2v3.13H75.87V87H84.2v3.1Z" transform="translate(0)" style="fill:url(#iu)"/><path d="M89.61,96.51h3.77v3H85.69V87h3.92Z" transform="translate(0)" style="fill:url(#iu)"/><path d="M106.63,87l-4.49,8.7v3.8H98.22v-3.8L93.74,87h4.48l2,4.43,2-4.43Z" transform="translate(0)" style="fill:url(#iu)"/><path d="M115.52,97.59h-4.16l-.62,1.89h-4.11L111.2,87h4.52l4.55,12.5h-4.13Zm-1-3-1.13-3.48-1.13,3.48Z" transform="translate(0)" style="fill:url(#iu)"/><path d="M133,87v3.1h-4.91v1.73h3.54v3h-3.54v4.72h-3.91V87Z" transform="translate(0)" style="fill:url(#iu)"/><path d="M138.23,87v12.5h-3.92V87Z" transform="translate(0)" style="fill:url(#iu)"/><path d="M150.12,94.15a3.38,3.38,0,0,1-.46,4.43,4.79,4.79,0,0,1-3.12.9H140V87h6.37a4.83,4.83,0,0,1,3,.83,2.87,2.87,0,0,1,1.09,2.42,3,3,0,0,1-.57,1.84,2.77,2.77,0,0,1-1.53,1A3,3,0,0,1,150.12,94.15Zm-6.21-2.3h1.52a1.21,1.21,0,0,0,.78-.21.81.81,0,0,0,.26-.66.83.83,0,0,0-.26-.67,1.15,1.15,0,0,0-.78-.23h-1.52Zm2.57,4.28a.78.78,0,0,0,.26-.66q0-.9-1.05-.9h-1.78v1.76h1.78A1.23,1.23,0,0,0,146.48,96.13Z" transform="translate(0)" style="fill:url(#iu)"/><path d="M156,90.08v1.56h3.88v3H156v1.76h4.41v3.13h-8.33V87h8.33v3.1Z" transform="translate(0)" style="fill:url(#iu)"/><path d="M168.17,99.48,165.8,95v4.49h-3.92V87h5.83a5.73,5.73,0,0,1,2.59.54A3.73,3.73,0,0,1,171.92,89a4.09,4.09,0,0,1,.54,2.09,3.77,3.77,0,0,1-.7,2.23,3.81,3.81,0,0,1-2,1.39l2.71,4.79Zm-2.37-7.1h1.55a1.23,1.23,0,0,0,.85-.26,1.24,1.24,0,0,0,0-1.58,1.18,1.18,0,0,0-.84-.28H165.8Z" transform="translate(0)" style="fill:url(#iu)"/><text transform="translate(63.49 109.81)" style="font-size:10.94566822052002px;fill:#010101;font-family:Poppins-SemiBold, Poppins;font-weight:600">Exporters</text><path d="M65.74,103.31v2h2.73v1.19H65.74v2.07H68.8v1.24H64.19v-7.73H68.8v1.23Z" transform="translate(0)" style="fill:url(#je)"/><path d="M73.63,109.81l-1.38-2-1.16,2h-1.7l2-3.16-2.05-2.9h1.73l1.35,1.91,1.16-1.91h1.69l-2,3.07,2.11,3Z" transform="translate(0)" style="fill:url(#je)"/><path d="M81.15,104a2.53,2.53,0,0,1,1,1.08,4.22,4.22,0,0,1,0,3.32,2.53,2.53,0,0,1-1,1.08,2.69,2.69,0,0,1-1.38.37,2.24,2.24,0,0,1-1.31-.37,2,2,0,0,1-.77-1v4.16H76.15v-9h1.54V105a2,2,0,0,1,.77-1,2.32,2.32,0,0,1,1.31-.36A2.59,2.59,0,0,1,81.15,104Zm-3,1.45a1.81,1.81,0,0,0-.45,1.29,1.76,1.76,0,0,0,.45,1.27,1.54,1.54,0,0,0,1.16.48,1.51,1.51,0,0,0,1.16-.46,2.11,2.11,0,0,0,0-2.58,1.49,1.49,0,0,0-1.16-.47A1.57,1.57,0,0,0,78.13,105.49Z" transform="translate(0)" style="fill:url(#je)"/><path d="M87.94,104a2.75,2.75,0,0,1,1.11,1.08,3.27,3.27,0,0,1,.41,1.66,3.23,3.23,0,0,1-.41,1.65,2.75,2.75,0,0,1-1.11,1.08,3.52,3.52,0,0,1-3.18,0,2.77,2.77,0,0,1-1.12-1.08,3.23,3.23,0,0,1-.4-1.65,3.27,3.27,0,0,1,.4-1.66A2.77,2.77,0,0,1,84.76,104a3.6,3.6,0,0,1,3.18,0Zm-2.69,1.42a2.2,2.2,0,0,0,0,2.64,1.5,1.5,0,0,0,1.1.45,1.48,1.48,0,0,0,1.09-.45,2.16,2.16,0,0,0,0-2.64,1.48,1.48,0,0,0-1.09-.45A1.5,1.5,0,0,0,85.25,105.46Z" transform="translate(0)" style="fill:url(#je)"/><path d="M93,104a2.41,2.41,0,0,1,1.25-.33v1.65h-.45c-1.13,0-1.7.53-1.7,1.58v2.92H90.55v-6.06h1.54v1.16A2.64,2.64,0,0,1,93,104Z" transform="translate(0)" style="fill:url(#je)"/><path d="M98.33,108.49v1.32h-.81a2.26,2.26,0,0,1-1.56-.49,2.14,2.14,0,0,1-.54-1.64v-2.63h-.84v-1.3h.84v-1.5H97v1.5h1.35v1.3H97v2.65a.83.83,0,0,0,.17.61.8.8,0,0,0,.59.18Z" transform="translate(0)" style="fill:url(#je)"/><path d="M105.09,107.08h-4.45a1.71,1.71,0,0,0,.44,1.19,1.44,1.44,0,0,0,1,.38,1.49,1.49,0,0,0,.89-.26,1.13,1.13,0,0,0,.45-.71h1.64a2.82,2.82,0,0,1-.52,1.14,2.72,2.72,0,0,1-1,.78,3.43,3.43,0,0,1-3-.09,2.59,2.59,0,0,1-1.07-1.08,3.33,3.33,0,0,1-.39-1.65,3.37,3.37,0,0,1,.39-1.66,2.59,2.59,0,0,1,1.07-1.08,3.54,3.54,0,0,1,3.15,0,2.71,2.71,0,0,1,1,1,3,3,0,0,1,.36,1.48A3.74,3.74,0,0,1,105.09,107.08Zm-1.89-1.81a1.47,1.47,0,0,0-1-.38,1.51,1.51,0,0,0-1,.38,1.58,1.58,0,0,0-.47,1.13h3A1.36,1.36,0,0,0,103.2,105.27Z" transform="translate(0)" style="fill:url(#je)"/><path d="M108.68,104a2.37,2.37,0,0,1,1.24-.33v1.65h-.44c-1.14,0-1.7.53-1.7,1.58v2.92h-1.54v-6.06h1.54v1.16A2.48,2.48,0,0,1,108.68,104Z" transform="translate(0)" style="fill:url(#je)"/><path d="M114.64,104.23a2.39,2.39,0,0,1,.83,1.49H114a1.22,1.22,0,0,0-.39-.7,1.17,1.17,0,0,0-.8-.27,1,1,0,0,0-.62.19.64.64,0,0,0-.22.5.51.51,0,0,0,.18.41,1.32,1.32,0,0,0,.44.24q.25.09.75.21a8.14,8.14,0,0,1,1.13.32,1.84,1.84,0,0,1,.74.54,1.45,1.45,0,0,1,.31,1,1.52,1.52,0,0,1-.61,1.26,2.55,2.55,0,0,1-1.63.48,3.15,3.15,0,0,1-1.9-.53,2.25,2.25,0,0,1-.86-1.52H112a1,1,0,0,0,.39.71,1.44,1.44,0,0,0,.89.25.85.85,0,0,0,.6-.19.62.62,0,0,0,.21-.49.55.55,0,0,0-.18-.43,1.22,1.22,0,0,0-.45-.25c-.18-.06-.43-.13-.76-.21a8.81,8.81,0,0,1-1.1-.31,1.79,1.79,0,0,1-.73-.51,1.46,1.46,0,0,1-.3-1,1.59,1.59,0,0,1,.6-1.28,2.58,2.58,0,0,1,1.67-.49A2.66,2.66,0,0,1,114.64,104.23Z" transform="translate(0)" style="fill:url(#je)"/></svg>