<svg xmlns="http://www.w3.org/2000/svg" xmlns:xlink="http://www.w3.org/1999/xlink" viewBox="0 0 29.24 29.24"><defs><style>.cls-1{fill:url(#linear-gradient);}.cls-2{fill:#fff;}</style><linearGradient id="linear-gradient" x1="4.28" y1="4.28" x2="24.96" y2="24.96" gradientUnits="userSpaceOnUse"><stop offset="0" stop-color="#4676ed"/><stop offset="0.19" stop-color="#436de4"/><stop offset="0.49" stop-color="#3c55cd"/><stop offset="0.87" stop-color="#302ea8"/><stop offset="1" stop-color="#2b1e99"/></linearGradient></defs><title>facebook_logoAsset 1</title><g id="Layer_2" data-name="Layer 2"><g id="ELEMENTS"><path class="cls-1" d="M29.24,14.62a14.62,14.62,0,1,0-16.9,14.45V18.85H8.62V14.62h3.72V11.4c0-3.66,2.18-5.69,5.52-5.69A22.08,22.08,0,0,1,21.13,6V9.6H19.29a2.11,2.11,0,0,0-2.38,2.28v2.74H21l-.65,4.23h-3.4V29.07A14.63,14.63,0,0,0,29.24,14.62Z"/><path class="cls-2" d="M20.31,18.85,21,14.62H16.91V11.88A2.11,2.11,0,0,1,19.29,9.6h1.84V6a22.08,22.08,0,0,0-3.27-.29c-3.34,0-5.52,2-5.52,5.69v3.22H8.62v4.23h3.72V29.07a15.48,15.48,0,0,0,2.28.17,15.72,15.72,0,0,0,2.29-.17V18.85Z"/></g></g></svg>