<svg xmlns="http://www.w3.org/2000/svg" xmlns:xlink="http://www.w3.org/1999/xlink" viewBox="0 0 29.24 29.24"><defs><style>.cls-1{fill:url(#Degradado_sin_nombre_10);}.cls-2{fill:#fff;}</style><linearGradient id="Degradado_sin_nombre_10" x1="24.96" y1="4.28" x2="4.28" y2="24.96" gradientUnits="userSpaceOnUse"><stop offset="0" stop-color="#007ab5"/><stop offset="1" stop-color="#0046e5"/></linearGradient></defs><title>linkedin_logoAsset 7</title><g id="Layer_2" data-name="Layer 2"><g id="ELEMENTS"><circle class="cls-1" cx="14.62" cy="14.62" r="14.62"/><path class="cls-2" d="M8.49,11.9h2.83V21H8.49ZM9.91,7.38A1.64,1.64,0,1,1,8.26,9,1.64,1.64,0,0,1,9.91,7.38"/><path class="cls-2" d="M13.1,11.9h2.71v1.24h0a3,3,0,0,1,2.67-1.47c2.87,0,3.39,1.89,3.39,4.34v5H19.09V16.57c0-1.05,0-2.41-1.47-2.41s-1.7,1.15-1.7,2.34V21H13.1Z"/></g></g></svg>