<svg xmlns="http://www.w3.org/2000/svg" viewBox="0 0 200 200"><defs><style>.cls-1{fill:#e6e7e8;}.cls-2{fill:#ededc7;}.cls-3{fill:#00572f;}.cls-4{font-size:17px;fill:#8ca759;font-family:Poppins-Black, Poppins;font-weight:800;}.cls-5{font-size:18.14px;fill:#135730;font-family:Poppins-Regular, Poppins;}.cls-6{font-size:6.8px;font-family:QuicksandLight-Regular, Quicksand;letter-spacing:0.13em;}.cls-10,.cls-6{fill:#7fa953;}.cls-7{letter-spacing:0.09em;}.cls-8{letter-spacing:0.11em;}.cls-9{letter-spacing:0.14em;}</style></defs><title>prime_charters_itl_logo</title><g id="Layer_1" data-name="Layer 1"><rect class="cls-1" width="200" height="200"/></g><g id="Layer_2" data-name="Layer 2"><path class="cls-2" d="M94.42,131.22a49.12,49.12,0,0,1,11.68.26L131,134c6.88.7,14.63,1.15,19.86-3.38,3.32-2.88,4.93-7.26,5.86-11.55,1.18-5.48,1.42-11.37-.74-16.55a24.21,24.21,0,0,0-9.4-10.67,51.89,51.89,0,0,0-13.21-5.71,123.43,123.43,0,0,0-30-5.22c-6.12-.29-12.6,0-17.83,3.17C79.16,88,75.92,95.54,74.9,102.91a45.62,45.62,0,0,0,3,23.28c.78,1.91,3.55,9.46,5.88,9.72,1.2.14,3.43-2.31,4.57-2.88A19.26,19.26,0,0,1,94.42,131.22Z" transform="translate(0 0)"/><path class="cls-3" d="M87.89,55.38c-9.28.41-17.52,5-22.24,12.95a28.57,28.57,0,0,0-1,26.72c-.2,2.31-.28,4.64-.26,7a41.63,41.63,0,0,0-2.91-5.91,25.29,25.29,0,0,0-29.58-20c3.2.8,5.2,4.41,6.14,7.57s1.22,6.56,2.73,9.49a16.18,16.18,0,0,0,7.68,6.9,40,40,0,0,0,10.1,2.81c-3.21-9.72-10-18.59-18.93-23.62a47.2,47.2,0,0,1,22.34,21h0a55.91,55.91,0,0,1,2.73,8,81.34,81.34,0,0,0,12.38,36.38,14.81,14.81,0,0,1,3.4-6.16c-1.18-1.78-2.4-3.61-3.66-5.33-3.25-4.42-5.14-9.68-6.61-15-2.6-9.33-4-19.12-2.83-28.73s5.1-19.18,12.13-25.85A60.51,60.51,0,0,0,70,95.47C76.5,92,82.92,84,83.51,76.66c.3-3.77-.38-7.56-.2-11.34S84.75,57.49,87.89,55.38Z" transform="translate(0 0)"/><text class="cls-4" transform="translate(81.81 103.49)">PRIME</text><text class="cls-5" transform="translate(79.32 120.69)">CHARTERS</text><text class="cls-6" transform="translate(84.48 128.66)">In<tspan class="cls-7" x="8.01" y="0">t</tspan><tspan class="cls-8" x="11.34" y="0">e</tspan><tspan x="16.23" y="0">rnation</tspan><tspan class="cls-9" x="46.83" y="0">a</tspan><tspan x="52.02" y="0">l</tspan></text><path class="cls-3" d="M162.6,108.54a6.05,6.05,0,0,0-.59-6,7.55,7.55,0,0,0-5.34-3.09,6.21,6.21,0,0,0-3.67.75,2.15,2.15,0,0,1,2.11,1.11,5.7,5.7,0,0,1,.63,2.44,7.73,7.73,0,0,0,.47,2.48,4.45,4.45,0,0,0,1.9,2,11.24,11.24,0,0,0,3.25.93,11.85,11.85,0,0,0-4.8-8.16A10.36,10.36,0,0,1,162.6,108.54Z" transform="translate(0 0)"/><path class="cls-3" d="M164.34,110a3.28,3.28,0,0,0,3-1.35,4.22,4.22,0,0,0,.66-3.33,3.43,3.43,0,0,0-1-1.78,1.17,1.17,0,0,1-.2,1.29,3,3,0,0,1-1.15.75,4.38,4.38,0,0,0-1.19.68,2.47,2.47,0,0,0-.71,1.34,6.45,6.45,0,0,0,.09,1.86,6.42,6.42,0,0,0,3.36-3.92A5.68,5.68,0,0,1,164.34,110Z" transform="translate(0 0)"/><path class="cls-10" d="M86.18,139.18a9.89,9.89,0,0,1,3.52-3.52,15.11,15.11,0,0,1,4.78-1.84,27.1,27.1,0,0,1,5-.5c1.67,0,3.3.05,5,.12,6.56.34,13,1.31,19.36,2.07a104.18,104.18,0,0,0,18.95,1,22.05,22.05,0,0,0,8.87-1.92,10.49,10.49,0,0,0,3.48-2.82,8.29,8.29,0,0,0,1.81-4.29,7.88,7.88,0,0,1-.8,4.92,11.4,11.4,0,0,1-3.37,4,16.61,16.61,0,0,1-4.66,2.35,30.4,30.4,0,0,1-5,1.15,71.56,71.56,0,0,1-19.83-.07c-6.51-.79-12.86-2-19.19-3a53.41,53.41,0,0,0-9.4-.88A12.69,12.69,0,0,0,86.18,139.18Z" transform="translate(0 0)"/></g></svg>