<svg xmlns="http://www.w3.org/2000/svg" xmlns:xlink="http://www.w3.org/1999/xlink" viewBox="0 0 29.24 29.24"><defs><style>.cls-1{fill:url(#Degradado_sin_nombre_4);}.cls-2{fill:#fff;}</style><linearGradient id="Degradado_sin_nombre_4" x1="24.96" y1="4.28" x2="4.28" y2="24.96" gradientUnits="userSpaceOnUse"><stop offset="0" stop-color="#3cf"/><stop offset="1" stop-color="#337fff"/></linearGradient></defs><title>twitter_logAsset 3</title><g id="Layer_2" data-name="Layer 2"><g id="ELEMENTS"><circle class="cls-1" cx="14.62" cy="14.62" r="14.62"/><path class="cls-2" d="M22.7,9.61a6.57,6.57,0,0,1-1.61.46c.26,0,.64-.51.79-.7a3,3,0,0,0,.54-1s0-.06,0-.08a.06.06,0,0,0-.08,0,8.55,8.55,0,0,1-1.92.73.13.13,0,0,1-.13,0l-.16-.17a3.58,3.58,0,0,0-.93-.57A3.29,3.29,0,0,0,17.77,8a3.56,3.56,0,0,0-1.35.39,3.44,3.44,0,0,0-1.09.88,3.54,3.54,0,0,0-.65,1.3,3.56,3.56,0,0,0,0,1.38c0,.07,0,.08-.07.07A10.24,10.24,0,0,1,8,8.72c-.07-.09-.11-.09-.18,0a3.32,3.32,0,0,0,.57,3.93c.13.12.26.25.4.36a3.31,3.31,0,0,1-1.26-.36c-.08-.05-.12,0-.13.07a2.64,2.64,0,0,0,0,.38,3.35,3.35,0,0,0,2.07,2.68,1.57,1.57,0,0,0,.42.13,3.51,3.51,0,0,1-1.24,0c-.09,0-.13,0-.09.11a3.51,3.51,0,0,0,2.61,2.19c.12,0,.24,0,.36,0l0,0a4.19,4.19,0,0,1-1.79,1,6.4,6.4,0,0,1-2.71.34c-.14,0-.17,0-.21,0s0,.06,0,.1.37.23.56.34a9.11,9.11,0,0,0,1.81.72,9.64,9.64,0,0,0,9.37-2.19,9.83,9.83,0,0,0,2.59-7.17c0-.1.12-.16.2-.22a6.12,6.12,0,0,0,1.27-1.32.44.44,0,0,0,.09-.25v0S22.76,9.58,22.7,9.61Z"/></g></g></svg>