<svg xmlns="http://www.w3.org/2000/svg" xmlns:xlink="http://www.w3.org/1999/xlink" viewBox="0 0 29.24 29.24"><defs><style>.cls-1{fill:url(#Degradado_sin_nombre_8);}.cls-2,.cls-3{fill:#fff;}.cls-3{fill-rule:evenodd;}</style><linearGradient id="Degradado_sin_nombre_8" x1="24.96" y1="4.28" x2="4.28" y2="24.96" gradientTransform="translate(6.71 -4.48) rotate(22.5)" gradientUnits="userSpaceOnUse"><stop offset="0" stop-color="#60fc7c"/><stop offset="1" stop-color="#4ab161"/></linearGradient></defs><title>whatsapp_logoAsset 6</title><g id="Layer_2" data-name="Layer 2"><g id="ELEMENTS"><circle class="cls-1" cx="14.62" cy="14.62" r="14.62" transform="translate(-4.48 6.71) rotate(-22.5)"/><path class="cls-2" d="M6.72,22.9l1.22-4.55a8.42,8.42,0,1,1,3.35,3.32ZM11.52,20l.29.17a6.85,6.85,0,1,0-2.34-2.32l.18.29L9,20.65Z"/><path class="cls-3" d="M18.41,15.46a1.39,1.39,0,0,0-1.2-.27c-.32.12-.51.61-.72.86a.3.3,0,0,1-.38.09,5.4,5.4,0,0,1-2.72-2.33.34.34,0,0,1,0-.46,1.85,1.85,0,0,0,.49-.8,1.69,1.69,0,0,0-.22-1,2.24,2.24,0,0,0-.7-1,1,1,0,0,0-1,.15,2.12,2.12,0,0,0-.73,1.68,2.33,2.33,0,0,0,.06.53,4.26,4.26,0,0,0,.51,1.18c.17.28.34.55.53.81A8.17,8.17,0,0,0,14.65,17a6.82,6.82,0,0,0,1.44.69,3.11,3.11,0,0,0,1.67.26,2,2,0,0,0,1.53-1.13,1,1,0,0,0,.07-.58C19.27,15.89,18.73,15.65,18.41,15.46Z"/></g></g></svg>