<svg xmlns="http://www.w3.org/2000/svg" xmlns:xlink="http://www.w3.org/1999/xlink" viewBox="0 0 29.24 29.24"><defs><style>.cls-1{fill:url(#Degradado_sin_nombre_7);}.cls-2{fill:#fff;}</style><linearGradient id="Degradado_sin_nombre_7" x1="24.96" y1="4.28" x2="4.28" y2="24.96" gradientUnits="userSpaceOnUse"><stop offset="0" stop-color="red"/><stop offset="1" stop-color="#850000"/></linearGradient></defs><title>youtube_logoAsset 5</title><g id="Layer_2" data-name="Layer 2"><g id="ELEMENTS"><circle class="cls-1" cx="14.62" cy="14.62" r="14.62"/><path class="cls-2" d="M22.45,12.5A3.52,3.52,0,0,0,18.94,9H10A3.52,3.52,0,0,0,6.45,12.5v4.17A3.51,3.51,0,0,0,10,20.18h9a3.51,3.51,0,0,0,3.51-3.51Zm-5.28,2.4-4,2c-.15.08-.69,0-.69-.21V12.59c0-.18.54-.29.7-.2L17,14.48C17.16,14.58,17.33,14.81,17.17,14.9Z"/></g></g></svg>