<svg xmlns="http://www.w3.org/2000/svg" viewBox="0 0 32 32" xml:space="preserve"><path d="M29.9 17.5c-.2-.3-.5-.5-.9-.5-2.2 0-4.3 1-5.6 2.8l-.9 1.2c-1.1 1.3-2.8 2-4.5 2h-3c-.6 0-1-.4-1-1s.4-1 1-1h1.9c1.6 0 3.1-1.3 3.1-2.9V18c0-.5-.5-1-1-1h-6.1c-3.6 0-6.5 1.6-8.1 4.2l-2.7 4.2c-.2.3-.2.7 0 1l3 5c.1.2.4.4.6.5h.2c.2 0 .4-.1.6-.2 3.8-2.5 8.2-3.8 12.7-3.8 3.3 0 6.3-1.8 7.9-4.7l2.7-4.8c.2-.2.2-.6.1-.9M19 15c.9 0 1.8.5 2.3 1.1C23 14.1 25 11.2 25 8c0-3.9-3.1-7-7-7s-7 3.1-7 7c0 2.6 1.3 5.1 2.7 7zM18 5c1.7 0 3 1.3 3 3s-1.3 3-3 3-3-1.3-3-3 1.3-3 3-3"/></svg>