<svg width="800" height="800" viewBox="0 0 32 32" xmlns="http://www.w3.org/2000/svg"><path d="M7.337 17.762h-.013c-.412 0-.784.175-1.045.454l-.001.001a1.76 1.76 0 0 0-.456 1.497l-.001-.01c.034.091.087.117.125.122.08.01.2-.049.275-.25l.021-.065c.05-.176.117-.329.201-.471l-.005.009a.86.86 0 0 1 1.197-.247l-.003-.002a.84.84 0 0 1 .316 1.017l.002-.006c-.105.259-.166.56-.166.875v.027-.001l-.001.034c0 .461.349.84.796.888h.004l.063.003a.68.68 0 0 0 .579-.32l.002-.003a.14.14 0 0 0-.014-.156c-.054-.066-.141-.046-.225-.026a.7.7 0 0 1-.2.027h-.012a.43.43 0 0 1-.354-.184l-.001-.001a.69.69 0 0 1 .018-.633l-.002.003q.021-.052.05-.115a1.86 1.86 0 0 0 .133-1.659l.004.012a1.47 1.47 0 0 0-1.109-.811l-.008-.001a1 1 0 0 0-.172-.012h-.001zm.088-1.158q.09-.001.186.004a2.91 2.91 0 0 1 2.564 2.729v.007c.271 1.762-.16 3.553-1.811 3.835a2.5 2.5 0 0 1-.409.033l-.062-.001h.003a3.65 3.65 0 0 1-3.334-3.021l-.003-.021a3.01 3.01 0 0 1 2.348-3.51l.019-.003c.149-.031.32-.05.496-.052zm14.54-.03-.03-.001a.38.38 0 0 0-.323.184l-.001.002a.56.56 0 0 0 .957.47.48.48 0 0 0-.304-.583l-.003-.001a.7.7 0 0 0-.296-.072zm-2.825-.5h-.008q-.098 0-.193.011l.008-.001a1.4 1.4 0 0 0-.744.311l.003-.002a.48.48 0 0 0-.189.293l-.001.003v.001c0 .052.042.094.094.094q.16-.024.293-.082l-.008.003c.259-.101.559-.159.873-.159q.2 0 .392.031l-.014-.002c.196.022.287.034.331-.032a.1.1 0 0 0 .014-.053.12.12 0 0 0-.026-.072 1.06 1.06 0 0 0-.782-.345l-.045.001zm4.474-.215c-.214-.004-.391.232-.396.525-.005.295.164.537.379.54s.392-.231.397-.525-.165-.536-.38-.54m-5.101-1.012h-.009c-.474 0-.911.153-1.267.412l.006-.004c-.2.146-.389.35-.362.472.01.04.039.07.11.079.371-.111.844-.22 1.326-.302l.076-.011.079-.001c.391 0 .761.093 1.088.258l-.014-.006c.299.13.482.216.554.141.046-.047.032-.137-.039-.255a1.76 1.76 0 0 0-.761-.617l-.012-.004a1.95 1.95 0 0 0-.775-.161zm4.574-1.932-.078.007h.003c-.419.067-.434.585-.285 1.3.068.363.208.685.405.964l-.005-.008a2.5 2.5 0 0 1 .635.001l-.012-.001a2.13 2.13 0 0 0 .027-1.192l.003.015c-.14-.669-.326-1.09-.692-1.085zm-.028-2.725.07.001c.213.009.409.076.574.185l-.004-.003c.667.444.762 1.52.797 2.306.019.45.074 1.536.092 1.847.042.714.23.814.609.938.212.071.412.122.704.205a4 4 0 0 1 1.744.828l-.007-.006c.165.162.279.376.315.615l.001.006c.104.76-.59 1.7-2.427 2.551a12.15 12.15 0 0 1-4.951 1.037q-.622 0-1.229-.06l.051.004-.589-.066c-1.347-.181-2.116 1.558-1.307 2.75a4.27 4.27 0 0 0 3.373 1.267l-.014.001a8.82 8.82 0 0 0 6.685-2.589 1 1 0 0 0 .072-.101l.003-.005c.045-.069.008-.106-.05-.067a11.4 11.4 0 0 1-6.527 2.028q-.646 0-1.272-.07l.052.005a5 5 0 0 1-.872-.238l.033.011c-.319-.125-.985-.43-1.066-1.113a6.9 6.9 0 0 0 2.443.437c.826 0 1.619-.142 2.356-.403l-.049.015a.09.09 0 0 0 .053-.082v-.008a.083.083 0 0 0-.083-.075l-.009.001a10.7 10.7 0 0 1-4.722-.494l.075.022c.246-.8.9-.51 1.887-.431a13.8 13.8 0 0 0 4.655-.517l-.097.024a10.4 10.4 0 0 0 3.434-1.713l-.026.019c.209.469.374 1.014.469 1.583l.006.04a.78.78 0 0 1 .504.093l-.004-.002c.216.132.374.407.266 1.118a6.2 6.2 0 0 1-1.733 3.399 7.2 7.2 0 0 1-2.041 1.536l-.041.019c-.381.206-.83.401-1.297.557l-.062.018a6.6 6.6 0 0 1-2.597.525 6.69 6.69 0 0 1-5.807-3.366l-.017-.033a4 4 0 0 1-.229-.621l-.008-.031a5.6 5.6 0 0 1-.212-1.542c0-1.475.559-2.82 1.476-3.835l-.004.005a.5.5 0 0 0 .165-.318v-.002a.56.56 0 0 0-.128-.305l.001.001a4.96 4.96 0 0 1-1.76-4.08l-.001.013a3.05 3.05 0 0 1 2.941-2.668h.004q.166.008.332.019c.566.034 1.062.106 1.528.125a3.04 3.04 0 0 0 2.319-.775l-.003.002c.235-.242.536-.419.875-.499l.012-.002a1 1 0 0 1 .265-.035zm-3.777-4.005h.002c.029 0 .052.023.052.052a.05.05 0 0 1-.019.04 2.8 2.8 0 0 0-.511.511l-.005.007a.05.05 0 0 0-.01.03.05.05 0 0 0 .049.05 6.4 6.4 0 0 1 2.774.734l-.035-.017c.051.029.015.129-.043.115a11 11 0 0 0-2.453-.273c-.889 0-1.754.104-2.584.301l.076-.015c-1.533.353-2.882.97-4.065 1.806l.036-.024a.05.05 0 0 1-.03.01.051.051 0 0 1-.039-.084 13.4 13.4 0 0 1 3.665-3.015l.067-.035a.048.048 0 0 1 .065.065c-.141.244-.26.525-.341.822l-.006.025-.001.01c0 .028.023.051.051.051q.015 0 .028-.009a7.2 7.2 0 0 1 3.246-1.155l.031-.003zm-4.107-4.09h.02q.3 0 .577.076l-.015-.004a9 9 0 0 1 1.587 1.514l.013.016a32 32 0 0 0-4.454 3.075l.055-.044a20.06 20.06 0 0 0-6.25 8.711l-.044.139a3.9 3.9 0 0 0-2.445 1.554l-.008.012a6.8 6.8 0 0 1-1.034-.994l-.008-.01c-.872-1.657.951-4.876 2.226-6.694 2.902-4.143 7.32-7.358 9.782-7.35zm-.091-1.091C9.491.985-1.27 13.808 2.75 17.204l.987.836a4.8 4.8 0 0 0-.306 1.694q0 .289.033.568l-.002-.023a4.42 4.42 0 0 0 1.518 2.827l.006.005a4.62 4.62 0 0 0 2.982 1.204h.007c1.855 3.971 5.815 6.673 10.407 6.673h.077-.004a11.06 11.06 0 0 0 11.036-6.407l.028-.069a8.7 8.7 0 0 0 .609-2.812l.001-.021c0-1.195-.675-1.69-1.106-1.69a19 19 0 0 0-.215-.732 6 6 0 0 0-.252-.673l.015.036a2.3 2.3 0 0 0 .413-1.7l.002.013a2.14 2.14 0 0 0-.619-1.204 5 5 0 0 0-2.157-1.078l-.034-.006-.557-.155c-.003-.024-.03-1.316-.054-1.871a6.5 6.5 0 0 0-.258-1.689l.011.045a4.4 4.4 0 0 0-1.139-2.034l.001.001a6.9 6.9 0 0 0 2.251-4.356l.003-.032c-.004-2.618-3.219-3.41-7.18-1.769l-.84.356q-.769-.755-1.54-1.508a2.64 2.64 0 0 0-1.717-.631l-.077.001h.004z"/></svg>