<svg width="311" height="370" viewBox="0 0 311 370" fill="none" xmlns="http://www.w3.org/2000/svg">
<path d="M180.859 99.5291C180.921 100.62 181.014 101.742 181.449 102.771C182.163 104.392 183.467 105.514 185.174 105.919C186.788 106.293 188.558 105.545 189.551 104.236C190.265 103.27 190.638 102.023 190.7 100.838C190.731 100.059 190.762 99.2797 190.731 98.4692C190.917 97.3471 191.01 96.1938 190.979 95.0404C190.948 93.7001 190.731 92.2039 190.172 91.0194C189.924 90.4895 189.582 90.0219 189.21 89.6167L188.993 89.2738C188.061 88.027 186.509 87.2477 184.926 87.5282C183.343 87.8399 182.194 88.9309 181.511 90.3648C180.456 92.4844 180.362 95.2898 180.549 97.6276C180.642 98.2199 180.735 98.8745 180.859 99.5291Z" fill="#242647"/>
<path d="M117.282 89.5855L117.065 89.2426C116.134 87.9958 114.581 87.2165 112.998 87.497C111.415 87.8087 110.266 88.8997 109.583 90.3336C108.528 92.4532 108.435 95.2586 108.621 97.5964C108.683 98.2199 108.745 98.8745 108.9 99.529C108.963 100.62 109.056 101.742 109.49 102.771C110.204 104.392 111.508 105.514 113.215 105.919C114.83 106.293 116.599 105.545 117.593 104.236C118.307 103.27 118.679 102.023 118.741 100.838C118.772 100.059 118.803 99.2797 118.772 98.4692C118.958 97.3471 119.052 96.1937 119.021 95.0404C118.99 93.7001 118.772 92.2039 118.213 91.0194C117.996 90.4583 117.655 89.9907 117.282 89.5855Z" fill="#242647"/>
<path d="M150.561 126.928C154.1 127.053 157.701 126.367 160.805 124.622C163.382 123.188 167.045 121.224 167.728 118.107C167.883 117.452 167.262 117.047 166.703 117.047C165.244 117.047 164.096 117.702 162.792 118.356C161.55 118.949 160.277 119.447 158.943 119.79C156.49 120.445 153.976 120.975 151.43 120.912C149.102 120.85 146.773 120.227 144.725 119.136C142.645 118.013 141.465 116.393 139.975 114.678C137.802 112.216 133.425 114.398 134.822 117.639C136.126 120.694 139.137 123.001 141.931 124.528C144.538 125.993 147.581 126.804 150.561 126.928Z" fill="#242647"/>
<path d="M303.698 24.4381C298.079 39.1508 292.771 53.957 287.68 68.8568C285.165 76.2132 282.775 83.6007 280.447 91.0194C278.367 97.6276 275.852 104.361 274.859 111.281C270.326 112.247 266.601 115.395 263.745 119.167C259.244 125.152 255.612 131.916 251.669 138.275C247.509 144.945 243.381 151.647 239.252 158.318C237.234 161.591 235.247 164.832 233.229 168.105C231.988 170.131 229.535 176.366 226.71 175.96C224.475 175.649 221.961 174.34 219.788 173.623C217.894 172.968 216 172.313 214.107 171.659L201.596 167.357C195.853 165.393 190.234 163.118 184.367 162.214C194.239 158.099 203.242 152.738 211.002 146.254C229.504 130.887 241.146 109.379 241.146 85.5333C241.146 61.6875 229.504 40.1794 211.002 24.8121C192.5 9.41365 167.107 0 139.106 0C111.105 0 85.711 9.41365 67.2091 24.8121C48.7072 40.1794 37.0659 61.6875 37.0659 85.5333C37.0659 109.379 48.7072 130.887 67.2091 146.254C76.46 153.954 87.4184 160.126 99.5564 164.427C95.8001 167.825 92.2922 171.752 88.8464 175.181C83.4138 180.574 78.0122 186.06 72.6106 191.484C70.034 194.071 67.4885 196.627 64.9118 199.214C64.6635 199.463 63.5459 200.523 62.7078 201.271L62.3042 200.773C61.5592 199.837 60.8141 198.902 60.1001 197.936C55.5367 192.138 50.8181 186.434 46.1926 180.698C38.1834 170.786 28.9946 157.881 14.5594 159.253C3.78728 160.281 -4.8428 173.436 3.19745 182.662C7.07789 187.088 13.1624 188.803 18.8434 189.146C26.2317 189.582 33.5269 188.491 40.5427 186.091C44.268 190.704 48.0242 195.318 51.7805 199.962C54.6054 203.453 59.2619 211.869 64.7566 208.815C66.9607 207.599 68.7302 204.794 70.4686 202.986C72.859 200.523 75.2183 198.03 77.6086 195.567C82.7929 190.174 87.9771 184.813 93.1304 179.389C96.5451 175.773 100.457 172.126 103.84 168.199C99.1217 178.735 95.9553 190.05 93.3787 201.24C90.4917 213.771 88.567 226.551 87.6357 239.362C86.1766 259.499 87.3563 283.812 109.118 292.447C114.147 294.441 119.455 295.408 124.826 295.844C124.143 299.647 123.988 303.575 123.708 307.409C123.367 312.645 123.118 317.913 122.839 323.15C122.311 332.657 121.783 342.133 121.225 351.609C112.595 348.399 103.53 345.718 94.31 346.559C86.9527 347.245 73.4488 352.357 77.3603 362.332C80.744 370.935 95.024 370.281 102.381 369.657C107.597 369.221 112.781 367.974 117.686 366.104C121.815 364.545 127.154 362.8 127.154 357.687C127.309 357.376 127.433 357.033 127.433 356.628C127.899 345.718 128.334 334.777 128.83 323.867C129.048 318.599 129.358 313.362 129.513 308.094C129.637 304.167 129.917 300.083 129.575 296.094C133.021 296.218 136.467 296.218 139.882 296.187C148.853 296.125 157.856 295.844 166.734 294.66C165.989 298.868 165.958 303.419 165.555 307.502C164.996 313.269 164.499 319.067 163.878 324.833C162.637 336.585 161.147 348.305 159.439 359.994C159.16 361.833 160.557 363.236 162.233 363.579C171.205 365.574 181.014 366.571 190.141 364.95C197.188 363.672 205.88 359.745 206.812 351.64C207.184 348.243 205.446 344.939 202.279 343.598C198.616 342.04 193.96 342.975 190.172 343.473C185.298 344.097 180.487 345.001 175.737 346.248C173.098 346.933 170.087 347.526 167.448 348.648C168.442 340.98 169.342 333.281 170.118 325.581C170.677 319.815 171.236 314.017 171.639 308.219C171.95 303.668 172.726 298.463 172.322 293.756C173.378 293.569 174.402 293.382 175.458 293.163C185.888 290.982 197.809 287.272 205.911 280.009C214.79 272.03 213.61 260.434 210.288 250.023C205.787 235.778 200.106 221.875 194.86 207.88C189.644 193.946 184.398 180.013 179.183 166.079C185.143 167.295 191.01 169.851 196.66 171.846C203.086 174.121 209.481 176.428 215.907 178.703C220.998 180.511 227.735 184.47 232.609 180.293C234.564 178.61 235.806 176.085 237.141 173.934L242.915 164.708C246.92 158.286 250.893 151.865 254.867 145.444C259.585 147.564 265.515 146.722 270.264 145.163C275.418 143.449 280.105 140.207 283.582 136.03C287.059 131.822 289.698 125.993 289.108 120.414C288.58 115.239 284.575 111.779 279.702 111.062C282.402 105.171 284.141 98.781 286.221 92.6714C288.735 85.3151 291.281 77.9899 293.857 70.6647C298.98 56.0143 304.35 41.4263 309.907 26.9318C311.273 22.973 305.219 20.4794 303.698 24.4381ZM20.2093 182.101C16.2978 181.914 11.2067 181.259 8.53693 177.987C5.64989 174.402 8.28858 169.446 11.9517 167.669C16.8566 165.331 22.7548 167.794 26.7284 170.848C30.1432 173.498 32.9992 176.802 35.7 180.2C30.702 181.634 25.4556 182.382 20.2093 182.101ZM119.362 358.062C118.555 358.467 117.748 358.81 116.941 359.184C115.295 359.869 113.65 360.493 111.943 361.023C108.497 362.083 104.896 362.737 101.295 363.049C98.3457 363.298 83.1033 364.171 83.3517 359.059C83.5069 356.222 88.3186 354.633 90.4296 354.072C93.9064 353.105 97.5385 352.981 101.14 353.324C107.472 353.916 113.526 355.88 119.486 358.03L119.362 358.062ZM44.4232 85.5333C44.4232 64.1811 54.7917 44.7616 71.8966 30.4853C89.0016 16.2713 112.781 7.35636 139.106 7.35636C165.462 7.35636 189.241 16.2401 206.315 30.4853C223.42 44.7304 233.788 64.15 233.788 85.5333C233.788 106.885 223.42 126.305 206.315 140.581C189.21 154.795 165.431 163.71 139.106 163.71C112.75 163.71 88.9705 154.826 71.8966 140.581C54.7917 126.336 44.4232 106.917 44.4232 85.5333ZM137.336 212.836C132.4 215.579 127.371 218.384 123.211 222.249C122.746 221.345 122.249 220.441 121.815 219.538C120.045 215.828 121.908 212.15 122.932 208.441C123.274 207.225 123.615 206.04 123.957 204.825C128.365 202.83 132.338 199.931 136.56 197.562C140.72 195.224 145.035 193.167 149.412 191.297C150.437 195.941 151.492 200.586 152.517 205.261C147.332 207.35 142.241 210.093 137.336 212.836ZM153.634 210.093C153.758 210.654 153.882 211.246 154.007 211.807C154.348 213.303 154.938 215.049 154.783 216.576C154.596 218.228 153.448 219.506 152.485 220.753C150.406 223.465 148.326 226.177 146.277 228.889C142.769 233.533 139.261 238.178 135.784 242.822C132.493 238.178 129.389 233.409 126.595 228.452C125.943 227.268 125.291 226.083 124.639 224.899C129.762 222.623 134.449 219.538 139.416 216.888C144.042 214.425 148.853 212.306 153.634 210.093ZM148.419 186.683C143.638 188.834 139.013 191.234 134.511 193.915C131.407 195.754 128.209 197.655 125.385 199.993C128.209 190.393 131.065 180.73 132.99 170.942C135.008 171.035 137.057 171.098 139.137 171.098C141.093 171.098 143.017 171.035 144.942 170.942C146.09 176.179 147.239 181.447 148.419 186.683ZM174.154 353.448C177.693 352.42 181.263 351.609 184.895 350.923C188.248 350.3 191.6 349.864 194.984 349.552C197.312 349.334 201.379 348.71 199.889 352.295C197.654 357.625 189.644 358.747 184.678 359.09C178.5 359.527 172.26 358.934 166.176 357.812C166.269 357.064 166.362 356.285 166.486 355.537C169.094 355.381 171.577 354.196 174.154 353.448ZM197.964 237.087C200.106 242.604 202.434 248.09 204.297 253.701C205.849 258.408 207.122 263.738 205.756 268.632C204.297 273.869 199.672 276.986 195.108 279.417C190.514 281.88 185.64 283.812 180.673 285.277C170.304 288.27 159.439 289.267 148.698 289.672C138.733 290.046 128.427 290.452 118.586 288.581C109.149 286.805 100.891 281.88 96.8245 272.84C92.9131 264.112 92.7578 254.075 93.2235 244.693C93.8444 231.445 95.5517 218.259 98.2836 205.292C100.984 192.356 105.113 179.888 108.869 167.233C115.109 168.853 121.597 169.976 128.272 170.568C123.305 183.816 119.952 197.842 116.071 211.402C115.109 214.737 114.643 217.574 115.916 220.909C117.251 224.338 119.145 227.704 120.914 230.915C124.608 237.554 128.737 243.944 133.239 250.085C134.449 251.737 136.995 251.644 138.205 250.054C142.831 243.976 147.456 237.897 152.082 231.819C155.993 226.676 161.767 221.283 160.836 214.27C159.874 206.944 157.639 199.619 156.024 192.419C154.379 185.094 152.765 177.768 151.12 170.474C158.197 169.789 165.058 168.479 171.639 166.64C171.67 166.89 171.701 167.108 171.794 167.357C180.487 190.611 188.993 213.958 197.964 237.087ZM281.471 118.481C283.675 120.507 282.682 124.248 281.75 126.648C279.888 131.511 276.007 135.532 271.382 137.838C266.85 140.114 262.69 140.238 258.033 140.051C260.268 136.467 262.503 132.882 264.708 129.266C267.377 124.965 270.42 118.762 275.759 117.452C277.622 117.016 280.012 117.141 281.471 118.481Z" fill="#242647"/>
</svg>
