<svg width="347" height="415" viewBox="0 0 347 415" fill="none" xmlns="http://www.w3.org/2000/svg">
<g clip-path="url(#clip0_4_194)">
<path d="M69.2528 114.553C67.3151 114.205 65.3386 115.172 64.176 116.72L63.9047 117.145C63.4009 117.648 63.0134 118.229 62.7034 118.886C62.0058 120.395 61.7345 122.252 61.6958 123.877C61.657 125.308 61.7733 126.74 62.0058 128.133C62.0058 129.1 62.0058 130.106 62.0446 131.073C62.1221 132.543 62.5871 134.091 63.4785 135.29C64.7186 136.915 66.9275 137.843 68.9427 137.379C71.0742 136.876 72.7406 135.483 73.5932 133.472C74.1357 132.195 74.252 130.802 74.3295 129.448C74.4845 128.636 74.6007 127.823 74.6783 127.049C74.9495 124.187 74.7945 120.666 73.4769 118.035C72.6631 116.294 71.2292 114.902 69.2528 114.553Z" fill="#242647"/>
<path d="M158.812 137.379C160.944 136.876 162.61 135.483 163.463 133.472C164.005 132.195 164.122 130.802 164.199 129.448C164.354 128.636 164.47 127.823 164.548 127.05C164.819 124.187 164.664 120.666 163.347 118.035C162.455 116.294 161.06 114.902 159.084 114.515C157.146 114.167 155.17 115.134 154.007 116.681L153.736 117.107C153.232 117.61 152.844 118.19 152.534 118.848C151.837 120.357 151.565 122.214 151.527 123.838C151.488 125.27 151.604 126.701 151.837 128.094C151.837 129.061 151.837 130.067 151.875 131.034C151.953 132.504 152.418 134.052 153.309 135.251C154.588 136.915 156.758 137.843 158.812 137.379Z" fill="#242647"/>
<path d="M117.54 152.815C116.92 152.158 116.3 151.539 115.602 150.997C114.905 150.455 114.091 150.03 113.316 149.566L112.192 149.256C111.61 149.179 111.029 149.217 110.487 149.411C109.518 149.682 108.936 150.185 108.239 150.92L107.774 151.539C107.464 152.042 107.154 152.506 106.999 153.086C106.844 153.628 106.65 154.169 106.611 154.75C106.534 155.756 106.65 156.529 106.999 157.497C107.193 157.806 107.386 158.116 107.541 158.425C107.813 158.773 108.161 159.005 108.51 159.237C108.549 160.553 108.781 161.868 109.324 163.068C110.835 166.395 114.207 168.716 117.966 168.329C119.71 168.136 121.26 166.511 121.454 164.77C121.764 161.907 121.26 158.889 119.942 156.336C119.284 155.098 118.509 153.821 117.54 152.815Z" fill="#242647"/>
<path d="M251.395 19.8468C254.689 15.4751 257.673 10.9874 260.269 6.19011C261.122 4.64261 262.168 2.66956 261.006 1.006C260.347 0.116186 259.184 -0.193314 258.177 0.116186C257.208 0.386998 256.588 1.19943 256.045 2.01187C255.231 3.28855 254.611 4.71999 253.875 6.03536C253.255 7.19598 252.596 8.35661 251.976 9.51723C251.279 10.7939 250.659 11.8772 250 13.0378C249.225 14.3532 248.411 15.6685 247.597 16.9452C246.861 17.9898 246.899 19.4599 248.023 20.2723C249.031 21.0848 250.62 20.8526 251.395 19.8468Z" fill="#242647"/>
<path d="M258.719 29.7119C259.494 30.6017 260.657 30.7178 261.587 30.0601C265.307 27.5454 268.911 24.7986 271.973 21.5102C272.322 21.1233 272.709 20.7751 273.019 20.3496C273.562 19.5758 273.833 18.4152 273.446 17.5254C273.097 16.7516 272.361 16.3647 271.508 16.3647C271.12 16.3647 270.694 16.4421 270.307 16.5969L269.609 17.0224L269.183 17.448L269.26 17.3706C268.408 18.2217 267.478 19.0342 266.625 19.924L266.082 20.5043L265.85 20.7364L265.695 20.8912L265.54 21.0459L265.346 21.278L264.687 21.9357C262.905 23.638 261.044 25.3015 259.068 26.8104C258.215 27.468 257.983 28.8608 258.719 29.7119Z" fill="#242647"/>
<path d="M268.563 40.0801C272.089 40.3509 275.655 40.6604 279.22 40.7378C280.925 40.7765 282.669 40.8151 284.374 40.8538H284.8C285.537 41.8597 286.854 42.44 288.133 42.2079C289.722 41.8984 290.962 40.7765 291.544 39.3063C292.551 36.7917 290.846 34.393 288.598 33.4258C287.164 32.8069 285.614 33.0003 284.103 33.039C281.545 33.1163 278.949 33.1163 276.352 33.3098C273.717 33.5419 271.12 33.7353 268.485 33.9675C265.075 34.3157 265.114 39.848 268.563 40.0801Z" fill="#242647"/>
<path d="M6.47186 77.8005C7.67322 79.4254 8.95209 81.0116 10.3085 82.5204C11.7811 84.1453 13.3313 85.6928 14.9977 87.1242C16.7416 88.5943 18.9893 90.49 21.4308 90.1031C22.6709 89.9097 23.3297 88.8264 23.2522 87.6271C23.0972 85.4606 21.1207 83.7971 19.7256 82.3269C18.3692 80.8955 17.0128 79.4254 15.734 77.9166C14.4551 76.4465 13.2537 74.9376 12.1299 73.3515C11.5486 72.539 10.9673 71.6879 10.386 70.8755C10.0372 70.4112 9.72716 69.9083 9.30087 69.5214C8.56455 68.7863 7.75073 68.5155 6.78189 68.2834C5.07673 67.8965 3.83661 69.444 3.48783 70.8755C3.13905 72.3069 3.7591 73.5449 4.45667 74.7442C5.03797 75.8275 5.73554 76.8333 6.47186 77.8005Z" fill="#242647"/>
<path d="M5.23174 99.388C6.39435 99.6202 7.63447 99.7362 8.79708 99.7749C11.2773 99.891 13.7963 99.9297 16.2765 100.007C17.7104 100.046 19.2606 99.1946 19.3768 97.6084C19.4931 96.1383 18.5242 94.7069 16.9741 94.5134C14.4551 94.2426 11.9361 93.8944 9.41713 93.701C8.79708 93.6236 8.17702 93.6236 7.59571 93.6236C6.82064 93.5849 5.92931 93.4689 5.15423 93.6236C3.83661 93.8557 2.32522 94.3974 1.43389 95.4419C1.0076 95.9449 1.12386 96.6025 1.43389 97.1442C2.17021 98.3048 3.87537 99.1172 5.23174 99.388Z" fill="#242647"/>
<path d="M16.6641 111.459C16.3928 110.066 15.2689 109.331 13.9126 109.408C11.7424 109.524 9.57215 109.602 7.40195 109.718C6.16183 109.757 4.99922 109.757 3.79786 110.143C2.71276 110.453 1.62766 110.724 0.69757 111.42C-0.465039 112.271 4.25428e-06 113.857 1.12386 114.438C2.0927 114.941 3.33282 115.057 4.41792 115.173C5.65803 115.328 6.9369 115.095 8.17702 114.941L14.6489 114.244C15.889 114.09 16.8966 112.697 16.6641 111.459Z" fill="#242647"/>
<path d="M342.505 242.299C335.723 231.003 328.67 219.822 321.771 208.603C320.725 206.939 318.129 206.939 316.733 207.984C309.719 213.245 302.705 218.507 295.651 223.768C291.272 220.364 285.149 218.7 280.034 220.635L279.917 220.712C278.987 219.397 277.902 218.197 276.817 216.921C274.182 213.864 271.314 211.001 268.408 208.216C263.06 203.148 257.169 196.571 249.69 194.869C241.551 193.012 234.188 198.428 227.096 201.484C225.507 202.181 223.88 202.8 222.291 203.38C231.243 198.931 239.536 193.592 246.938 187.479C270.035 168.406 284.568 141.712 284.568 112.116C284.568 82.5204 270.035 55.8261 246.938 36.7532C223.841 17.6416 192.102 5.95801 157.185 5.95801C122.229 5.95801 90.5285 17.6416 67.4313 36.7532C44.3341 55.8261 29.8015 82.5204 29.8015 112.116C29.8015 141.712 44.3341 168.406 67.4313 187.479C82.3902 199.859 100.992 209.106 121.686 214.096C112.269 220.944 103.201 228.179 93.2025 234.291C87.4669 237.812 81.5376 241.023 75.4921 243.963C72.3143 245.511 69.1365 246.981 65.8812 248.373C62.1221 249.998 60.3782 249.689 56.8128 247.909C53.1312 246.052 49.4496 244.195 45.768 242.338C47.4732 231.351 39.4512 215.528 28.0964 213.284C22.9034 212.278 16.9741 213.903 13.7963 218.352C10.1147 223.536 11.5486 230.732 15.4627 235.413C20.0744 240.907 27.7476 243.731 33.9482 246.942C41.0788 250.579 48.2095 254.525 55.5339 257.658C62.0446 260.483 67.9739 256.266 73.7869 253.441C80.4138 250.23 86.8856 246.671 93.2025 242.88C103.24 236.806 113.471 230.036 122.268 221.989C116.377 244.273 114.866 268.297 116.183 290.968C116.881 303.193 117.54 317.044 122.423 328.456C122.927 329.617 123.508 330.7 124.128 331.706C120.059 334.878 116.648 339.095 113.471 343.003C109.014 348.419 104.867 354.106 101.108 360.025C94.2488 370.78 88.552 382.232 84.0954 394.148C75.9571 392.02 67.4313 391.594 59.138 393.49C55.534 394.302 51.0385 395.192 48.7521 398.403C46.6206 401.382 47.2019 405.29 49.3334 408.114C54.1001 414.381 63.8272 415.503 71.1517 414.923C79.3287 414.265 87.1957 410.628 93.0087 404.864C95.4889 402.388 93.6675 398.558 91.1485 398.055C95.3339 386.178 100.682 374.688 107.348 363.971C110.835 358.4 114.672 352.984 118.78 347.839C121.725 344.125 125.213 340.604 128.081 336.735C133.351 341.997 140.559 344.744 148.465 346.214C170.748 350.315 195.125 347.568 216.168 338.67C219.229 345.247 223.182 351.398 227.251 357.433C230.855 362.772 235.157 368.575 241.629 370.587C248.605 372.753 256.278 370.2 262.827 367.647C266.16 366.37 269.376 364.823 272.516 363.082C271.663 367.647 271.624 372.328 272.593 376.854C273.949 383.354 278.987 393.297 287.319 389.931C294.295 387.145 295.458 376.506 295.225 370.123C294.993 363.043 292.667 353.178 286.544 348.806C284.994 347.684 283.095 348.187 282.049 349.386C280.693 348.845 279.142 348.883 277.941 349.773C272.787 353.642 267.284 356.853 261.316 359.329C256.084 361.495 248.721 364.861 243.102 362.695C237.909 360.683 234.653 354.725 231.514 350.47C227.988 345.711 224.655 340.991 220.857 336.503C221.671 336.116 222.485 335.73 223.298 335.343C232.677 330.546 242.055 323.388 246.202 313.407C250.542 302.884 246.744 292.4 239.769 284.082C235.622 279.13 230.855 274.758 226.902 269.613C222.717 264.158 219.268 258.239 216.594 251.894C211.44 239.785 209.231 226.592 210.238 213.516C215.121 212.588 219.927 211.04 224.616 209.415C228.298 208.1 231.902 206.591 235.428 204.889C238.839 203.264 242.559 201.059 246.473 201.252C252.945 201.562 258.797 209.067 263.098 213.207C265.695 215.721 268.253 218.313 270.578 221.099C271.818 222.569 272.903 224.387 274.182 225.935C271.275 228.488 269.221 232.202 268.911 235.877C268.834 236.961 268.911 238.083 269.105 239.166C259.959 244.427 251.24 250.463 242.443 256.266C241.319 257.001 240.854 258.858 241.474 260.057C249.496 276.074 256.743 292.438 263.215 309.113C263.912 310.931 266.082 311.55 267.788 310.931C279.259 306.753 288.87 298.822 298.597 291.703C309.642 283.618 320.686 275.571 331.731 267.485C334.599 265.396 337.467 263.307 340.334 261.218C342.195 259.825 344.365 258.51 345.76 256.614C349.209 251.701 345.062 246.555 342.505 242.299ZM35.4596 237.27C30.7316 234.949 21.1595 232.009 20.2294 225.896C19.8031 223.111 21.7408 221.563 24.2985 221.254C27.1275 220.867 29.6078 222.182 31.5455 224.194C34.9558 227.676 37.6298 233.324 37.9786 238.547C37.1647 238.083 36.3121 237.657 35.4596 237.27ZM58.5955 405.909C57.6654 405.483 56.6191 404.98 55.9215 404.206C54.5651 402.736 54.9139 402.891 56.309 402.156C58.9055 400.802 62.7421 400.647 65.5711 400.376C71.8105 399.835 78.0498 400.531 84.0179 402.388C76.6934 407.417 66.8113 409.584 58.5955 405.909ZM283.289 356.505C285.033 359.755 286.854 362.811 287.474 366.796C288.133 371.013 288.25 378.131 285.421 381.69C282.243 385.675 280.111 372.405 280.034 370.858C279.84 365.79 281.119 360.992 283.289 356.505ZM38.8699 112.116C38.8699 85.6154 51.8136 61.5131 73.1668 43.7943C94.5201 26.1528 124.205 15.0882 157.107 15.0882C190.009 15.0882 219.694 26.1142 241.009 43.7943C262.362 61.4745 275.306 85.5767 275.306 112.116C275.306 138.617 262.362 162.719 241.009 180.438C219.656 198.08 189.97 209.144 157.107 209.144C124.205 209.144 94.5201 198.118 73.2056 180.438C51.8136 162.719 38.8699 138.617 38.8699 112.116ZM172.531 261.218C170.09 262.92 167.648 264.661 165.323 266.518C163.037 268.336 160.789 270.193 158.735 272.244C157.65 273.327 156.603 274.371 155.635 275.532C154.666 276.693 153.813 277.66 153.891 279.246L153.968 279.594C152.883 278.859 151.798 278.085 150.713 277.35C149.279 276.383 147.341 275.455 146.101 274.217C144.512 272.592 145.094 270.271 145.21 268.104C145.404 264.274 145.714 260.405 146.101 256.575C147.923 255.376 149.511 253.906 151.178 252.513C153.193 250.811 155.247 249.186 157.301 247.561C159.316 246.013 161.37 244.466 163.463 242.996C165.207 241.758 167.183 240.636 168.888 239.282C169.586 241.797 170.361 244.273 171.252 246.671C172.609 250.23 174.314 254.409 176.562 258.316C175.166 259.283 173.81 260.328 172.531 261.218ZM179.468 264.197L180.204 263.732C181.832 265.744 183.653 267.524 185.707 268.839C180.204 275.919 174.663 283.037 169.16 290.117C164.47 286.829 159.781 283.579 155.053 280.329C156.487 280.523 157.611 279.672 158.774 278.936C159.936 278.201 161.06 277.389 162.184 276.615C164.548 274.952 166.873 273.133 169.198 271.431C171.485 269.768 173.733 268.065 176.096 266.479C177.182 265.705 178.305 264.97 179.468 264.197ZM166.873 229.92C167.067 231.274 167.299 232.628 167.571 233.982L166.989 234.098C165.711 234.562 164.548 235.568 163.424 236.342C162.339 237.077 161.254 237.85 160.208 238.624C158.076 240.172 155.983 241.758 153.968 243.421C151.992 245.046 150.054 246.71 148.155 248.412C147.729 248.799 147.303 249.186 146.876 249.534C147.613 243.654 148.504 237.773 149.55 231.931C150.287 227.869 151.1 223.846 152.03 219.822C152.147 219.319 152.302 218.739 152.418 218.159C153.968 218.197 155.48 218.275 157.03 218.275C160.052 218.275 163.075 218.159 166.021 217.965C165.672 221.911 166.331 226.206 166.873 229.92ZM217.912 272.553C223.996 280.91 233.762 287.525 238.025 297.081C242.365 306.83 236.01 315.96 228.491 321.88C219.888 328.65 208.96 332.751 198.457 335.459C186.87 338.476 174.779 339.792 162.804 339.095C153.077 338.554 139.164 338.012 132.615 329.656C129.321 325.477 128.003 320.023 127.034 314.916C125.911 308.958 125.097 302.961 124.477 296.926C123.004 282.805 122.849 268.568 124.012 254.409C125.058 241.332 127.616 228.682 130.328 215.915C135.831 216.882 141.451 217.578 147.186 217.926C146.682 219.745 146.217 221.602 145.752 223.42C144.706 227.676 143.737 231.931 142.923 236.264C141.257 245.124 140.056 254.022 139.281 262.997C138.971 266.634 138.079 270.889 138.893 274.487C139.591 277.737 142.265 279.478 144.784 281.335C152.379 286.906 160.052 292.361 167.687 297.816C169.276 298.938 171.446 298.667 172.686 297.158C179.972 287.989 187.258 278.82 194.543 269.651C195.9 267.911 195.318 264.583 192.993 263.926C188.498 262.649 185.94 258.78 183.653 254.912C181.212 250.772 179.236 246.323 177.685 241.797C176.096 237.154 175.05 232.318 174.43 227.444C174.004 224.116 174.198 220.635 173.771 217.307C182.956 216.302 191.83 214.522 200.279 211.969C200.356 212.394 200.473 212.82 200.783 213.207C199.465 234.33 205.433 255.415 217.912 272.553ZM274.802 235.877C274.918 234.33 275.306 233.014 276.12 231.622C276.701 230.655 277.476 229.803 278.29 229.068C279.84 229.339 281.778 228.295 281.933 226.631L282.359 226.438C284.723 226.283 286.583 226.283 288.831 227.25C289.955 227.753 290.73 228.217 291.854 229.146L292.125 229.378C289.528 231.351 286.854 233.208 284.064 234.91C282.243 235.993 280.383 237.038 278.445 237.966C277.864 238.237 277.282 238.508 276.662 238.702C276.701 237.502 275.887 236.303 274.724 236.226V236.187L274.802 235.877ZM248.45 259.825C256.2 254.602 264.067 249.418 271.508 243.692C272.322 244.427 273.291 244.969 274.492 245.24C276.778 245.743 279.065 245.046 281.119 244.079C283.018 243.189 284.917 242.183 286.738 241.139C291.079 238.663 295.109 235.8 298.945 232.628C299.992 231.777 300.302 230.577 300.069 229.417C306.037 224.968 311.967 220.48 317.935 216.031C321.113 221.176 324.29 226.322 327.429 231.428C322.043 235.568 315.958 239.088 310.339 242.841C306.619 245.356 302.937 247.909 299.217 250.424C298.752 250.308 298.287 250.269 297.86 250.346C296.969 250.463 295.961 251.004 295.458 251.778L295.264 252.203C294.915 252.049 294.528 251.933 294.14 251.933C293.171 251.933 292.125 252.552 291.776 253.48C291.505 254.254 291.427 254.989 291.427 255.763C285.498 259.864 279.569 263.964 273.678 268.181C268.408 271.973 262.905 275.609 258.215 280.136C255.154 273.327 251.899 266.557 248.45 259.825ZM336.536 255.298C331.615 258.858 326.732 262.456 321.81 266.054C312.199 273.056 302.588 280.097 292.977 287.1C285.033 292.903 277.205 299.131 268.214 303.155C265.501 296.423 262.672 289.808 259.688 283.192C265.734 280.136 271.198 275.841 276.74 271.973C282.243 268.143 287.746 264.274 293.287 260.444C293.791 261.102 294.334 261.682 294.954 262.224C296.194 263.307 297.705 263.926 299.294 264.313C300.961 264.699 302.588 264.429 304.177 263.964L304.952 263.5C305.34 263.229 305.611 262.881 305.844 262.456C306.231 261.798 306.464 260.908 306.309 260.173C306.076 259.206 305.805 258.277 305.456 257.349C305.107 256.459 304.604 255.647 304.1 254.834C303.867 254.447 303.518 254.06 303.247 253.712C306.27 251.662 309.293 249.573 312.315 247.522C318.129 243.615 323.98 239.127 330.142 235.684L334.87 243.344C336.382 245.781 338.435 248.257 339.637 250.849C340.683 253.209 338.358 253.983 336.536 255.298Z" fill="#242647"/>
</g>
<defs>
<clipPath id="clip0_4_194">
<rect width="347" height="415" fill="white"/>
</clipPath>
</defs>
</svg>
