<svg xmlns="http://www.w3.org/2000/svg" viewBox="0 0 85.14 114.15"><defs><style>.cls-1{fill:#242647;}</style></defs><title>contact_me_doodleAsset 1</title><g id="Layer_2" data-name="Layer 2"><g id="OBJECTS"><path class="cls-1" d="M29.86,32.34a2.09,2.09,0,0,0,.37,1.09,1.4,1.4,0,0,0,1.42.54,1.73,1.73,0,0,0,1.2-1,3.09,3.09,0,0,0,.19-1c0-.21.07-.42.09-.62A4.63,4.63,0,0,0,32.82,29a1.6,1.6,0,0,0-1.1-.91,1.37,1.37,0,0,0-1.31.56l-.07.11a1.8,1.8,0,0,0-.31.45,3.59,3.59,0,0,0-.26,1.3,5.72,5.72,0,0,0,.08,1.09C29.85,31.84,29.85,32.09,29.86,32.34Z"/><path class="cls-1" d="M53,32.34a2.09,2.09,0,0,0,.37,1.09,1.4,1.4,0,0,0,1.42.54A1.73,1.73,0,0,0,56,33a3.09,3.09,0,0,0,.19-1c0-.21.07-.42.09-.62A4.63,4.63,0,0,0,56,29a1.6,1.6,0,0,0-1.1-.91,1.37,1.37,0,0,0-1.31.56l-.07.11a1.8,1.8,0,0,0-.31.45,3.59,3.59,0,0,0-.26,1.3A5.72,5.72,0,0,0,53,31.58C53,31.84,53,32.09,53,32.34Z"/><path class="cls-1" d="M42.46,43.61l.17.07a1.83,1.83,0,0,0,.55.25,1.55,1.55,0,0,0,1.58-.49,2.82,2.82,0,0,0,.9-.95,5.16,5.16,0,0,0,.39-3.76c-.32-1.33-1.07-2.9-2.64-3a2.09,2.09,0,0,0-2,1.17,4.71,4.71,0,0,0-.47,1.81,6.85,6.85,0,0,0,0,1.28,4.38,4.38,0,0,0,0,.51A3.34,3.34,0,0,0,42.46,43.61Z"/><path class="cls-1" d="M84.94,20.86a2,2,0,0,0-2-1.14c-1.78.13-2.78,2.18-3.48,3.59-.12.24-.22.5-.33.76A26,26,0,0,0,69.65,8,36.29,36.29,0,0,0,46.49,0,36.34,36.34,0,0,0,23.32,8c-6,4.94-9.71,11.83-9.71,19.48a23.56,23.56,0,0,0,2.72,10.93,9.7,9.7,0,0,0-3.25,1.87,47,47,0,0,0-4,3c-1,.87-2.06,1.85-1.52,3.32s2,2.57,3,3.64l3.17,3.34a6.77,6.77,0,0,0-1.61-.21A2.5,2.5,0,0,0,10,56.49c.49,2.79,3.67,4.32,6.24,4.52a5.87,5.87,0,0,0,2.3-.25A45.8,45.8,0,0,0,22.43,67c.51.77,1.05,1.8,2.16,1.57s2.12-1.64,2.91-2.41c1.94-1.88,3.87-3.76,5.82-5.62l3.07-2.93c.56-.53,1.23-1.06,1.8-1.65A102.54,102.54,0,0,1,35.3,76c-.78,2.89-1.89,6.2-.58,9.12,1.25,2.77,4.22,3.82,7,4.34l.32.06c-1.6,3-2.87,6.29-4.26,9.42-1.2,2.71-2.4,5.41-3.62,8.1a13.83,13.83,0,0,0-9.51-.85c-1.41.37-2.8,1.16-3.1,2.7s.91,2.77,2.34,3.28a15.52,15.52,0,0,0,5.43.9,15,15,0,0,0,2.67-.26,5.43,5.43,0,0,0,2.61-.86,8.1,8.1,0,0,0,1.16-2.59c.38-1,.78-1.94,1.19-2.91L39.23,101c1.56-3.69,3.37-7.39,4.62-11.22a36.63,36.63,0,0,0,16.62-1.2,93.84,93.84,0,0,0,3.42,11.82q1.06,3.1,2.23,6.18c.37,1,.77,2,1.13,3a12.22,12.22,0,0,0,1.24,3c.92,1.23,2.85,1.53,4.28,1.56a9.65,9.65,0,0,0,4.69-1A9.54,9.54,0,0,0,81.07,110c.85-1.26,1.52-3.38-.5-3.92s-4.34.13-6.14.71a16,16,0,0,0-5.11,2.81l-.4-.94c-1.43-3.26-2.61-6.65-3.76-10s-2.26-7-3.51-10.48A22.28,22.28,0,0,0,68.49,84a6.06,6.06,0,0,0,2.21-3.88,14.67,14.67,0,0,0-.9-5.24A78,78,0,0,0,59.77,53a1.22,1.22,0,0,0-.34-.34l.3-.12c1.25.55,2.56,1,3.84,1.4,1.68.58,3.36,1.14,5.05,1.7l4.87,1.61c1.27.42,2.89,1.27,4.27,1.06a2.17,2.17,0,0,0,1.7-2.56c-.12-1.68-.39-3.36-.52-5a87.29,87.29,0,0,1-.17-10.23c.08-1.85.22-3.69.41-5.53a22.39,22.39,0,0,1,.35-2.44,13.7,13.7,0,0,1,.93-2.32.82.82,0,0,0,0-.51l.44-.34a10.11,10.11,0,0,0,1.78-1.8A13.15,13.15,0,0,0,84,25.34a14.72,14.72,0,0,0,1-2.25A3.29,3.29,0,0,0,84.94,20.86ZM32.81,110a14.88,14.88,0,0,1-5,.47A15.36,15.36,0,0,1,25,110c-.55-.15-1.64-.32-1.15-1.08s1.43-.78,2.09-.91a12.66,12.66,0,0,1,2.81-.24,15.92,15.92,0,0,1,4.63,1C33.17,109.15,33,109.56,32.81,110Zm45.47-2c.39,0,.77-.06,1.16-.06s.54,0,.3.38a6.49,6.49,0,0,1-1.26,1.55,8.27,8.27,0,0,1-3.23,1.84,7.65,7.65,0,0,1-3.68.2,2.69,2.69,0,0,1-1.23-.47A14.47,14.47,0,0,1,78.28,108ZM24.84,9.79A33.92,33.92,0,0,1,46.49,2.37,33.92,33.92,0,0,1,68.14,9.79C73.65,14.36,77,20.59,77,27.44S73.65,40.53,68.14,45.1a34,34,0,0,1-21.65,7.42A34,34,0,0,1,24.84,45.1C19.33,40.53,16,34.3,16,27.44S19.33,14.36,24.84,9.79Zm29,53.48c-.71.49-1.37,1.07-2,1.61A30.06,30.06,0,0,0,48,68.39c-.44-.21-1.11-.45-1.23-.88a5.8,5.8,0,0,1,.2-1.64c.08-.61.15-1.22.22-1.82v0a.63.63,0,0,0,.2-.13,12,12,0,0,1,1.17-1.08c.41-.34.8-.72,1.21-1.07l1.2-1,.65-.52.46-.37c.24.38.47.76.68,1.12.44.73.9,1.44,1.37,2.15A.85.85,0,0,0,53.85,63.27Zm.33,1.65.51-.37,0,0h0a.7.7,0,0,0,.38,0c.58.83,1.17,1.65,1.78,2.47-.67.77-1.34,1.55-2,2.34l-1.07,1.29a7.21,7.21,0,0,1-.46.63c0-.11-.38-.25-.47-.3l-3.1-1.64L49,68.88c1.17-.81,2.28-1.7,3.4-2.57C53,65.84,53.56,65.37,54.18,64.92Zm-2.77-6.25a4,4,0,0,0-.61.47l-.63.55q-.64.57-1.26,1.2a15.23,15.23,0,0,0-1.09,1.18c-.14.19-.3.37-.44.56.08-.68.16-1.36.25-2,.23-1.93.47-3.82.54-5.74.62,0,1.24-.07,1.85-.12A9.62,9.62,0,0,0,51.41,58.67ZM18.29,41.56a29,29,0,0,0,5,5.36,32.26,32.26,0,0,0,4,2.8l-.52.41c-.67.53-1.31,1.09-1.93,1.68A28.26,28.26,0,0,0,22,55a55,55,0,0,1-4.36-5c-.73-1-1.44-2-2.12-3a7.64,7.64,0,0,0-1.36-1.62c.69-.69,1.39-1.37,2.13-2A25.14,25.14,0,0,0,18.29,41.56Zm-5.75,7.87c-.64-.65-1.27-1.31-1.91-2s-1.73-1.35-1.11-2.2a12.75,12.75,0,0,1,2-1.78c.64-.53,1.29-1.06,2-1.57s1.34-1,2-1.47a6.38,6.38,0,0,0,1.36-1.06c.27.48.57,1,.88,1.41a12.55,12.55,0,0,0-2.26,1.71c-.91.77-1.78,1.58-2.63,2.42A.61.61,0,0,0,13,46c.89.46,1.37,1.54,1.9,2.35.64,1,1.33,1.94,2,2.87a53.68,53.68,0,0,0,4.57,5.19.68.68,0,0,0,1.06,0,27.77,27.77,0,0,1,3.19-3.58c.56-.52,1.13-1,1.73-1.49.35-.28.75-.53,1.12-.81.48.26,1,.5,1.45.74-.4.45-.75,1-1.12,1.41l-1.68,2c-1.12,1.37-2.26,2.73-3.4,4.08-.24.28-.59.91-.93,1.07s-.27.1-.68-.32c-.64-.64-1.26-1.31-1.89-2q-2-2-3.92-4.07Zm5.23,9.79a4.86,4.86,0,0,1-1.86.06,6.56,6.56,0,0,1-3.45-1.52,3,3,0,0,1-.87-1.38c-.1-.43-.11-1.07.3-1.35a1.38,1.38,0,0,1,.92-.08c.44.06.89.12,1.33.2l1.29.21c.88.93,1.75,1.86,2.64,2.78l.57.6A2.23,2.23,0,0,1,17.77,59.22Zm17.64-3.17L32.9,58.44q-2.64,2.54-5.31,5c-.84.79-1.69,1.57-2.52,2.37-.15.14-.62.44-.69.65-.32-.5-.67-1-1-1.47a40.89,40.89,0,0,0-3.61-5l.08-.07a11.52,11.52,0,0,0,1.8,1.76c1.29.85,2.45,0,3.31-1,1.28-1.48,2.53-3,3.78-4.49l1.8-2.2a14.81,14.81,0,0,0,1.53-2,36.57,36.57,0,0,0,5.74,1.81A13.12,13.12,0,0,0,35.41,56.05Zm22.35-1.46A84.26,84.26,0,0,1,66.45,72c.57,1.54,1.08,3.1,1.55,4.67s1,3.31,0,4.71a12.12,12.12,0,0,1-3.24,2.76,21.85,21.85,0,0,1-3.66,1.89c-5.29,2.14-11.21,2.37-16.81,1.63-.22-.44-.81-.69-1.14-.15h0c-2.29-.32-5-.83-6.28-2.87-1.57-2.51-.22-6,.43-8.59a69.15,69.15,0,0,0,2.31-21.81,39.12,39.12,0,0,0,6.91.62H47c-.52,2.29-.77,4.63-1.1,7l-.6,4.36c-.15,1.06-.46,2.22.54,3a34.89,34.89,0,0,0,3.64,2l1.94,1.07a7,7,0,0,0,1.81.91c1.22.23,2-1.18,2.63-2,1-1.2,2-2.41,2.93-3.63a.89.89,0,0,0,0-1.08,56.92,56.92,0,0,1-4.08-5.91,21.55,21.55,0,0,1-2.86-6.06,39.12,39.12,0,0,0,5.92-1.28A1.27,1.27,0,0,0,57.76,54.59ZM76.94,56.3a23,23,0,0,1-2.89-.91l-3-1c-2-.64-4-1.29-6-1.9-1-.3-1.94-.63-2.92-.92a33.48,33.48,0,0,0,7.56-4.69,27.73,27.73,0,0,0,7.21-9c0,.5-.07,1-.1,1.51A91.34,91.34,0,0,0,77,51.41c.08,1,.17,1.9.28,2.85.06.51.14,1,.19,1.52S77.52,56.4,76.94,56.3Zm6.25-33a19.84,19.84,0,0,1-1.93,3.82,17.24,17.24,0,0,1-1.58,1.84l-.06,0c.12-.56.11-1.18.22-1.72a13.4,13.4,0,0,1,.61-2.05,16.22,16.22,0,0,1,.93-2,4.67,4.67,0,0,1,1.25-1.66c.34-.23.81-.27.89.2A3,3,0,0,1,83.19,23.27Z"/><path class="cls-1" d="M6.2,40.7A4,4,0,0,0,4.87,42,5.92,5.92,0,0,0,4,43.57a6,6,0,0,0-.27,1.84,3.85,3.85,0,0,0,.46,2.14.9.9,0,0,0,1,.26.94.94,0,0,0,.53-.93,1.14,1.14,0,0,0-.07-.32c0,.14,0-.05,0-.07s-.06-.23-.08-.35a5.39,5.39,0,0,1-.12-.79v-.3c0-.1,0-.21,0-.32a6.83,6.83,0,0,1,.11-.79A4.68,4.68,0,0,1,6,42.59a13.81,13.81,0,0,1,.75-1.36C6.91,40.92,6.5,40.54,6.2,40.7Z"/><path class="cls-1" d="M1.21,41.44a5.39,5.39,0,0,0-.67,1.1,5.34,5.34,0,0,0-.3.58,3.61,3.61,0,0,0-.18.72,4.7,4.7,0,0,0,0,1.35c.07.48.17,1.25.72,1.39a.54.54,0,0,0,.62-.16,1,1,0,0,0,.08-.88l-.05-.13v0l-.06-.27a3.83,3.83,0,0,1-.07-.58,2.64,2.64,0,0,1,0-.28V44a5.35,5.35,0,0,1,.05-.55,5.73,5.73,0,0,1,.07-.58,2.91,2.91,0,0,1,.49-1A.41.41,0,0,0,1.21,41.44Z"/></g></g></svg>