<svg width="398" height="613" viewBox="0 0 398 613" fill="none" xmlns="http://www.w3.org/2000/svg">
<g clip-path="url(#clip0_4_49)">
<path d="M345.549 43.0669C313.355 16.3395 269.115 0 220.391 0C171.667 0 127.481 16.3395 95.2868 43.0669C63.0925 69.7402 42.836 107.072 42.836 148.462C42.836 189.851 63.0925 227.183 95.2868 253.857C113.599 269.06 135.746 280.855 160.432 288.267C145.955 301.468 132.613 315.968 119.433 330.468C105.712 345.563 92.0998 360.821 79.7298 376.998C67.846 392.634 56.9885 409.244 48.5078 426.99C44.2404 435.971 40.5672 445.926 41.7556 456.044C41.8096 456.693 41.9717 457.342 42.0797 457.992C39.703 459.236 37.4883 460.859 35.3276 462.266C31.6544 464.701 28.0352 467.135 24.416 469.624C17.2317 474.602 10.1014 479.687 3.07919 484.935L2.70107 485.368C1.29661 485.477 -0.107837 486.667 0.000197378 488.344C1.02653 504.197 6.42827 520.211 11.6139 535.144C14.0987 542.394 16.7996 549.536 19.8246 556.569C21.4451 560.303 23.0656 564.036 24.7942 567.715C26.1446 570.582 27.5491 573.45 30.7901 574.424C34.0852 575.398 37.0561 573.937 39.919 572.368C43.5922 570.366 47.2114 568.256 50.8846 566.2C57.5287 562.359 64.1728 558.409 70.763 554.405C77.8932 550.023 85.0235 545.64 91.9918 541.041C94.9087 539.148 97.7176 537.146 100.581 535.144C101.499 535.523 102.579 535.523 103.714 534.928C110.466 531.519 116.732 526.596 122.782 522.051C129.048 517.398 135.044 512.42 140.878 507.28C142.39 505.982 142.984 503.926 142.228 502.087C130.938 474.764 120.621 446.684 106.955 420.443C105.928 418.441 103.714 418.82 102.849 420.227C101.931 420.01 100.905 420.173 99.9864 420.768C97.3395 422.499 94.3145 423.798 91.5597 425.367C88.6967 426.99 85.8338 428.721 83.0249 430.507C78.7035 433.212 74.4902 436.079 70.1688 438.785C68.5482 434.619 65.8474 430.885 62.1742 428.126C60.8238 427.098 59.4193 426.936 58.2309 427.315C60.7697 421.904 63.6327 416.602 66.6576 411.462C83.349 382.949 105.118 357.791 126.995 333.173C138.933 319.756 151.303 306.662 163.079 293.028C156.759 310.071 151.843 327.655 146.549 345.022C140.715 364.121 134.882 383.166 129.156 402.264C124.51 417.684 118.19 434.781 122.62 451.012C126.671 465.783 139.473 474.385 153.518 478.281C159.189 479.85 164.969 480.932 170.857 481.743C169.021 490.021 167.886 498.516 166.32 506.848C164.321 517.506 162.106 528.111 159.946 538.715C156.435 556.028 153.572 573.233 151.195 590.655C141.31 586.218 130.668 584.054 119.865 584.217C112.14 584.379 98.798 585.353 99.1221 596.065C99.4462 605.696 109.872 611.485 118.244 612.675C123.862 613.487 129.642 612.621 135.206 611.701C141.58 610.619 147.954 609.591 154.274 608.185C155.948 607.806 157.731 606.453 157.785 604.56C158.757 582.81 163.619 561.006 167.778 539.743C169.831 529.139 171.883 518.48 173.666 507.822C175.071 499.489 176.529 490.995 176.745 482.555C186.738 483.583 196.839 483.745 206.671 483.637C218.987 483.475 231.573 482.663 243.835 480.445C243.294 483.637 243.132 486.937 242.862 490.129C242.484 495.486 242.052 500.788 241.674 506.144C240.918 516.803 240.161 527.515 239.351 538.174C237.731 559.383 236.488 580.646 237.731 601.909C237.839 603.965 239.729 605.101 241.458 605.534C253.072 608.455 265.225 608.942 277.001 606.832C286.292 605.155 298.122 601.53 298.122 590.06C298.122 579.185 286.076 576.75 277.595 577.562C267.008 578.59 255.502 579.672 245.401 583.513C245.077 568.148 245.671 552.782 246.481 537.417C247.022 527.245 247.67 517.127 248.264 506.956C248.588 501.6 248.858 496.243 249.182 490.941C249.398 487.154 249.777 483.204 249.506 479.309C252.693 478.605 255.88 477.794 259.068 476.874C273.49 472.546 286.454 464.214 293.423 450.471C300.391 436.837 299.743 420.389 296.772 405.781C295.043 397.341 292.558 389.009 289.695 380.839C302.876 376.24 316.11 371.371 327.724 363.418C329.56 362.119 329.182 359.468 327.67 358.169C303.146 336.852 278.784 315.211 253.882 294.381C289.263 288.754 320.971 274.416 345.657 253.965C377.852 227.292 398.108 189.96 398.108 148.57C398 107.072 377.744 69.7944 345.549 43.0669ZM119.271 469.462L119.433 469.299C123.862 480.391 128.454 491.482 132.883 502.519C127.967 506.685 122.944 510.689 117.812 514.53C113.707 517.614 109.277 520.428 105.064 523.349C102.795 523.999 100.797 525.514 98.744 526.812C95.665 528.814 92.532 530.762 89.453 532.709C83.241 536.605 77.083 540.555 70.817 544.396C64.4429 548.291 58.0149 552.133 51.5328 555.866C48.5618 557.543 45.6449 559.275 42.6739 560.898C41.2695 561.709 35.1655 566.254 33.7611 565.659C32.0325 564.901 30.412 559.275 29.5477 557.327C28.0892 554.081 26.6848 550.78 25.3343 547.48C23.1196 542.178 21.067 536.821 19.1223 531.465C34.1392 524.215 48.2917 515.017 62.3903 505.982C62.6063 506.415 62.8224 506.848 63.0925 507.226C63.5786 507.984 64.2269 508.633 64.8751 509.228L65.5773 509.769C66.1175 510.148 66.7657 510.527 67.3599 510.689C68.0081 510.905 68.6563 511.014 69.3045 511.068L69.9527 511.23C70.4929 511.338 71.033 511.284 71.5732 511.068C72.2214 510.905 72.7076 510.581 73.1937 510.148C73.7879 509.769 74.3821 509.282 74.8683 508.795L75.2464 508.254C75.5705 507.767 75.8946 507.226 76.0567 506.685C76.3267 505.928 76.5428 505.062 76.6508 504.197C76.8129 502.844 76.7589 501.383 76.3808 500.031C76.1647 499.165 75.8406 498.407 75.5165 497.596C81.4044 493.863 87.3463 490.129 93.1261 486.288C97.4475 483.421 101.769 480.499 106.09 477.577C108.953 475.63 112.734 473.736 115.489 471.301H115.543L116.3 471.085L116.678 470.923L117.488 470.652C117.92 470.49 118.352 470.327 118.73 470.003L119.271 469.462ZM71.8973 450.688C72.1134 448.199 71.8973 445.764 71.4652 443.383C76.4348 441.436 81.0263 438.676 85.5637 435.971C88.3186 434.348 91.1275 432.725 93.9904 431.21C97.0154 429.587 100.148 427.693 103.389 426.611L103.822 426.287C107.873 439.272 112.626 452.094 117.596 464.809C116.732 463.943 115.381 463.456 113.977 463.889C109.709 465.133 105.874 469.191 102.363 471.842C98.3658 474.764 94.3685 477.631 90.3713 480.499C84.0512 484.99 77.6772 489.48 71.3031 493.863C70.871 493.7 70.4389 493.592 70.0607 493.538C68.5482 493.376 67.1978 493.809 65.9014 494.566C65.4693 494.62 65.0371 494.674 64.605 494.891C63.9027 495.215 63.3626 495.648 62.8764 496.243C62.5523 496.784 62.2282 497.271 62.0121 497.812C61.7421 498.407 61.634 499.057 61.472 499.652L61.3639 500.517C46.9413 509.877 31.9785 518.372 17.8259 528.056L17.6639 527.624C13.5586 515.937 10.6956 503.818 6.75237 492.131C7.23853 491.969 7.67066 491.753 8.1028 491.374C14.7469 485.909 21.4991 480.553 28.3593 475.305C31.7084 472.762 35.1115 470.219 38.5686 467.676C40.3512 466.378 42.4038 465.025 44.2944 463.564C46.8333 467.893 51.1546 470.76 56.9345 469.678C65.6853 468.055 71.1951 459.074 71.8973 450.688ZM62.2822 451.066C61.634 455.016 54.8278 465.35 51.7488 457.775C48.7779 450.525 52.235 441.057 55.0979 434.24C55.422 434.781 55.8001 435.268 56.3943 435.701C61.0398 439.272 63.2545 445.277 62.2822 451.066ZM149.844 600.394C142.39 601.53 135.044 603.153 127.535 603.911C121.269 604.56 112.14 604.019 108.467 597.743C106.09 593.685 110.628 593.36 113.707 592.981C117.704 592.44 121.701 592.332 125.753 592.603C133.747 593.144 141.364 595.146 148.656 598.446C149.142 598.662 149.628 598.771 150.114 598.825C150.006 599.312 149.952 599.853 149.844 600.394ZM246.211 593.631C254.314 590.925 262.309 588.815 270.735 587.463C273.814 586.976 293.26 582.756 289.641 591.358C286.832 597.959 274.192 598.5 268.25 598.987C260.85 599.582 253.342 599.041 246.049 597.634C245.941 596.336 245.887 595.037 245.779 593.739L246.211 593.631ZM287.319 433.158C285.59 447.279 277.055 457.992 264.307 463.997C250.749 470.381 235.138 472.059 220.391 473.195C202.511 474.547 184.361 474.061 166.59 471.355C154.166 469.462 139.149 465.674 132.829 453.555C125.483 439.488 131.965 422.012 136.178 407.945C142.066 388.305 147.9 368.612 153.734 348.972C159.459 329.711 165.725 310.504 170.047 290.864C178.744 293.028 187.711 294.597 196.948 295.625C193.382 303.2 191.924 312.073 189.547 320.08C187.008 328.683 183.713 337.069 181.391 345.726C179.392 353.192 184.956 358.169 189.223 363.634C194.949 370.938 200.783 378.188 206.671 385.384C206.671 385.384 206.725 385.384 206.725 385.438C206.941 386.304 207.211 387.169 207.643 388.035C210.128 393.121 215.854 395.014 221.147 395.285C228.17 395.664 235.354 394.906 242.322 393.878C254.584 392.039 266.63 388.576 278.406 384.626C279.216 386.845 280.026 389.063 280.782 391.281C285.212 404.591 289.047 419.091 287.319 433.158ZM217.798 379.054C226.117 370.451 241.944 372.615 245.563 384.464L245.617 384.626L244.699 384.789C237.839 385.925 230.762 386.682 223.74 386.52C218.825 386.466 212.288 384.789 217.798 379.054ZM215.205 363.905C212.775 367.584 210.722 371.425 208.939 375.375C208.561 375.861 208.291 376.348 207.967 376.89C205.698 374.022 203.43 371.154 201.161 368.287C204.888 365.852 208.615 363.418 212.288 360.875C214.341 359.468 216.394 358.061 218.392 356.655C219.635 355.789 220.931 354.977 222.174 354.058C221.687 355.951 219.527 357.899 218.392 359.36C217.312 360.821 216.232 362.335 215.205 363.905ZM216.124 353.3L210.02 357.628C206.293 360.225 202.673 362.985 199.054 365.69C198.136 364.554 197.218 363.363 196.299 362.227C194.409 359.847 192.248 357.52 190.357 355.14C192.734 354.436 195.057 353.192 197.272 352.11C200.243 350.649 203.214 349.134 206.13 347.565C209.047 345.996 211.964 344.427 214.827 342.75C216.232 341.938 218.122 341.073 219.689 339.99C219.905 340.964 220.067 341.938 220.283 342.912C220.661 344.86 221.471 347.132 221.958 349.405C219.959 350.433 218.068 351.947 216.124 353.3ZM216.718 335.987C215.259 336.798 213.855 337.664 212.396 338.476C209.588 340.045 206.779 341.614 203.97 343.128C201.161 344.643 198.298 346.158 195.435 347.619C193.004 348.864 190.249 350 188.035 351.677C186.252 348.322 187.981 345.184 189.169 341.614C190.141 338.584 191.114 335.5 192.086 332.416C196.677 331.334 200.891 329.386 205.104 327.276C207.157 326.248 209.209 325.22 211.208 324.084C212.721 323.218 214.503 322.353 216.016 321.27C216.988 325.869 217.906 330.468 218.879 335.121C218.014 335.229 217.366 335.608 216.718 335.987ZM210.83 296.707C212.18 303.2 213.477 309.638 214.827 316.131L214.395 316.185C213.315 316.509 212.288 317.321 211.316 317.916C210.398 318.457 209.534 318.944 208.615 319.485C206.617 320.621 204.618 321.757 202.565 322.839C199.486 324.463 196.407 325.923 193.382 327.601C194.301 324.571 195.219 321.541 196.083 318.457C198.136 311.261 200.945 303.524 201.215 296.058C204.456 296.383 207.643 296.599 210.83 296.707ZM320.053 360.334C309.898 366.339 298.068 369.64 286.94 373.373C283.97 365.419 280.674 357.574 277.379 349.892C270.519 333.823 262.849 318.132 254.53 302.767C276.137 322.244 298.176 341.181 320.053 360.334ZM238.649 298.33C252.856 323.543 265.388 350 275.597 377.16C268.521 379.432 261.336 381.434 254.098 383.057C254.206 382.408 254.152 381.705 253.936 380.947C250.479 369.531 238.433 363.309 227.035 365.041C224.712 365.365 222.066 366.177 219.473 367.367C220.175 366.123 220.931 364.878 221.741 363.634C223.632 360.875 226.333 358.224 227.251 354.923C228.116 351.785 226.927 348.323 226.333 345.239C223.308 329.116 220.283 313.047 217.204 296.924C218.284 296.924 219.311 296.978 220.391 296.978C226.333 296.978 232.221 296.707 238.055 296.22C238.109 296.924 238.271 297.627 238.649 298.33ZM337.393 244.01C307.629 268.681 266.252 284.155 220.445 284.155C174.584 284.155 133.207 268.735 103.497 244.01C73.7339 219.284 55.6921 185.577 55.6921 148.462C55.6921 111.4 73.7339 77.6936 103.497 52.9139C133.261 28.2424 174.638 12.7686 220.445 12.7686C266.306 12.7686 307.683 28.1883 337.393 52.9139C367.156 77.6395 385.198 111.346 385.198 148.462C385.198 185.577 367.156 219.284 337.393 244.01Z" fill="white"/>
<path d="M85.1854 100.634C82.4845 100.147 79.7297 101.499 78.1091 103.664L77.731 104.259C77.0288 104.962 76.4886 105.774 76.0565 106.693C75.0842 108.803 74.706 111.4 74.652 113.673C74.598 115.675 74.7601 117.677 75.0842 119.624C75.0842 120.977 75.0842 122.384 75.1382 123.736C75.2462 125.792 75.8944 127.956 77.1368 129.634C78.8654 131.906 81.9444 133.204 84.7533 132.555C87.7242 131.852 90.047 129.904 91.2354 127.091C91.9916 125.305 92.1537 123.357 92.2617 121.464C92.4778 120.328 92.6398 119.191 92.7478 118.109C93.126 114.106 92.9099 109.182 91.0733 105.503C89.9389 103.068 87.9403 101.175 85.1854 100.634Z" fill="white"/>
<path d="M210.398 100.634C207.697 100.147 204.942 101.499 203.321 103.664L202.943 104.259C202.241 104.962 201.701 105.774 201.269 106.693C200.296 108.803 199.918 111.4 199.864 113.673C199.81 115.675 199.972 117.677 200.296 119.624C200.296 120.977 200.296 122.384 200.35 123.736C200.458 125.792 201.107 127.956 202.349 129.634C204.078 131.906 207.157 133.204 209.966 132.555C212.936 131.852 215.259 129.904 216.448 127.091C217.204 125.305 217.366 123.357 217.474 121.464C217.69 120.328 217.852 119.191 217.96 118.109C218.338 114.106 218.122 109.182 216.286 105.503C215.151 103.068 213.153 101.175 210.398 100.634Z" fill="white"/>
<path d="M163.511 147.813C160.864 150.788 158.865 153.602 155.246 155.549C151.627 157.443 147.629 158.579 143.578 158.633C139.149 158.742 134.773 157.822 130.506 156.686C128.183 156.09 125.969 155.225 123.808 154.197C121.539 153.115 119.54 151.979 117.002 151.924C116.029 151.924 114.949 152.628 115.219 153.764C116.407 159.174 122.781 162.583 127.265 165.072C132.667 168.102 138.987 169.292 145.091 169.075C150.276 168.913 155.57 167.452 160.107 164.964C165.023 162.258 170.263 158.255 172.477 153.007C174.908 147.326 167.292 143.484 163.511 147.813Z" fill="white"/>
</g>
<defs>
<clipPath id="clip0_4_49">
<rect width="398" height="613" fill="white"/>
</clipPath>
</defs>
</svg>
