<svg width="340" height="444" viewBox="0 0 340 444" fill="none" xmlns="http://www.w3.org/2000/svg">
<g clip-path="url(#clip0_4_92)">
<path d="M184.548 97.0241C184.972 98.1829 185.467 99.3066 186.316 100.22C187.624 101.659 189.427 102.397 191.372 102.221C193.245 102.046 194.872 100.641 195.473 98.9204C195.897 97.6562 195.862 96.2165 195.508 94.9172C195.296 94.0744 195.013 93.2317 194.73 92.424C194.518 91.1598 194.235 89.9308 193.776 88.7369C193.281 87.3323 192.538 85.8574 191.513 84.7688C191.053 84.3123 190.558 83.9261 189.993 83.61L189.639 83.3291C188.225 82.3459 186.281 82.0649 184.725 82.9077C183.134 83.7856 182.321 85.3307 182.073 87.0864C181.685 89.685 182.568 92.7049 183.594 95.0577C183.841 95.7249 184.159 96.392 184.548 97.0241Z" fill="black" fill-opacity="0.51"/>
<path d="M107.83 122.026C108.254 123.185 108.749 124.309 109.598 125.222C110.906 126.662 112.709 127.399 114.653 127.223C116.527 127.048 118.153 125.643 118.754 123.923C119.179 122.658 119.143 121.219 118.79 119.919C118.578 119.077 118.295 118.234 118.012 117.426C117.8 116.162 117.517 114.933 117.057 113.739C116.562 112.334 115.82 110.86 114.795 109.771C114.335 109.315 113.84 108.928 113.274 108.612L112.921 108.331C111.507 107.348 109.562 107.067 107.971 107.91C106.38 108.788 105.567 110.333 105.32 112.089C104.931 114.687 105.815 117.707 106.84 120.06C107.123 120.727 107.441 121.394 107.83 122.026Z" fill="black" fill-opacity="0.51"/>
<path d="M151.74 136.95C155.028 137.547 158.563 137.372 161.745 136.424C165.563 135.335 169.169 133.369 171.891 130.419C174.119 127.996 177.371 124.66 176.982 121.148C176.912 120.411 176.099 120.2 175.498 120.376C173.942 120.903 172.952 121.991 171.785 123.115C170.689 124.168 169.487 125.152 168.215 125.959C165.846 127.504 163.336 128.944 160.614 129.752C158.103 130.524 155.416 130.665 152.836 130.208C150.219 129.752 148.416 128.452 146.189 127.153C143.007 125.292 139.118 129.12 141.734 132.069C144.174 134.914 148.204 136.318 151.74 136.95Z" fill="black" fill-opacity="0.51"/>
<path d="M335.864 80.6257C335.404 79.818 334.874 79.0455 334.343 78.3081C334.874 77.7111 335.121 76.8684 334.874 75.8149C328.651 50.918 321.828 26.1616 313.873 1.75637C313.378 0.246403 311.328 -0.420791 309.949 0.211287C294.252 7.40996 278.555 14.5384 263.105 22.2638C259.075 22.5096 256.352 24.9677 254.655 28.6548C252.534 33.2198 254.302 38.6627 256.14 43.0522C261.019 54.7807 266.322 66.3337 270.883 78.2027C275.373 89.9313 279.509 101.765 283.257 113.74C284.777 118.55 286.757 123.045 292.626 120.763C298.848 118.305 304.929 115.109 310.974 112.265C312.742 117.708 315.5 122.799 319.141 127.224C316.949 128.523 314.757 129.822 312.601 131.157C304.222 136.214 295.772 141.2 287.322 146.116C270.635 155.808 253.807 165.184 236.801 174.314C227.15 179.511 217.427 184.568 207.705 189.589C202.296 192.398 196.816 195.102 191.407 197.946C192.75 196.963 194.058 195.91 195.331 194.856C216.119 177.79 229.2 153.877 229.2 127.4C229.2 100.922 216.119 77.0088 195.331 59.9427C174.543 42.8415 146.012 32.3771 114.583 32.3771C83.1527 32.3771 54.622 42.8415 33.8338 59.9427C13.081 77.0088 0 100.922 0 127.4C0 153.877 13.081 177.79 33.8692 194.856C51.0866 209.008 73.6425 218.63 98.7085 221.509C98.3903 221.86 98.1075 222.246 97.7893 222.598C95.3852 225.337 93.0519 228.146 90.7539 230.955C86.1225 236.573 81.385 242.087 76.5769 247.565C71.7687 253.008 66.8545 258.415 61.8696 263.718C57.9453 267.932 51.723 273.41 55.2938 279.695C56.7433 282.259 59.5362 283.628 61.9403 285.173C64.9101 287.105 67.7737 289.106 70.6021 291.213C75.7284 295.041 81.7386 299.114 85.3093 304.592C78.4507 304.662 72.5819 308.736 67.597 313.301C62.506 317.936 57.6271 323.59 58.1221 330.894C58.617 338.163 64.309 343.044 71.592 342.587C78.38 342.166 84.9204 338.584 89.4458 333.668C92.3094 330.542 94.2186 326.996 95.2792 323.274C95.7388 330.226 97.0469 337.039 100.441 343.219C105.709 352.806 114.406 359.969 124.305 364.534C129.608 366.957 135.053 368.467 140.568 369.345C142.123 377.527 144.633 385.604 146.33 393.75C148.063 401.862 149.477 410.009 150.714 418.191C142.512 416.33 133.957 416.646 125.86 419.279C119.072 421.492 104.683 428.374 111.648 437.539C116.881 444.422 129.042 444.773 136.749 443.439C146.154 441.859 154.603 436.942 160.507 429.463C162.24 427.25 160.755 424.828 158.669 424.195C158.81 423.739 158.846 423.247 158.775 422.721C157.184 412.467 155.275 402.248 152.871 392.135C151.139 384.866 149.477 377.211 146.861 370.047C162.417 370.996 178.361 366.992 193.281 361.83C190.452 372.997 189.18 384.585 187.483 395.927C186.528 402.389 185.573 408.815 184.619 415.276C184.159 418.401 183.7 421.492 183.24 424.617C182.851 427.145 182.25 429.744 183.7 432.061C186.316 436.205 193.776 437.574 198.195 438.593C203.887 439.927 209.932 440.454 215.766 439.927C220.433 439.471 225.241 437.785 227.857 433.677C230.296 429.814 229.978 424.898 226.62 421.667C222.978 418.156 217.534 417.769 212.725 417.523C205.725 417.207 198.761 416.856 191.76 416.54L191.796 416.154C192.609 409.903 193.387 403.688 194.2 397.437C195.791 385.077 198.018 372.611 198.018 360.11C199.149 359.688 200.281 359.267 201.412 358.846C213.044 354.456 224.286 349.329 228.988 337.004C233.584 324.959 231.286 311.51 226.796 299.816C223.862 292.161 219.902 284.822 216.331 277.448C212.69 269.898 209.049 262.348 205.336 254.834C201.553 247.108 197.771 239.383 193.988 231.657C190.452 224.459 185.503 216.874 184.972 208.727C184.937 208.306 184.831 207.954 184.69 207.603C194.271 203.846 203.392 198.895 212.549 194.259C222.518 189.203 232.382 183.971 242.246 178.703C262.115 168.028 281.807 156.967 301.252 145.519C310.621 140.006 320.06 134.528 329.217 128.734C333 126.346 336.182 123.361 337.702 119.077C339.222 114.828 339.434 110.158 339.717 105.698C340.318 97.2002 340.177 88.1404 335.864 80.6257ZM153.79 426.583C149.724 430.938 144.351 434.063 138.553 435.608C132.684 437.153 125.012 437.469 119.497 434.555C118.33 433.922 117.128 433.29 117.658 431.956C118.153 430.727 120.734 429.603 121.795 429.041C124.835 427.391 128.158 426.092 131.552 425.319C139.012 423.634 146.613 424.02 153.79 426.583ZM208.448 424.757C211.24 424.863 219.867 423.985 221.67 427.075C224.569 431.956 213.044 432.307 210.887 432.307C205.23 432.237 199.538 431.289 194.2 429.393C193.457 429.147 191.018 428.585 190.311 427.988C190.629 428.023 190.594 425.986 190.629 425.495C190.7 425.038 190.735 424.582 190.806 424.09C196.71 424.301 202.579 424.511 208.448 424.757ZM8.37891 127.4C8.37891 103.697 20.0104 82.1708 39.2077 66.3688C58.3696 50.5669 85.0619 40.6994 114.618 40.6994C144.174 40.6994 170.831 50.5669 190.028 66.3688C209.225 82.1708 220.857 103.732 220.857 127.4C220.857 151.102 209.225 172.628 190.028 188.43C170.866 204.232 144.174 214.1 114.618 214.1C112.214 214.1 109.845 214.029 107.512 213.889C106.805 213.046 105.284 212.906 104.471 213.713C78.981 211.747 56.1776 202.406 39.2077 188.465C20.0104 172.628 8.37891 151.102 8.37891 127.4ZM170.654 265.438C168.886 267.264 167.189 269.161 165.563 271.092C163.972 272.988 162.452 274.955 161.002 276.956C159.553 278.958 158.386 281.205 157.255 283.418C154.214 281.908 151.103 280.292 148.628 278.22C146.967 276.851 147.073 275.622 146.967 273.515C146.861 271.197 146.755 268.88 146.649 266.527C147.992 264.806 149.053 262.84 150.184 260.979C151.492 258.837 152.871 256.765 154.32 254.728C155.735 252.762 157.219 250.83 158.775 248.969C160.119 247.354 161.851 245.774 163.053 244.018C163.689 245.036 164.29 246.02 164.927 247.003C168.073 251.919 171.573 256.519 175.285 260.944C173.588 262.208 172.068 263.964 170.654 265.438ZM176.346 266.387C177.018 265.79 177.76 265.193 178.432 264.525C180.765 267.159 183.169 269.723 185.68 272.251C183.346 275.095 181.154 278.08 179.245 281.205C178.078 283.172 176.982 285.138 175.992 287.21C175.568 288.053 174.684 289.457 174.543 290.405C174.437 290.651 174.331 290.897 174.225 291.143H174.189C170.194 288.86 165.422 287.421 161.25 285.349C160.896 285.173 160.507 284.998 160.154 284.822C161.497 283.102 162.947 281.416 164.29 279.695C165.811 277.729 167.366 275.797 168.992 273.936C170.548 272.181 172.139 270.46 173.801 268.81C174.649 268.002 175.498 267.194 176.346 266.387ZM160.543 240.822C159.482 241.49 158.634 242.613 157.821 243.561C157.007 244.51 156.194 245.458 155.416 246.441C153.79 248.443 152.27 250.514 150.82 252.621C149.406 254.728 148.063 256.87 146.79 259.047C146.613 259.328 146.472 259.644 146.295 259.96C146.118 256.484 145.977 253.008 145.8 249.531C145.659 246.581 145.553 243.667 145.411 240.717L145.8 240.19C146.083 239.558 146.401 239.242 146.825 238.54L147.002 238.224L147.214 237.873C147.391 237.592 147.568 237.311 147.745 237.065C148.522 235.977 149.336 234.888 150.255 233.905L150.573 233.589L150.644 233.518L151.386 232.851C151.881 232.43 152.411 232.008 152.942 231.622C153.224 231.412 153.543 231.236 153.861 231.025L154.25 230.815C154.603 230.639 154.957 230.463 155.31 230.288C157.007 233.835 158.881 237.346 160.896 240.682L160.543 240.822ZM153.437 225.758C153.083 225.898 152.765 226.074 152.411 226.285C151.669 226.706 150.926 227.163 150.219 227.689C148.911 228.637 147.745 229.761 146.684 230.99C146.118 231.657 145.588 232.395 145.128 233.167C144.881 228.532 144.457 223.932 143.891 219.297C146.154 218.805 148.381 218.243 150.573 217.646C151.386 220.35 152.305 223.089 153.437 225.758ZM74.1728 334.054C71.2031 334.897 67.4202 335.283 66.2889 331.772C65.3343 328.822 66.7485 325.872 68.5162 323.519C72.4758 318.322 79.6527 311.334 86.7235 312.177C87.2538 312.247 87.7134 312.177 88.173 312.072C89.6225 321.448 83.9305 331.28 74.1728 334.054ZM97.5772 258.802C96.2691 274.007 95.456 289.212 95.2085 304.452C95.1731 305.646 95.1731 306.875 95.1378 308.104C93.7236 303.258 91.0721 298.693 87.3245 294.971C81.5972 289.317 74.8092 284.541 68.0919 280.117C66.4656 279.028 64.7333 278.08 63.107 276.956C61.0918 275.552 62.0817 274.533 63.5312 272.813C66.2181 269.582 69.2586 266.597 72.0869 263.472C78.6981 256.168 85.0972 248.688 91.3195 241.068C94.2893 237.416 97.2944 233.799 100.123 230.007C100.299 229.761 100.476 229.55 100.653 229.305C99.0974 239.102 98.4257 249.145 97.5772 258.802ZM191.089 246.16C197.346 258.977 203.604 271.794 209.932 284.611C215.518 295.919 222.766 307.963 223.827 320.745C224.816 332.614 219.337 342.692 208.518 347.854C196.781 353.403 183.664 357.757 170.972 360.496C161.992 362.427 152.553 363.411 143.396 362.217C142.724 361.62 141.805 361.514 141.027 361.83C138.835 361.444 136.679 360.988 134.522 360.356C124.835 357.406 115.785 351.998 109.81 343.711C102.562 333.703 103.022 321.272 103.128 309.473C103.269 293.566 103.835 277.623 104.825 261.751C105.638 248.688 107.582 235.415 107.865 222.282C110.093 222.387 112.32 222.457 114.583 222.457C123.103 222.457 131.376 221.649 139.366 220.21C138.765 231.622 139.436 243.07 139.719 254.482C139.896 260.733 140.037 266.948 140.214 273.199C140.356 278.642 140.957 282.013 145.765 285.103C150.502 288.158 155.452 290.967 160.543 293.461C163.124 294.725 165.74 295.919 168.427 297.007C170.548 297.885 172.987 299.29 175.356 299.149C180.553 298.833 181.826 292.302 183.77 288.579C186.422 283.453 189.568 278.712 193.21 274.252C194.518 272.672 193.917 270.565 192.538 269.301C184.195 261.646 177.018 252.551 170.937 243.07C167.861 238.259 165.103 233.273 162.629 228.111C160.684 224.037 159.129 219.788 157.396 215.61C164.573 213.222 171.432 210.237 177.796 206.725C177.301 207.252 176.947 207.954 176.876 208.832C176.311 215.539 178.927 221.368 181.791 227.268C184.937 233.518 188.013 239.839 191.089 246.16ZM308.924 101.765C309.03 103.064 309.171 104.329 309.383 105.593C309.065 105.628 308.747 105.733 308.393 105.874C303.479 108.156 298.565 110.509 293.651 112.827C292.802 113.248 291.494 114.126 290.504 114.442C290.398 114.161 290.292 113.845 290.221 113.564C289.479 111.317 288.772 109.034 288.03 106.787C284.848 97.13 281.454 87.5786 277.777 78.0974C274.171 68.8269 270.352 59.6618 266.287 50.5669C263.847 45.0889 255.751 32.3068 261.479 26.7235C277.6 20.5431 293.439 13.7659 309.277 6.98857C315.782 28.7602 321.969 50.6371 327.449 72.6896C323.879 71.285 319.884 71.7064 316.242 75.3584C309.595 81.8899 308.287 92.9864 308.924 101.765ZM332.01 114.758C331.161 118.656 328.863 121.044 325.576 123.186C325.328 123.361 325.045 123.502 324.798 123.677C319.954 118.024 316.843 111.246 315.747 103.872C314.722 96.8491 315.217 87.9648 319.353 81.8547C325.682 72.5843 331.621 85.8579 332.611 91.7222C333.813 98.9911 333.601 107.559 332.01 114.758Z" fill="black" fill-opacity="0.51"/>
</g>
<defs>
<clipPath id="clip0_4_92">
<rect width="340" height="444" fill="white"/>
</clipPath>
</defs>
</svg>
