<svg xmlns="http://www.w3.org/2000/svg" viewBox="0 0 65.7 121.63"><defs><style>.cls-1{fill:#ffffff;}</style></defs><title>my_education_doodleAsset 4</title><g id="Layer_2" data-name="Layer 2"><g id="OBJECTS"><path class="cls-1" d="M30.61,30.2q0,.38.06.75A2,2,0,0,0,31.12,32a1.43,1.43,0,0,0,1.44.44,1.73,1.73,0,0,0,1.13-1.09,2.88,2.88,0,0,0,.12-1.05c0-.21,0-.43,0-.63a4.58,4.58,0,0,0-.47-2.3,1.57,1.57,0,0,0-1.16-.82,1.36,1.36,0,0,0-1.27.64l-.05.12a1.4,1.4,0,0,0-.28.47,3.22,3.22,0,0,0-.17,1.31A5.83,5.83,0,0,0,30.61,30.2Z"/><path class="cls-1" d="M53.73,28.6c0,.25,0,.5.07.75a2.11,2.11,0,0,0,.44,1.07,1.42,1.42,0,0,0,1.45.44,1.73,1.73,0,0,0,1.13-1.09,3.09,3.09,0,0,0,.12-1.05,4.44,4.44,0,0,0,0-.63,4.57,4.57,0,0,0-.46-2.3A1.59,1.59,0,0,0,55.35,25a1.34,1.34,0,0,0-1.26.64l-.06.12a1.72,1.72,0,0,0-.28.47,3.61,3.61,0,0,0-.17,1.31A5.83,5.83,0,0,0,53.73,28.6Z"/><path class="cls-1" d="M40.82,37.91a6.27,6.27,0,0,0,3.34.5,6.41,6.41,0,0,0,2.72-.94A5.12,5.12,0,0,0,49,35.1a1,1,0,0,0-1.72-.84,5.67,5.67,0,0,1-1.43,1.54,4.87,4.87,0,0,1-2.12.72,8.7,8.7,0,0,1-2.44-.2A6.39,6.39,0,0,1,40,35.94a2.9,2.9,0,0,0-1.28-.33.31.31,0,0,0-.31.37C38.73,37,40,37.5,40.82,37.91Z"/><path class="cls-1" d="M64.22,38.9a.61.61,0,0,0-.55-.37h-1.1A23.8,23.8,0,0,0,65.65,25.2C64.61,10.11,49.06-1.16,31,.09S-1,14.64.06,29.74c.78,11.39,9.84,20.59,22,23.89-.55.59-1.08,1.21-1.59,1.78-1.15,1.28-2.23,2.63-3.26,4a69.3,69.3,0,0,0-5.5,8.67,1.08,1.08,0,0,0,.58,1.39c1.81.92,4,.18,5.89-.25,1-.24,2.07-.51,3.09-.79l-.18,1.16L19.77,78c-.39,2.49-.75,4.94.21,7.35a10.4,10.4,0,0,0,2.91,4,38.45,38.45,0,0,0-1.64,6.35c-.52,2.32-1,4.66-1.48,7s-.87,4.55-1.26,6.84c-.21,1.21-.41,2.41-.6,3.62-.16,1-.24,2-.45,3a14.19,14.19,0,0,0-6.12,0c-1.46.38-4,2.07-2.68,3.85,1.17,1.59,4.09,1.81,5.82,1.36a6.77,6.77,0,0,0,4.2-3.34.83.83,0,0,0,.42-.67,45.87,45.87,0,0,1,1-7.08c.38-2.35.8-4.7,1.24-7s.88-4.56,1.36-6.82c.43-2,1.09-4.15,1.34-6.24a17.66,17.66,0,0,0,6.51,2.59,34.8,34.8,0,0,0,7.56.57,20.76,20.76,0,0,0,7.22-1.14c.24-.1.46-.21.67-.32.19,2,.6,3.91,1,5.83q.67,3.57,1.34,7.13c.88,4.69,1.74,9.39,2.62,14.08a1,1,0,0,0,.58.74,12.56,12.56,0,0,0,6.93-.07c1.86-.57,4.65-1.79,4.57-4.12-.09-2.53-2.89-2.37-4.68-2a16.93,16.93,0,0,0-6.08,2.43q-1.17-5.73-2.33-11.45c-.47-2.31-.93-4.62-1.4-6.93a58.7,58.7,0,0,0-1.45-6.27,8.68,8.68,0,0,0,3-4.2c.93-2.76.69-5.67.46-8.52a1,1,0,0,0-.2-.55l.65-.07c2.49-.32,5-.63,7.47-1,1.06-.16,3.07-.33,4-1.2a1.07,1.07,0,0,0,.83-1c.41-2.91.51-5.88.74-8.81.14-1.7.26-3.4.38-5.1l.11-.07a1,1,0,0,0,.17-1.39l-.16-.13c0-.71.11-1.42.16-2.12q.32-4.32.64-8.62a55.23,55.23,0,0,0,.2-8.72A1.1,1.1,0,0,0,64.22,38.9ZM14.39,119.48a4.58,4.58,0,0,1-2.08.22c-.23,0-1.94-.31-2-.68s.79-.72,1-.82a6.11,6.11,0,0,1,1.85-.34,18.69,18.69,0,0,1,3.26.14A4.71,4.71,0,0,1,14.39,119.48ZM52.9,117.8a15.23,15.23,0,0,1,4.27-2.17c.56-.18,4.83-1.32,3.84.35-.7,1.2-3,1.82-4.24,2.06a10.92,10.92,0,0,1-4.11,0l0-.08A.83.83,0,0,0,52.9,117.8ZM2.42,29.58c-1-13.8,11.92-26,28.7-27.12q1.3-.09,2.58-.09c15.66,0,28.68,9.92,29.59,23a21.73,21.73,0,0,1-3.54,13.27,54.33,54.33,0,0,0-8.65,1.57c-2.05.51-4.08,1.08-6.14,1.58s-4.2.73-6.17,1.41a.58.58,0,0,0-.7.39c-.07.26-.13.51-.19.77a.61.61,0,0,0-.17.8c-.43,2.23-.58,4.53-.82,6.78l0,.3c-.76.11-1.52.19-2.3.25a36.59,36.59,0,0,1-9.59-.6.76.76,0,0,0-.66-.14C12.29,49.13,3.17,40.44,2.42,29.58ZM35,66.07c-.38.22-.77.4-1.17.59a13,13,0,0,0-1.17.61,9.47,9.47,0,0,0-1.11.65,1.24,1.24,0,0,1,.13-.66c.14-.41.28-.81.44-1.22a18.48,18.48,0,0,0,.79-2l.87-.41a16.22,16.22,0,0,0,2-1c-.11,1-.21,2.09-.32,3.14Zm.39.77c-.16,1.54-.31,3.08-.47,4.62a2,2,0,0,1-.58-.42c-.3-.3-.57-.62-.86-.94s-.83-.89-1.25-1.34c.3-.13.6-.29.88-.44a9.37,9.37,0,0,0,1.22-.73C34.68,67.34,35,67.08,35.39,66.84Zm.42-6.24a8,8,0,0,0-2.68,1.12l-.05,0,.07-.18c.16-.37.31-.74.47-1.12l.45-1.15a3.28,3.28,0,0,0,.59-.23l.81-.46c.24-.14.48-.29.71-.45l.1-.07L36,60.62Zm-.17-3.18q-.33.26-.69.48l-.44.27c.25-.64.5-1.29.74-1.93a14.33,14.33,0,0,0,.51-1.48l.87-.1c-.08.82-.17,1.63-.25,2.44A1.26,1.26,0,0,0,35.64,57.42ZM32,55c.77,0,1.55,0,2.33-.08-.12.29-.23.58-.34.85-.28.7-.55,1.4-.82,2.1s-.54,1.41-.8,2.11c-.13.36-.26.71-.38,1.07a2.13,2.13,0,0,0-.28,1.22l.06.13c-.47.22-.94.45-1.41.65-1.87.82-3.76,1.55-5.69,2.21-.41.14-.84.26-1.26.39.19-1.26.37-2.52.56-3.79s.4-2.73.58-4.1a15.35,15.35,0,0,0,.31-3.44A38,38,0,0,0,32,55ZM18.92,66.89c-1,.24-2,.46-3,.66a8.52,8.52,0,0,1-1.64.23A70.16,70.16,0,0,1,19,60.54c1-1.3,2-2.55,3-3.79.47-.57,1-1.12,1.5-1.67-.16.67-.24,1.37-.36,2.05-.25,1.43-.48,2.85-.71,4.28-.24,1.59-.49,3.17-.74,4.75C20.73,66.42,19.83,66.67,18.92,66.89Zm25.7,23.33a17.71,17.71,0,0,1-6.26,1,33.2,33.2,0,0,1-6.9-.41c-4-.66-8.25-2.56-9.79-6.57-.86-2.26-.29-4.75,0-7.06s.71-4.81,1.06-7.22c.1-.71.2-1.41.31-2.12.52-.16,1.05-.3,1.57-.47,2.1-.7,4.17-1.49,6.19-2.38l.34-.16c-.16.38-.31.77-.45,1.12-.37.92-.94,2-.3,2.93a24.17,24.17,0,0,0,2.07,2.35c.63.69,1.29,1.54,2.27,1.61-.18,1.75-.35,3.5-.53,5.24a1.17,1.17,0,0,0,1.31,1.28Q42,79,48.42,78.21a1.06,1.06,0,0,0-.12.65C48.71,82.8,49,88.32,44.62,90.22Zm17.64-33c-.08.91-.15,1.82-.23,2.73a4.42,4.42,0,0,1-1.58.6l-.26,0H60l-.32,0-.13,0h0l-.29-.12-.09,0,0,0a2.92,2.92,0,0,1-.28-.21c.13.12-.08-.11-.11-.15l0,0-.06-.11a.81.81,0,0,1-.08-.25,3.71,3.71,0,0,1-.08-.79,5.18,5.18,0,0,1,.14-1.44,1.57,1.57,0,0,1,.25-.52,2.17,2.17,0,0,1,.24-.29c-.08.08.14-.11.18-.15l.12-.08.11-.08.23-.12L60,56l.14,0,0,0h.05a4.68,4.68,0,0,1,2.1.1C62.33,56.42,62.3,56.84,62.26,57.26ZM63,48.65c-.16,1.88-.33,3.76-.49,5.65l0,0A4.87,4.87,0,0,0,60.24,54,4.23,4.23,0,0,0,57,56.22a5,5,0,0,0-.45,2.12,5.11,5.11,0,0,0,.3,2.26,3.47,3.47,0,0,0,3.08,1.94,4.86,4.86,0,0,0,1.91-.32c-.1,1.22-.21,2.43-.31,3.65-.21,2.57-.51,5.16-.62,7.74l-.12.18,0,0h0l-.05.08.05-.08-.1.06a4.9,4.9,0,0,1-.46.21,9.55,9.55,0,0,1-1.42.23l-3.43.55q-3.34.51-6.7.91c-4,.49-8,.89-12,1.24L38,62.31A9.09,9.09,0,0,0,42.8,65.2a5.63,5.63,0,0,0,5.33-2.48,3.75,3.75,0,0,0,.62-3,5.89,5.89,0,0,0-1.5-2.56,4.18,4.18,0,0,0-2.65-1.39,7,7,0,0,0-3.12.56A11.18,11.18,0,0,0,38.59,58c-.08.05-.14.12-.21.17q.27-2.88.52-5.77c.19-2.31.51-4.67.51-7,4-.61,8-1.66,12-2.37s8-1.32,12-1.82A64.29,64.29,0,0,1,63,48.65ZM38.56,60.25a12,12,0,0,1,2.53-1.77c1.15-.58,2.93-1.35,4.16-.62s2.19,2.25,1.56,3.5a3.69,3.69,0,0,1-3.59,1.84c-1.59-.22-2.89-1.51-4-2.59A1.14,1.14,0,0,0,38.56,60.25Z"/></g></g></svg>