<svg xmlns="http://www.w3.org/2000/svg" viewBox="0 0 76.3 109.53"><defs><style>.cls-1{fill:#242647;}</style></defs><title>my_hobbies_doodleAsset 2</title><g id="Layer_2" data-name="Layer 2"><g id="OBJECTS"><path class="cls-1" d="M28.65,28.07a1.35,1.35,0,0,0-1.3.56l-.07.11a1.57,1.57,0,0,0-.31.45,3.39,3.39,0,0,0-.26,1.3,5.72,5.72,0,0,0,.08,1.09,6.4,6.4,0,0,0,0,.76,1.93,1.93,0,0,0,.37,1.09,1.39,1.39,0,0,0,1.41.54,1.69,1.69,0,0,0,1.2-1,2.66,2.66,0,0,0,.19-1,4.63,4.63,0,0,0,.09-.62,4.52,4.52,0,0,0-.3-2.33A1.62,1.62,0,0,0,28.65,28.07Z"/><path class="cls-1" d="M50,32.34a1.93,1.93,0,0,0,.37,1.09,1.39,1.39,0,0,0,1.41.54A1.69,1.69,0,0,0,53,33a2.66,2.66,0,0,0,.19-1,4.63,4.63,0,0,0,.09-.62,4.52,4.52,0,0,0-.3-2.33,1.62,1.62,0,0,0-1.11-.91,1.35,1.35,0,0,0-1.3.56l-.07.11a1.57,1.57,0,0,0-.31.45,3.39,3.39,0,0,0-.26,1.3A5.72,5.72,0,0,0,50,31.58,6.4,6.4,0,0,0,50,32.34Z"/><path class="cls-1" d="M44.81,37.75a1,1,0,0,0-1.65-1,5.38,5.38,0,0,1-1.54,1.43,4.81,4.81,0,0,1-2.16.58A9,9,0,0,1,37,38.43,6.84,6.84,0,0,1,35.8,38a2.81,2.81,0,0,0-1.26-.42c-.18,0-.38.13-.33.34.22,1,1.4,1.63,2.23,2.09a6.3,6.3,0,0,0,3.3.74A6.42,6.42,0,0,0,42.52,40,5.05,5.05,0,0,0,44.81,37.75Z"/><path class="cls-1" d="M75.74,62.87a2.78,2.78,0,0,0-1.13-1.35l-.21-.05-.63-6.42c-.14-1.43-.16-3-.44-4.37-.22-1.15-1.11-1.54-2.2-1.57a24.47,24.47,0,0,0-7.27,1.36,35.3,35.3,0,0,1-3.93,1,6.9,6.9,0,0,1-.78.09,32.92,32.92,0,0,0,7.44-4.63c6-4.93,9.71-11.83,9.71-19.48S72.55,12.9,66.59,8A36.32,36.32,0,0,0,43.42,0,36.31,36.31,0,0,0,20.26,8c-6,4.94-9.71,11.83-9.71,19.48S14.3,42,20.26,46.92a34.09,34.09,0,0,0,11.62,6.22l-.41.26c-.85.53-1.69,1.09-2.54,1.61q-2.62,1.6-5.35,3a75.54,75.54,0,0,1-9.48,4.29,33.66,33.66,0,0,0-1.35-6.91,35.29,35.29,0,0,0-1.44-4c-.51-1.18-1-3-2.39-3.3a.89.89,0,0,0-.88.44A9.86,9.86,0,0,0,7,48.18a8.71,8.71,0,0,0-2.15-.36,5,5,0,0,0-3.29.94,2.78,2.78,0,0,0-.73,3.45,4.1,4.1,0,0,0,3.87,2A9.46,9.46,0,0,0,7,53.79a5.63,5.63,0,0,0,2.23-.94c.42,1,.82,2.11,1.14,3.2a46.74,46.74,0,0,1,1.47,8,1.18,1.18,0,0,0,1.61.9c3.73-1.68,7.43-3.33,11-5.32,1.72-1,3.41-2,5.06-3,.84-.54,1.68-1.09,2.5-1.67a7.37,7.37,0,0,0,1.64-1.32h0A116.22,116.22,0,0,1,24.05,73c-1.84,2.91-4.2,6-4.51,9.5-.3,3.31,1.54,5.78,4.13,7.5a13.09,13.09,0,0,0-1.23,1c-.83.74-1.66,1.49-2.47,2.26-1.56,1.46-3.07,3-4.55,4.51-1.75,1.81-3.42,3.68-5,5.6a16.56,16.56,0,0,0-2.86-4.63c-1.43-1.62-3.88-4.23-6.1-2.32-2,1.73-1.61,4.83-.55,7,1.35,2.68,3.76,4.45,6.29,5.93a1.18,1.18,0,0,0,1.64-.22c.55-.77,1.11-1.52,1.68-2.28a.8.8,0,0,0,.73-1c1.79-2.33,3.67-4.6,5.64-6.78q2.17-2.38,4.5-4.63c.76-.73,1.53-1.46,2.31-2.17a12.23,12.23,0,0,0,1.43-1.45,25.17,25.17,0,0,0,19,1.76h0A21.3,21.3,0,0,0,45.42,97a.85.85,0,0,0,1.13.45c2.84-1.52,5.6-3.22,8.37-4.86l3.86-2.28a12.62,12.62,0,0,0-.58,3.81c0,1.24,0,2.93.82,4,1.75,2.36,4.42-1.43,4.93-3a9.41,9.41,0,0,0-.44-6.86,2.2,2.2,0,0,0-3.21-1c-1.52.77-3,1.75-4.43,2.62-3.09,1.83-6.23,3.61-9.27,5.53a29,29,0,0,1-1.16-3.28A18.27,18.27,0,0,0,53,87.24a17.26,17.26,0,0,0,3.68-8.86,94,94,0,0,0,.73-12.44c.1-4.24.08-8.48,0-12.72a12.5,12.5,0,0,0,5.1-.5,56.79,56.79,0,0,1,6.93-1.66A10.87,10.87,0,0,1,71.07,51h.41a5.36,5.36,0,0,1,.09,1L72,56.12l.72,7.62A8.58,8.58,0,0,0,68,67.36c-1,1.76-.94,4.19,1,5.23a4.51,4.51,0,0,0,5-.87c1.59-1.52,1.91-3.84,2.05-5.94v0a3.63,3.63,0,0,0,.09-1.54A4,4,0,0,0,75.74,62.87ZM7,51.87a9.42,9.42,0,0,1-1.65.39,3.05,3.05,0,0,1-2.77-.58,1.21,1.21,0,0,1-.34-1v-.08l0-.09.08-.17a1.29,1.29,0,0,1,.27-.3,3.58,3.58,0,0,1,2.18-.71,11.92,11.92,0,0,1,1.83.16c.44.08.88.19,1.31.3a6.16,6.16,0,0,0,.62,1.46A8.69,8.69,0,0,0,7,51.87Zm.63,54.94a15.16,15.16,0,0,1-3.84-3.29c-1-1.3-2.21-3.66-1.13-5.23,1-1.4,3.28,1.65,3.88,2.41a14.82,14.82,0,0,1,2.4,4.44C8.47,105.69,8,106.25,7.6,106.81ZM60.82,90.13a.89.89,0,0,0-.17-.94l.4-.2c.46-.21.49-.24.77.1a2.74,2.74,0,0,1,.3.78A6.77,6.77,0,0,1,61.36,96c-.11.13-.78.91-.88.88-.3-.11-.35-1.77-.37-2.11A11.06,11.06,0,0,1,60.82,90.13ZM12.92,27.44c0-6.85,3.34-13.08,8.85-17.65A34,34,0,0,1,43.42,2.37,34,34,0,0,1,65.08,9.79c5.51,4.57,8.85,10.8,8.85,17.65S70.59,40.53,65.08,45.1a34,34,0,0,1-21.66,7.42A34,34,0,0,1,21.77,45.1C16.26,40.53,12.92,34.3,12.92,27.44ZM39.14,67.86c-.77.28-1.54.55-2.31.84a5.62,5.62,0,0,0-1.77.87,2.47,2.47,0,0,1-.35-.71,2.61,2.61,0,0,1,.47-1.63c.29-.62.58-1.24.88-1.85a14.64,14.64,0,0,0,1.51-.94c.65-.39,1.29-.79,2-1.17s1.28-.74,1.93-1.11l.89-.49c.23,1,.5,1.93.78,2.86.16.57.34,1.14.51,1.71ZM44,67.63c0,.46-.15.74-.56,1.16l-1,1L40.25,72l-1.08,1.13a9.91,9.91,0,0,1-.85.91,10.46,10.46,0,0,1-1.44-1.77c-.44-.57-.85-1.18-1.24-1.8A7.41,7.41,0,0,0,37.38,70c.78-.26,1.55-.55,2.32-.83ZM42,54.85a11.69,11.69,0,0,0-.21,2.57,1.72,1.72,0,0,0-.28.08l-.41.14-.82.28a6.31,6.31,0,0,0-.68.26c.53-1.12,1-2.24,1.5-3.37ZM40.64,59l.83-.26.35-.1c.06.59.15,1.18.26,1.77l-.15.08-1,.58c-.66.38-1.33.76-2,1.15S37.63,63,37,63.4h0c.65-1.32,1.31-2.65,2-4C39.53,59.29,40.09,59.17,40.64,59ZM54.36,74.47a23.22,23.22,0,0,1-1.86,8.68,13.08,13.08,0,0,1-6.78,6,22.75,22.75,0,0,1-18,.11c-2.62-1.13-5.82-2.91-5.74-6.18s2.37-6.07,4-8.67a92.36,92.36,0,0,0,9.6-20.35,39.1,39.1,0,0,0,4.11.61c-1.44,2.64-2.69,5.38-4,8.08a49.16,49.16,0,0,0-2.48,5c-.49,1.37.53,2.76,1.21,3.89a17.59,17.59,0,0,0,2.93,3.77c1.31,1.22,2.39-.31,3.31-1.24q2-2,3.92-4.09a3.88,3.88,0,0,0,1.19-1.72,4.77,4.77,0,0,0-.37-2.32c-.56-1.91-1.16-3.81-1.53-5.77a15.47,15.47,0,0,1,0-5.47,38.85,38.85,0,0,0,10.81-1.62C54.78,60.32,54.81,67.43,54.36,74.47Zm19.91-9.26c-.14,2.16-.72,6.63-4,5.85-1.47-.36-1.18-2-.53-3a7.26,7.26,0,0,1,4.09-2.69,1.32,1.32,0,0,0,.43-.21Z"/></g></g></svg>