<svg width="269" height="440" viewBox="0 0 269 440" fill="none" xmlns="http://www.w3.org/2000/svg">
<g clip-path="url(#clip0_4_122)">
<path d="M178.492 154.096C179.245 156.129 180.753 157.587 182.787 158.2C184.747 158.776 186.932 158.009 188.213 156.436C189.155 155.285 189.683 153.789 189.834 152.331C189.947 151.372 190.022 150.413 190.06 149.416C190.361 148.035 190.55 146.654 190.587 145.234C190.625 143.585 190.474 141.744 189.909 140.209C189.645 139.557 189.268 138.943 188.854 138.406L188.628 137.984C187.61 136.373 185.764 135.299 183.842 135.567C181.883 135.836 180.451 137.102 179.509 138.79C178.077 141.322 177.738 144.774 177.851 147.651C177.889 148.418 177.927 149.262 178.04 150.068C177.964 151.449 178.002 152.792 178.492 154.096Z" fill="#242647"/>
<path d="M101.624 133.304L101.398 132.882C100.38 131.271 98.5341 130.197 96.6124 130.465C94.653 130.734 93.2212 132 92.2792 133.688C90.8473 136.22 90.5082 139.672 90.6212 142.549C90.6589 143.316 90.6966 144.16 90.8096 144.966C90.8096 146.309 90.8096 147.69 91.2995 148.994C92.0531 151.027 93.5603 152.485 95.595 153.098C97.5544 153.674 99.7399 152.907 101.021 151.334C101.963 150.183 102.491 148.687 102.641 147.229C102.754 146.27 102.83 145.311 102.867 144.314C103.169 142.933 103.357 141.552 103.395 140.132C103.433 138.483 103.282 136.642 102.717 135.107C102.415 134.417 102.076 133.841 101.624 133.304Z" fill="#242647"/>
<path d="M129.018 178.033C132.07 179.99 135.725 181.217 139.304 181.562C143.562 181.984 148.008 181.409 151.89 179.491C155.092 177.918 159.689 175.77 160.744 171.972C160.97 171.167 160.255 170.63 159.576 170.591C157.805 170.514 156.373 171.243 154.753 171.895C153.208 172.548 151.626 173.046 150.005 173.392C146.991 174.005 143.901 174.504 140.811 174.235C137.985 174.005 135.235 173.046 132.786 171.55C130.336 170.016 129.055 167.944 127.322 165.719C124.873 162.535 119.409 164.875 120.879 168.98C122.235 172.893 125.702 175.923 129.018 178.033Z" fill="#242647"/>
<path d="M268.322 222.072C268.548 219.923 267.078 217.43 264.29 217.43C252.044 217.315 239.685 218.197 227.401 218.696C218.471 219.041 209.54 219.463 200.61 219.923C199.97 218.849 199.028 217.929 198.199 217.008C197.294 216.049 196.352 215.09 195.373 214.208C193.376 212.405 191.265 210.832 189.042 209.297C186.781 207.725 184.483 206.228 182.184 204.732C180.527 203.658 178.756 202.392 176.872 201.51C188.967 196.83 200.045 190.5 209.653 182.828C231.47 165.374 245.827 140.746 247.447 112.743C247.56 111.017 247.598 109.252 247.598 107.526C247.598 79.3304 234.485 53.3984 213.271 34.1796C192.057 14.9224 162.704 2.2633 129.809 0.306888C126.907 0.0767219 123.968 0 121.067 0C89.0763 0 59.761 10.4342 37.9441 27.9268C16.1272 45.381 1.77098 70.0087 0.150721 98.0122C0.0376803 99.7385 0 101.503 0 103.229C0 131.425 13.1128 157.357 34.3268 176.575C47.7033 188.697 64.2827 198.211 82.9721 204.08C80.7867 205.538 78.6389 207.034 76.5288 208.53C71.1028 212.366 65.7145 216.279 60.3262 220.23C49.1729 228.363 37.9818 236.495 26.8284 244.628C23.0604 247.351 18.6518 250.689 20.0836 256.098C21.4401 261.2 27.3559 264.345 31.35 267.069C41.373 273.897 51.8105 280.035 62.7001 285.329C64.8102 286.364 66.958 287.323 69.1058 288.283C68.6159 292.387 68.1637 296.53 67.8623 300.635C66.5812 317.744 69.2942 336.656 82.2185 349.008C89.9807 356.412 100.154 359.902 110.705 361.629C109.311 372.14 110.215 383.303 110.592 393.775C110.818 399.721 111.157 405.629 111.572 411.536C111.76 414.298 112.024 417.022 112.25 419.784C102.604 417.367 92.4299 417.521 82.9721 420.858C78.6389 422.354 74.6824 425.269 74.1926 430.218C73.6651 435.55 77.8476 438.504 82.4823 439.348C93.1835 441.266 104.751 439.233 114.36 434.169C116.319 433.133 118.731 432.021 119.71 429.873C120.841 427.418 120.05 424.502 119.71 421.97C118.844 415.372 118.09 408.736 117.525 402.099C116.884 394.964 116.395 387.829 116.093 380.656C115.829 374.556 115.942 368.38 115.415 362.319C120.652 362.933 125.89 363.24 130.902 363.432C140.962 363.815 151.061 363.432 161.046 362.204C161.762 362.127 162.478 362.012 163.194 361.936C161.799 371.794 161.649 381.96 160.594 391.819C159.312 403.596 157.579 415.296 155.431 426.919C155.017 429.182 156.562 430.87 158.521 431.484C168.544 434.668 178.605 437.66 189.193 437.66C196.729 437.66 210.52 436.049 210.445 425.653C210.369 416.255 195.975 414.95 189.268 414.298C180.979 413.493 172.689 414.26 164.701 416.446C165.756 408.429 166.622 400.412 167.301 392.317C168.13 382.19 169.335 371.372 168.469 361.092C173.518 360.133 178.492 358.713 183.051 356.181C191.303 351.54 195.41 343.33 196.239 333.932C197.257 322.692 196.503 311.184 194.732 300.059L194.694 299.868C195.184 299.829 195.712 299.752 196.202 299.714C195.938 302.975 197.52 306.197 199.97 308.499C203.436 311.836 208.636 312.565 213.233 312.603C217.227 312.642 221.523 312.105 224.876 309.726C228.757 306.964 230.604 301.786 230.566 297.067L230.415 296.377C234.636 295.955 238.856 295.571 243.076 295.149C247.409 294.727 251.742 294.382 256.076 293.998L256.565 285.789C256.754 285.175 256.942 284.485 257.131 283.794C257.96 280.457 258.563 277.004 259.241 273.629C260.786 266.148 262.293 258.629 263.762 251.111C265.646 241.482 267.417 231.815 269.151 222.11C268.774 222.072 268.548 222.072 268.322 222.072ZM110.743 427.418C105.919 429.758 100.682 431.33 95.369 431.906C92.769 432.174 90.1691 432.289 87.5691 432.098C86.1373 431.983 80.9751 432.174 82.1055 429.949C83.0098 428.223 86.9286 427.609 88.5488 427.188C91.2618 426.497 94.0501 426.075 96.8008 425.922C101.624 425.615 106.372 426.19 111.044 427.303L110.743 427.418ZM183.842 421.357C186.367 421.357 204.039 422.738 202.946 426.19C202.08 428.875 195.787 429.144 193.639 429.374C189.871 429.758 186.103 429.643 182.373 429.144C176.005 428.3 169.75 426.612 163.57 424.771C170.127 422.507 176.909 421.318 183.842 421.357ZM185.764 213.172C187.799 214.668 189.796 216.202 191.642 217.89C192.434 218.619 193.225 219.386 193.978 220.192C192.848 220.269 191.68 220.269 190.55 220.345C186.895 220.537 183.24 220.806 179.622 220.997C178.906 216.893 177.776 212.865 176.08 209.029C175.364 207.379 174.535 205.73 173.631 204.195C175.214 205.922 177.324 207.264 179.17 208.53C181.356 210.065 183.579 211.599 185.764 213.172ZM116.771 230.242C115.415 235.076 114.925 240.255 114.322 245.165C113.87 248.732 113.38 252.262 112.928 255.829C112.664 255.829 112.4 255.829 112.099 255.867L94.5777 258.668C89.4908 259.473 84.4417 260.279 79.5809 261.929C79.8823 258.553 80.2215 255.139 80.4475 251.763L80.4852 251.456C81.5026 245.779 82.8968 240.14 84.6677 234.654C87.7198 225.14 92.0908 216.317 96.8008 207.571C103.583 208.99 110.592 209.949 117.789 210.371C119.937 210.487 122.047 210.525 124.157 210.563C123.968 211.1 123.742 211.676 123.592 212.213C123.139 213.747 122.876 215.32 122.574 216.854C122.009 219.693 121.594 222.532 121.105 225.409C120.012 225.716 118.957 226.099 117.939 226.598C116.169 227.48 116.282 229.629 117.902 230.434C117.148 230.357 116.508 229.82 116.206 229.13C116.319 229.59 116.508 229.974 116.771 230.242ZM117.6 309.573C120.577 316.363 113.041 321.925 107.05 318.703C100.607 315.25 100.38 307.655 103.32 301.747C104.035 302.246 104.789 302.706 105.543 302.936C105.09 305.622 107.389 308.115 110.064 307.885C112.514 307.655 114.925 307.425 117.374 307.194C117.186 307.885 117.186 308.691 117.6 309.573ZM83.1605 266.609C87.1546 266.455 91.1488 265.918 95.1806 265.343C100.795 264.537 106.372 263.732 111.986 262.964C111.911 263.463 111.873 263.962 111.798 264.46C110.403 274.741 108.708 284.983 106.937 295.187C105.769 293.883 104.563 292.617 103.395 291.313C101.096 288.82 98.7602 286.326 96.4994 283.756C91.714 278.309 87.3054 272.555 83.1605 266.609ZM89.001 287.554C85.0445 286.134 81.1635 284.561 77.2824 282.912C77.6215 280.073 77.9983 277.273 78.3374 274.434C81.7287 278.961 85.2706 283.334 89.001 287.554ZM149.29 208.914C149.591 209.719 150.005 210.525 150.269 211.292L150.571 212.021C149.026 212.366 147.481 212.98 146.124 213.364C143.713 214.054 141.301 214.821 138.927 215.589C134.783 216.931 130.751 218.35 126.757 220.077C126.832 219.31 126.907 218.542 126.983 217.813C127.133 216.356 127.322 214.898 127.473 213.44C127.548 212.558 127.586 211.637 127.623 210.755C135.009 210.64 142.243 210.026 149.29 208.914ZM126.531 222.877C131.015 221.726 135.423 220.384 139.907 219.041C142.243 218.35 144.542 217.698 146.878 217.008C148.046 216.663 149.214 216.317 150.382 216.01C150.91 215.857 151.437 215.742 151.965 215.589L152.078 215.857C152.605 217.353 153.058 218.888 153.434 220.422C153.66 221.304 153.66 221.458 153.849 222.34C153.849 222.417 153.887 222.532 153.887 222.609C153.849 222.609 153.773 222.609 153.736 222.609C147.858 222.992 141.942 223.414 136.064 223.913C133.087 224.143 129.733 224.22 126.493 224.565C126.493 223.951 126.493 223.414 126.531 222.877ZM159.463 222.225C159.237 221.112 158.936 220 158.597 218.926C158.144 217.315 157.579 215.704 156.939 214.169C156.298 212.558 155.582 210.947 154.716 209.412C154.452 208.952 154.15 208.53 153.887 208.07C158.37 207.187 162.779 206.113 167.075 204.847C167.338 205.423 167.602 205.922 167.791 206.42C168.582 208.3 169.411 210.141 170.089 212.059C170.73 213.901 171.295 215.819 171.822 217.737C171.935 218.197 172.086 218.696 172.199 219.156C172.275 219.463 172.35 219.77 172.425 220.038V220.077L172.463 220.23C172.538 220.614 172.614 221.036 172.689 221.419C168.28 221.688 163.872 221.918 159.463 222.225ZM8.93024 103.229C8.93024 101.695 8.96792 100.122 9.08096 98.5493L4.63468 98.2807L9.08096 98.5493C10.5128 73.4229 23.3241 51.2119 43.4831 35.0619C63.6044 18.9503 90.998 9.09154 121.105 9.09154C123.818 9.09154 126.568 9.16827 129.357 9.32171C160.33 11.163 187.799 23.1317 207.393 40.9311C227.024 58.769 238.743 82.2459 238.743 107.487C238.743 109.06 238.705 110.595 238.592 112.167C237.16 137.294 224.349 159.505 204.19 175.655C184.068 191.766 156.675 201.625 126.568 201.625C123.855 201.625 121.105 201.548 118.316 201.395C87.343 199.554 59.8741 187.585 40.2803 169.786C20.6488 151.986 8.93024 128.471 8.93024 103.229ZM72.497 266.148C71.668 270.713 70.8767 275.24 70.1985 279.805C56.2944 273.398 42.9556 265.726 30.3704 256.788C29.7298 256.328 27.5443 255.177 27.4313 254.333C27.2429 252.99 29.5037 251.878 30.3704 251.226C33.3471 249.001 36.3239 246.814 39.3006 244.589C45.2541 240.178 51.2076 235.766 57.1234 231.355C63.0769 226.943 69.0304 222.57 74.9462 218.12C77.8853 215.895 80.862 213.67 83.7634 211.369C85.3083 210.141 86.8532 208.875 88.3604 207.609C88.9633 207.111 89.5662 206.612 90.1691 206.113C90.3575 206.152 90.5459 206.19 90.7343 206.267C85.3837 214.476 81.3142 223.568 78.2621 232.851C76.3781 238.567 74.7955 244.359 73.6651 250.267C73.0999 253.259 72.6477 256.251 72.2709 259.282C72.0448 261.737 71.6303 263.923 72.497 266.148ZM188.176 328.255C187.874 335.697 186.781 343.177 180.263 347.627C174.837 351.348 168.054 352.46 161.686 353.304C152.869 354.417 144.014 354.915 135.122 354.8C120.238 354.609 101.624 353.956 89.5285 343.906C77.3201 333.779 74.8708 316.785 75.5491 301.67C75.6998 298.218 76.0013 294.766 76.3781 291.351C82.8968 293.998 89.5285 296.415 96.2356 298.525C91.4502 308.921 93.5603 322.309 105.543 326.72C111.195 328.792 117.374 327.602 121.519 323.076C125.363 318.856 126.907 312.45 124.345 307.156L124.044 306.657C144.843 304.739 165.643 302.706 186.405 300.673V300.788C187.837 309.803 188.515 319.048 188.176 328.255ZM222.427 301.057C221.937 302.284 221.447 302.936 220.581 303.55C220.581 303.55 219.639 304.126 220.053 303.895C219.752 304.049 219.45 304.164 219.149 304.279C218.847 304.394 218.508 304.509 218.207 304.624C218.245 304.624 217.152 304.893 217.566 304.816C216.134 305.123 214.665 305.238 213.195 305.276C210.369 305.353 207.053 305.008 204.868 303.512C203.361 302.476 202.117 300.942 201.514 299.139C208.787 298.448 216.097 297.719 223.369 297.029C222.992 298.371 222.879 299.983 222.427 301.057ZM256.038 251.187C254.757 258.745 253.476 266.263 252.082 273.82C251.855 275.048 249.971 281.915 250.311 286.058C247.598 286.326 244.885 286.633 242.209 286.902C227.439 288.321 212.668 289.664 197.897 291.044C170.164 293.615 142.394 296.108 114.699 298.908C116.508 287.937 118.128 276.966 119.484 265.956C120.276 259.512 120.916 253.067 121.481 246.584C121.896 241.712 122.461 236.495 122.084 231.508C126.87 232.007 132.107 231.125 136.629 230.856C142.507 230.511 148.423 230.089 154.301 229.705C166.585 228.938 178.869 228.248 191.152 227.634C203.436 227.02 215.72 226.521 228.041 226.099C238.705 225.754 249.444 225.831 260.107 225.447C258.826 234.002 257.47 242.595 256.038 251.187Z" fill="#242647"/>
</g>
<defs>
<clipPath id="clip0_4_122">
<rect width="269" height="440" fill="white"/>
</clipPath>
</defs>
</svg>
